<?xml version="1.0" encoding="utf-8"?>
<!-- Generator: Adobe Illustrator 21.0.0, SVG Export Plug-In . SVG Version: 6.00 Build 0)  -->
<svg version="1.1" xmlns="http://www.w3.org/2000/svg" xmlns:xlink="http://www.w3.org/1999/xlink" x="0px" y="0px"
	 viewBox="0 0 1024 768" enable-background="new 0 0 1024 768" xml:space="preserve">
<g id="rob_x5F_top_x5F_back">
	
		<path fill="none" stroke="#00D4FF" stroke-width="4.04" stroke-linecap="round" stroke-linejoin="round" stroke-miterlimit="10" d="
		M371.4,342.3c0-13.8,44.5-25,99.5-25c54.9,0,99.5,11.2,99.5,25"/>
</g>
<g id="rob_x5F_spodi_x5F_back">
	
		<path fill="none" stroke="#00D4FF" stroke-width="3.03" stroke-linecap="round" stroke-linejoin="round" stroke-miterlimit="10" d="
		M378.4,507.3c0-15.3,41.4-27.8,92.5-27.8s92.5,12.4,92.5,27.8"/>
</g>
<g id="baterie_x5F_and_x5F_wires">
	
		<polygon fill="none" stroke="#000000" stroke-width="2.525" stroke-linecap="round" stroke-linejoin="round" stroke-miterlimit="10" points="
		705.4,321.6 629.8,321.6 651.9,308.6 727.5,308.6 	"/>
	
		<line fill="none" stroke="#999999" stroke-width="2.525" stroke-linecap="round" stroke-linejoin="round" stroke-miterlimit="10" x1="690.4" y1="312.7" x2="703" y2="307.7"/>
	
		<rect x="629.8" y="321.6" fill="none" stroke="#000000" stroke-width="2.525" stroke-linecap="round" stroke-linejoin="round" stroke-miterlimit="10" width="76.3" height="137.6"/>
	
		<polygon fill="none" stroke="#000000" stroke-width="2.525" stroke-linecap="round" stroke-linejoin="round" stroke-miterlimit="10" points="
		727.7,443.4 706.2,459.2 706.2,321.6 727.7,308.7 	"/>
	
		<path fill="#FFFFFF" stroke="#000000" stroke-width="2.525" stroke-linecap="round" stroke-linejoin="round" stroke-miterlimit="10" d="
		M655.1,303.5v8.6c0,1.8,2.7,3.3,6,3.3c3.3,0,6-1.5,6-3.3v-8.6H655.1z"/>
	
		<ellipse fill="#FFFFFF" stroke="#000000" stroke-width="2.525" stroke-linecap="round" stroke-linejoin="round" stroke-miterlimit="10" cx="661" cy="304.3" rx="6" ry="2.5"/>
	
		<path fill="#FFFFFF" stroke="#000000" stroke-width="2.525" stroke-linecap="round" stroke-linejoin="round" stroke-miterlimit="10" d="
		M694.3,304.4v8.6c0,1.8,2.7,3.3,6,3.3c3.3,0,6-1.5,6-3.3v-8.6H694.3z"/>
	
		<ellipse fill="#FFFFFF" stroke="#000000" stroke-width="2.525" stroke-linecap="round" stroke-linejoin="round" stroke-miterlimit="10" cx="700.2" cy="305.2" rx="6" ry="2.5"/>
	
		<path fill="none" stroke="#FF0000" stroke-width="2.525" stroke-linecap="round" stroke-linejoin="round" stroke-miterlimit="10" d="
		M439.5,447.9c3.4,70.9,95.2,64.2,98.6,10.3c4.5-70.9,1.5-114.2,33.7-127.7l82-22.5"/>
	
		<line fill="none" stroke="#999999" stroke-width="2.525" stroke-linecap="round" stroke-linejoin="round" stroke-miterlimit="10" x1="653.6" y1="308.1" x2="664.6" y2="311.2"/>
	
		<line fill="none" stroke="#999999" stroke-width="2.525" stroke-linecap="round" stroke-linejoin="round" stroke-miterlimit="10" x1="690.4" y1="312.7" x2="706.2" y2="310.6"/>
	
		<path fill="none" stroke="#0000FF" stroke-width="2.525" stroke-linecap="round" stroke-linejoin="round" stroke-miterlimit="10" d="
		M505.4,445.4c-0.5,48.6,35.4,62.5,38,10.3c3.6-71.3,2.8-108.4,30.6-119.1c13.4-5.2,95.4-21.4,116.4-23.9"/>
	
		<line fill="none" stroke="#000000" stroke-width="2.525" stroke-linecap="square" stroke-linejoin="round" stroke-miterlimit="10" x1="649" y1="331.1" x2="649" y2="340.2"/>
	
		<line fill="none" stroke="#000000" stroke-width="2.525" stroke-linecap="square" stroke-linejoin="round" stroke-miterlimit="10" x1="653.5" y1="335.7" x2="644.5" y2="335.7"/>
	
		<line fill="none" stroke="#000000" stroke-width="2.525" stroke-linecap="square" stroke-linejoin="round" stroke-miterlimit="10" x1="691.6" y1="335.7" x2="682.5" y2="335.7"/>
</g>
<g id="epruveta_x5F_back_x5F_2">
	<path fill="none" stroke="#00D4FF" stroke-width="2.02" stroke-miterlimit="10" d="M517.7,253.8c0,1.7-5.5,4.3-12.3,4.3
		c-6.8,0-12.3-2.6-12.3-4.3"/>
	<path fill="none" stroke="#00D4FF" stroke-width="3.03" stroke-miterlimit="10" d="M488.5,429.6c0,0,0-114,0-152.1
		c0-8.5,0-29.4,16.8-29.4c16.8,0,16.8,21,16.8,29.4c0,38,0,152.1,0,152.1"/>
</g>
<g id="epruveta_x5F_back_x5F_2_x5F_rob">
	<path fill="none" stroke="#00D4FF" stroke-width="3" stroke-miterlimit="10" d="M488.5,428.4c3.4-1.4,9.7-2.4,16.8-2.4
		c7.1,0,13.3,1,16.8,2.4"/>
</g>
<g id="granit_x5F_2">
	<g>
		<path fill="#898989" d="M502.1,389v56.6c0,0.9,1.5,1.7,3.4,1.7c1.9,0,3.4-0.8,3.4-1.7V389H502.1z"/>
		<ellipse fill="#AFAFAF" cx="505.5" cy="389" rx="3.4" ry="1.7"/>
	</g>
</g>
<g id="eproveta">
	<path id="water-bottom" opacity="0.6" fill="#28ADFF" d="M522,426.4c0,0,10.3,8.8-16.7,8.8c-29.6,0-16.3-8.8-16.3-8.8H522z"/>
	<polygon id="water" opacity="0.6" fill="#28ADFF" points="488.9,271.3 488.9,426.3 521.9,426.3 521.9,271.3 	"/>
	<g id="water-surface">
		<path opacity="0.84" fill="#28ADFF" d="M521.9,271.3c-0.8-2.9-7.9-5.2-16.5-5.2c-8.6,0-15.6,2.3-16.5,5.2H521.9z"/>
		<path opacity="0.6" fill="#28ADFF" d="M488.9,271.3c0.8,2.9,7.9,5.2,16.5,5.2c8.6,0,15.6-2.3,16.5-5.2H488.9z"/>
	</g>
</g>
<g id="eprovela_x5F_edge">
	<path fill="none" stroke="#00D4FF" stroke-width="3.03" stroke-miterlimit="10" d="M488.5,429.6c0,0,0-114,0-152.1
		c0-8.5,0-29.4,16.8-29.4c16.8,0,16.8,21,16.8,29.4c0,38,0,152.1,0,152.1"/>
</g>
<g id="epruveta_x5F_front_x5F_2">
	<path fill="none" stroke="#00D4FF" stroke-width="3" stroke-miterlimit="10" d="M522.1,428.4c1.8,0.8,2.9,1.6,2.9,2.6
		c0,2.8-8.8,5-19.6,5c-10.8,0-19.6-2.2-19.6-5c0-1,1-1.8,2.9-2.6"/>
</g>
<g id="epruveta_x5F_back_x5F_1">
	<path fill="none" stroke="#00D4FF" stroke-width="2.02" stroke-miterlimit="10" d="M452.5,254.2c0,1.7-5.5,4.3-12.3,4.3
		c-6.8,0-12.3-2.6-12.3-4.3"/>
	<path fill="none" stroke="#00D4FF" stroke-width="3.03" stroke-miterlimit="10" d="M423.4,430c0,0,0-114,0-152.1
		c0-8.5,0-29.4,16.8-29.4c16.8,0,16.8,21,16.8,29.4c0,38,0,152.1,0,152.1"/>
</g>
<g id="epruveta_x5F_back_x5F_1_x5F_rob">
	<path fill="none" stroke="#00D4FF" stroke-width="3" stroke-miterlimit="10" d="M423.4,428.8c3.4-1.4,9.7-2.4,16.8-2.4
		c7.1,0,13.3,1,16.8,2.4"/>
</g>
<g id="granit_x5F_1">
	<g>
		<path fill="#898989" d="M436,389.6v56.6c0,0.9,1.5,1.7,3.4,1.7c1.9,0,3.4-0.8,3.4-1.7v-56.6H436z"/>
		<ellipse fill="#AFAFAF" cx="439.5" cy="389.6" rx="3.4" ry="1.7"/>
	</g>
</g>
<g id="epruveta_x5F_voda_x5F_1">
	<g>
		<path opacity="0.6" fill="#28ADFF" d="M440.6,264.8c-9,0-16.3,1.4-16.3,3.2c0,0,0.4,131.6,0.5,159.5c0,0-15.3,8.4,15.4,8.8
			c26.9,0.3,15.2-8.3,15.2-8.8c0.2-25.5,1.5-159.5,1.5-159.5C456.9,266.3,449.6,264.8,440.6,264.8z"/>
		<ellipse opacity="0.6" fill="#28ADFF" cx="440.6" cy="268.1" rx="16.3" ry="3.2"/>
	</g>
	<path fill="none" stroke="#00D4FF" stroke-width="2.02" stroke-miterlimit="10" d="M452.5,254.2c0,1.7-5.5,4.3-12.3,4.3
		c-6.8,0-12.3-2.6-12.3-4.3"/>
	<path fill="none" stroke="#00D4FF" stroke-width="3.03" stroke-miterlimit="10" d="M423.4,430c0,0,0-114,0-152.1
		c0-8.5,0-29.4,16.8-29.4c16.8,0,16.8,21,16.8,29.4c0,38,0,152.1,0,152.1"/>
</g>
<g id="epruveta_x5F_front_x5F_1">
	<path fill="none" stroke="#00D4FF" stroke-width="3" stroke-miterlimit="10" d="M457,428.8c1.8,0.8,2.9,1.6,2.9,2.6
		c0,2.8-8.8,5-19.6,5c-10.8,0-19.6-2.2-19.6-5c0-1,1-1.8,2.9-2.6"/>
</g>
<g id="bubbles">
	<g id="bubble-2">
		
			<circle opacity="0.6" fill="#A3C9FF" stroke="#BDD6FF" stroke-width="2.02" stroke-linecap="round" stroke-linejoin="round" stroke-miterlimit="10" cx="449.5" cy="333.4" r="3.4"/>
	</g>
	<g id="bubble-1">
		
			<circle opacity="0.6" fill="#A3C9FF" stroke="#BDD6FF" stroke-width="2" stroke-linecap="round" stroke-linejoin="round" stroke-miterlimit="10" cx="431.7" cy="320.1" r="2.6"/>
	</g>
	<g id="bubble-5">
		
			<circle opacity="0.6" fill="#A3C9FF" stroke="#BDD6FF" stroke-width="2" stroke-linecap="round" stroke-linejoin="round" stroke-miterlimit="10" cx="431.7" cy="380.8" r="2.6"/>
	</g>
	<g id="bubble-4">
		
			<circle opacity="0.6" fill="#A3C9FF" stroke="#BDD6FF" stroke-width="2" stroke-linecap="round" stroke-linejoin="round" stroke-miterlimit="10" cx="449.5" cy="369.2" r="4.2"/>
	</g>
	<g id="bubble-3">
		
			<circle opacity="0.6" fill="#A3C9FF" stroke="#BDD6FF" stroke-width="2" stroke-linecap="round" stroke-linejoin="round" stroke-miterlimit="10" cx="434.4" cy="354.8" r="4.2"/>
	</g>
	<g id="bubble-0">
		
			<circle opacity="0.6" fill="#A3C9FF" stroke="#BDD6FF" stroke-width="2" stroke-linecap="round" stroke-linejoin="round" stroke-miterlimit="10" cx="446" cy="299.5" r="3.4"/>
	</g>
</g>
<g id="voda_x5F_posoda">
	<path opacity="0.6" fill="#28ADFF" d="M471,417.3c49.3,0,89.5-6.9,92.2-15.5c-1.2-5.5-14.3-10.4-34.3-13.7
		c-15.8-2.3-36-3.6-57.9-3.6c-22.3,0-42.8,1.4-58.7,3.8c-19.3,3.2-32.1,8-33.5,13.4C380.9,410.3,421.4,417.3,471,417.3z"/>
	<path opacity="0.7" fill="#43BFFF" d="M471.1,417.3c-49.6,0-90.1-7-92.2-15.7c-0.1,0.3-0.1,0.7-0.1,1c0,0-0.1,87.5-0.1,103.9
		c0,16.3,41.3,29.6,92.3,29.6c51,0,92.3-13.3,92.3-29.6c0-10.7,0.1-103.9,0.1-103.9c0-0.3,0-0.6-0.1-0.8
		C560.6,410.5,520.4,417.3,471.1,417.3z"/>
</g>
<g id="rob_x5F_front">
	<g>
		
			<path fill="none" stroke="#00D4FF" stroke-width="4.5451" stroke-linecap="round" stroke-linejoin="round" stroke-miterlimit="10" d="
			M563.5,507.3c0,15.3-41.4,27.8-92.5,27.8s-92.5-12.4-92.5-27.8"/>
		
			<path fill="none" stroke="#00D4FF" stroke-width="4.0401" stroke-linecap="round" stroke-linejoin="round" stroke-miterlimit="10" d="
			M371.4,345.1c0,0,6.1,28.1,6.5,37.7c1.3,31,0.4,124.6,0.4,124.6"/>
		
			<polyline fill="none" stroke="#00D4FF" stroke-width="4.0401" stroke-linecap="round" stroke-linejoin="round" stroke-miterlimit="10" points="
			570.4,345.6 563.3,383.3 563.5,507.8 		"/>
	</g>
</g>
<g id="rob_x5F_top_x5F_front">
	
		<path fill="none" stroke="#00D4FF" stroke-width="4.04" stroke-linecap="round" stroke-linejoin="round" stroke-miterlimit="10" d="
		M570.4,342.3c0,13.8-44.5,25-99.5,25c-54.9,0-99.5-11.2-99.5-25"/>
</g>
<g id="line_x5F_R">
	<g>
		<line fill="none" stroke="#000000" stroke-miterlimit="10" x1="504" y1="339.5" x2="724.5" y2="216"/>
		<circle cx="504" cy="339.5" r="2"/>
	</g>
</g>
<g id="circle_x5F_R" display="none">
	<circle display="inline" fill="#FFFFFF" cx="805" cy="175.5" r="90"/>
</g>
<g id="circle_x5F_R_x5F_stroke" display="none">
	<circle display="inline" fill="none" stroke="#000000" stroke-miterlimit="10" cx="805" cy="175.5" r="90"/>
</g>
<g id="line_x5F_L">
	<g>
		<line fill="none" stroke="#000000" stroke-miterlimit="10" x1="307" y1="312.5" x2="441.5" y2="341"/>
		<circle cx="441.5" cy="341" r="2"/>
	</g>
</g>
<g id="circle_x5F_L" display="none">
	<circle display="inline" fill="#FFFFFF" cx="217.5" cy="302" r="90"/>
</g>
<g id="circle_x5F_L_x5F_stroke" display="none">
	<circle display="inline" fill="none" stroke="#000000" stroke-miterlimit="10" cx="217.5" cy="302" r="90"/>
</g>
<g id="electricity">
	<path fill="#FAF00A" d="M673.7,372.4c-3.1,8.2-6.2,16.3-9.3,24.5c5.1-2.8,10-5.6,15-8.4c-2.3,10.4-4.6,20.6-6.9,31
		c1.8-0.4,3.5-0.8,5.3-1.3c-3.1,4.2-6.1,8.3-9.2,12.6c-1.5-5-2.9-9.9-4.4-15c1.6,1,3,2,4.6,3c0.5-6.1,1-12.1,1.5-18.3
		c-4.8,2.9-9.6,5.7-14.4,8.5c0.3-1.2,0.5-2.4,0.7-3.5c1.5-7,3-14,4.6-21c0.9-3.9,1.7-7.8,2.6-11.7c0-0.2,0.3-0.4,0.4-0.4
		C667.3,372.4,670.4,372.4,673.7,372.4z"/>
</g>
</svg>
