<svg xmlns="http://www.w3.org/2000/svg" xmlns:xlink="http://www.w3.org/1999/xlink" viewBox="0 0 1024 768"><defs><radialGradient id="radial-gradient" cx="892.92" cy="369.04" r="21.16" gradientTransform="translate(1089.95 -371.66) rotate(90) scale(0.83)" gradientUnits="userSpaceOnUse"><stop offset="0.2" stop-color="#f15a29"/><stop offset="1" stop-color="#be1e2d"/></radialGradient><radialGradient id="radial-gradient-2" cx="811.42" cy="426.36" r="21.32" gradientTransform="translate(1129.95 -290.31) rotate(90) scale(0.81)" gradientUnits="userSpaceOnUse"><stop offset="0.2" stop-color="#58595b"/><stop offset="1" stop-color="#231f20"/></radialGradient><radialGradient id="radial-gradient-3" cx="785.33" cy="416.21" r="11.08" gradientTransform="matrix(0, 0.81, -0.81, 0, 1112.62, -289.93)" gradientUnits="userSpaceOnUse"><stop offset="0.2" stop-color="#f1f2f2"/><stop offset="1" stop-color="#808285"/></radialGradient><radialGradient id="radial-gradient-4" cx="812.14" cy="397.38" r="11.08" gradientTransform="translate(1123.49 -307.06) rotate(90) scale(0.81)" xlink:href="#radial-gradient-3"/><radialGradient id="radial-gradient-5" cx="838.95" cy="416.21" r="11.08" gradientTransform="matrix(0, 0.81, -0.81, 0, 1143.29, -302.64)" xlink:href="#radial-gradient-3"/><radialGradient id="radial-gradient-6" cx="812.14" cy="456.79" r="11.08" gradientTransform="matrix(0, 0.81, -0.81, 0, 1137.57, -273.07)" xlink:href="#radial-gradient-3"/><radialGradient id="radial-gradient-13" cx="892.92" cy="369.04" r="21.16" gradientTransform="translate(479.47 1105.42) rotate(-90) scale(0.83)" xlink:href="#radial-gradient"/><radialGradient id="radial-gradient-14" cx="811.42" cy="426.36" r="21.32" gradientTransform="translate(439.47 1024.06) rotate(-90) scale(0.81)" xlink:href="#radial-gradient-2"/><radialGradient id="radial-gradient-15" cx="785.33" cy="416.21" r="11.08" gradientTransform="translate(439.47 1024.06) rotate(-90) scale(0.81)" xlink:href="#radial-gradient-3"/><radialGradient id="radial-gradient-16" cx="812.14" cy="397.38" r="11.08" gradientTransform="translate(439.47 1024.06) rotate(-90) scale(0.81)" xlink:href="#radial-gradient-3"/><radialGradient id="radial-gradient-17" cx="838.95" cy="416.21" r="11.08" gradientTransform="translate(439.47 1024.06) rotate(-90) scale(0.81)" xlink:href="#radial-gradient-3"/><radialGradient id="radial-gradient-18" cx="812.14" cy="456.79" r="11.08" gradientTransform="translate(439.47 1024.06) rotate(-90) scale(0.81)" xlink:href="#radial-gradient-3"/><radialGradient id="radial-gradient-19" cx="892.92" cy="369.04" r="21.16" gradientTransform="translate(46.58 61.47) scale(0.83)" xlink:href="#radial-gradient"/><radialGradient id="radial-gradient-20" cx="811.42" cy="426.36" r="21.32" gradientTransform="translate(127.94 21.47) scale(0.81)" xlink:href="#radial-gradient-2"/><radialGradient id="radial-gradient-21" cx="785.33" cy="416.21" r="11.08" gradientTransform="translate(127.94 21.47) scale(0.81)" xlink:href="#radial-gradient-3"/><radialGradient id="radial-gradient-22" cx="812.14" cy="397.38" r="11.08" gradientTransform="translate(127.94 21.47) scale(0.81)" xlink:href="#radial-gradient-3"/><radialGradient id="radial-gradient-23" cx="838.95" cy="416.21" r="11.08" gradientTransform="translate(127.94 21.47) scale(0.81)" xlink:href="#radial-gradient-3"/><radialGradient id="radial-gradient-24" cx="812.14" cy="456.79" r="11.08" gradientTransform="translate(127.94 21.47) scale(0.81)" xlink:href="#radial-gradient-3"/><radialGradient id="radial-gradient-25" cx="246.14" cy="355.6" r="21.16" gradientTransform="translate(46.58 61.47) scale(0.83)" xlink:href="#radial-gradient"/><radialGradient id="radial-gradient-26" cx="217.49" cy="329.44" r="21.16" gradientTransform="translate(46.58 61.47) scale(0.83)" xlink:href="#radial-gradient"/><radialGradient id="radial-gradient-27" cx="136.21" cy="399.27" r="21.32" gradientTransform="translate(127.94 21.47) scale(0.81)" xlink:href="#radial-gradient-2"/><radialGradient id="radial-gradient-28" cx="246.14" cy="355.6" r="21.16" gradientTransform="translate(-48.03 533.81) rotate(-90) scale(0.83)" xlink:href="#radial-gradient"/><radialGradient id="radial-gradient-29" cx="217.49" cy="329.44" r="21.16" gradientTransform="translate(-41.75 538.29) rotate(-90) scale(0.83)" xlink:href="#radial-gradient"/><radialGradient id="radial-gradient-30" cx="136.21" cy="399.27" r="21.32" gradientTransform="translate(-84.89 454.69) rotate(-90) scale(0.81)" xlink:href="#radial-gradient-2"/><radialGradient id="radial-gradient-31" cx="246.14" cy="355.6" r="21.16" gradientTransform="translate(50.71 52.12) scale(0.83)" xlink:href="#radial-gradient"/><radialGradient id="radial-gradient-32" cx="217.49" cy="329.44" r="21.16" gradientTransform="translate(42.46 70.81) scale(0.83)" xlink:href="#radial-gradient"/><radialGradient id="radial-gradient-33" cx="136.21" cy="399.27" r="21.32" gradientTransform="translate(127.94 21.47) scale(0.81)" xlink:href="#radial-gradient-2"/><radialGradient id="radial-gradient-34" cx="246.14" cy="355.6" r="21.16" gradientTransform="translate(429.84 649.3) rotate(180) scale(0.83)" xlink:href="#radial-gradient"/><radialGradient id="radial-gradient-35" cx="217.49" cy="329.44" r="21.16" gradientTransform="translate(429.55 605.75) rotate(180) scale(0.83)" xlink:href="#radial-gradient"/><radialGradient id="radial-gradient-36" cx="136.21" cy="399.27" r="21.32" gradientTransform="translate(348.34 667.52) rotate(180) scale(0.81)" xlink:href="#radial-gradient-2"/><radialGradient id="radial-gradient-37" cx="246.14" cy="355.6" r="21.16" gradientTransform="translate(533.2 157.09) rotate(90) scale(0.83)" xlink:href="#radial-gradient"/><radialGradient id="radial-gradient-38" cx="217.49" cy="329.44" r="21.16" gradientTransform="translate(509.14 148.79) rotate(90) scale(0.83)" xlink:href="#radial-gradient"/><radialGradient id="radial-gradient-39" cx="136.21" cy="399.27" r="21.32" gradientTransform="translate(561.17 234.29) rotate(90) scale(0.81)" xlink:href="#radial-gradient-2"/><radialGradient id="radial-gradient-40" cx="246.14" cy="355.6" r="21.16" gradientTransform="translate(539.82 155.08) rotate(90) scale(0.83)" xlink:href="#radial-gradient"/><radialGradient id="radial-gradient-41" cx="217.49" cy="329.44" r="21.16" gradientTransform="matrix(0, 0.83, -0.83, 0, 502.51, 150.8)" xlink:href="#radial-gradient"/><radialGradient id="radial-gradient-42" cx="136.21" cy="399.27" r="21.32" gradientTransform="translate(561.17 234.29) rotate(90) scale(0.81)" xlink:href="#radial-gradient-2"/></defs><title>anim_03</title><g id="burner"><path d="M482.67,439.13c-67,0-85,22.2-87.11,40.89-3.4,30.59,33,38.18,73.63,67" fill="none" stroke="#ed5159" stroke-miterlimit="10" stroke-width="8.18"/><path d="M508.47,443.95H483.93a11.06,11.06,0,0,1-1.26-5,7.79,7.79,0,0,1,1.26-4.41h24.54Z" fill="#e6e6e6" stroke="#4d4d4d" stroke-linecap="round" stroke-linejoin="round" stroke-width="2.52"/><path d="M513.66,445.69H489.75a14.34,14.34,0,0,1-1.89-6.94,10.17,10.17,0,0,1,1.89-6.08h23.91Z" fill="#e6e6e6" stroke="#4d4d4d" stroke-linecap="round" stroke-linejoin="round" stroke-width="3.78"/><path d="M577.79,497.44c0,10.61-28.18,21.1-62.94,21.1s-62.94-10.49-62.94-21.1c0-9.54.24-9.87.24-9.87,3.33-.17,120.4,1.28,125.87.63C578,488.21,577.79,486.83,577.79,497.44Z" fill="#e6e6e6" stroke="#4d4d4d" stroke-linecap="round" stroke-linejoin="round" stroke-width="3.78"/><path d="M577.56,486.95c0,10.61-28,21.1-62.56,21.1s-62.56-10.49-62.56-21.1L501.71,452h22Z" fill="#e6e6e6" stroke="#4d4d4d" stroke-linecap="round" stroke-linejoin="round" stroke-width="3.78"/><path d="M502.68,421.29V453c0,3,4.61,5.37,10.3,5.37s10.3-2.4,10.3-5.37V421.29Z" fill="#e6e6e6" stroke="#4d4d4d" stroke-linecap="round" stroke-linejoin="round" stroke-width="3.78"/><ellipse cx="513.09" cy="421.92" rx="11.04" ry="4.88" fill="#e6e6e6" stroke="#4d4d4d" stroke-linecap="round" stroke-linejoin="round" stroke-width="2.52"/><path d="M507.9,287.4V420c0,.8,2.39,2.07,5.35,2.07s5.35-1.28,5.35-2.07V287.4Z" fill="#e6e6e6" stroke="#4d4d4d" stroke-linecap="round" stroke-linejoin="round" stroke-width="2.52"/><ellipse cx="513.24" cy="287.1" rx="5.69" ry="1.91" fill="#e6e6e6" stroke="#4d4d4d" stroke-linecap="round" stroke-linejoin="round" stroke-width="1.89"/><path d="M513.59,282a7.69,7.69,0,0,0,.76-.09,12.59,12.59,0,0,1-2.11-.18A4.13,4.13,0,0,0,513.59,282Z" fill="#fff"/></g><g id="fire-0"><path d="M515.74,247c-3.73,3.11-3.15,5.71-2.61,8.49.33,1.67.26,4.46-1.22,4.49-4,.11-2.13-7.09-2.13-7.09-7.63,4.22-11.53,16-5.87,23.59a13,13,0,0,0,8.33,5.28,9.06,9.06,0,0,0,2.11.18,12.31,12.31,0,0,0,12.51-12.32C526.87,261.49,517.27,256.08,515.74,247Z" fill="#ffe000"/></g><g id="fire-1"><path d="M513.22,264.38a8.71,8.71,0,0,1,.24,4.77c-.94,3.25-2.79,2.8-4,5.92a5.3,5.3,0,0,0,2.8,6.7,12.59,12.59,0,0,0,2.11.18C522.49,280.57,519.25,266.67,513.22,264.38Z" fill="#ffcf00"/></g><g id="circle-1"><g id="circle-1-stick"><circle cx="521.7" cy="274.36" r="2" fill="#231f20"/><line x1="679.87" y1="334.54" x2="520.75" y2="274" fill="none" stroke="#231f20" stroke-miterlimit="10"/></g><g id="circle-1-inner"><circle cx="785" cy="367" r="110" fill="#fff"/></g><g id="circle-1-molecule-0"><g id="circle-1-molecule-0-red"><circle cx="785" cy="366.17" r="17.48" transform="translate(-29 662.33) rotate(-45)" fill="url(#radial-gradient)"/><path d="M789.28,371a7.68,7.68,0,0,1-4.92,2.53,6,6,0,0,1-4.68-2,6,6,0,0,1-2-4.69,7.74,7.74,0,0,1,2.58-4.94,7.64,7.64,0,0,1,4.92-2.55,6.07,6.07,0,0,1,4.7,2,5.94,5.94,0,0,1,2,4.67A7.67,7.67,0,0,1,789.28,371Zm-7.86-7.86a6.62,6.62,0,0,0-2.19,3.89,4.93,4.93,0,0,0,5,5,8.37,8.37,0,0,0,6.06-6.06,4.22,4.22,0,0,0-1.44-3.49,4.3,4.3,0,0,0-3.53-1.46A6.55,6.55,0,0,0,781.42,363.11Z" fill="#fff"/></g><g id="circle-1-molecule-0-black"><circle cx="785" cy="366.17" r="17.25" transform="translate(-29 662.33) rotate(-45)" fill="url(#radial-gradient-2)"/><path d="M790.07,363.52a4.5,4.5,0,0,0-3.6-1.46,6.09,6.09,0,0,0-3.85,2,6.22,6.22,0,0,0-2.06,3.85,4.5,4.5,0,0,0,1.51,3.59,12.32,12.32,0,0,0,2.69,2l-1,1a10.12,10.12,0,0,1-2.88-2.12,6,6,0,0,1-2-4.62,7.6,7.6,0,0,1,2.54-4.88,8.28,8.28,0,0,1,3.2-2.07,5.71,5.71,0,0,1,3.37-.12,7,7,0,0,1,3.11,1.89,8.53,8.53,0,0,1,2.12,3.24l-1.45.49A7.3,7.3,0,0,0,790.07,363.52Z" fill="#fff"/></g><circle id="circle-1-molecule-0-gray-3" cx="775.89" cy="345.44" r="8.97" transform="translate(-17.01 649.81) rotate(-45)" fill="url(#radial-gradient-3)"/><circle id="circle-1-molecule-0-gray-2" cx="802" cy="350" r="8.97" transform="translate(-12.59 669.61) rotate(-45)" fill="url(#radial-gradient-4)"/><circle id="circle-1-molecule-0-gray-1" cx="806.56" cy="376.11" r="8.97" transform="translate(-29.72 680.49) rotate(-45)" fill="url(#radial-gradient-5)"/><circle id="circle-1-molecule-0-gray-0" cx="768" cy="384" r="8.97" transform="translate(-46.58 655.53) rotate(-45)" fill="url(#radial-gradient-6)"/></g><g id="circle-1-molecule-1"><g id="circle-1-molecule-1-red"><circle cx="785" cy="366.17" r="17.48" transform="translate(-29 662.33) rotate(-45)" fill="url(#radial-gradient)"/><path d="M789.28,371a7.68,7.68,0,0,1-4.92,2.53,6,6,0,0,1-4.68-2,6,6,0,0,1-2-4.69,7.74,7.74,0,0,1,2.58-4.94,7.64,7.64,0,0,1,4.92-2.55,6.07,6.07,0,0,1,4.7,2,5.94,5.94,0,0,1,2,4.67A7.67,7.67,0,0,1,789.28,371Zm-7.86-7.86a6.62,6.62,0,0,0-2.19,3.89,4.93,4.93,0,0,0,5,5,8.37,8.37,0,0,0,6.06-6.06,4.22,4.22,0,0,0-1.44-3.49,4.3,4.3,0,0,0-3.53-1.46A6.55,6.55,0,0,0,781.42,363.11Z" fill="#fff"/></g><g id="circle-1-molecule-1-black"><circle cx="785" cy="366.17" r="17.25" transform="translate(-29 662.33) rotate(-45)" fill="url(#radial-gradient-2)"/><path d="M790.07,363.52a4.5,4.5,0,0,0-3.6-1.46,6.09,6.09,0,0,0-3.85,2,6.22,6.22,0,0,0-2.06,3.85,4.5,4.5,0,0,0,1.51,3.59,12.32,12.32,0,0,0,2.69,2l-1,1a10.12,10.12,0,0,1-2.88-2.12,6,6,0,0,1-2-4.62,7.6,7.6,0,0,1,2.54-4.88,8.28,8.28,0,0,1,3.2-2.07,5.71,5.71,0,0,1,3.37-.12,7,7,0,0,1,3.11,1.89,8.53,8.53,0,0,1,2.12,3.24l-1.45.49A7.3,7.3,0,0,0,790.07,363.52Z" fill="#fff"/></g><circle id="circle-1-molecule-1-gray-3" cx="775.89" cy="345.44" r="8.97" transform="translate(-17.01 649.81) rotate(-45)" fill="url(#radial-gradient-3)"/><circle id="circle-1-molecule-1-gray-2" cx="802" cy="350" r="8.97" transform="translate(-12.59 669.61) rotate(-45)" fill="url(#radial-gradient-4)"/><circle id="circle-1-molecule-1-gray-1" cx="806.56" cy="376.11" r="8.97" transform="translate(-29.72 680.49) rotate(-45)" fill="url(#radial-gradient-5)"/><circle id="circle-1-molecule-1-gray-0" cx="768" cy="384" r="8.97" transform="translate(-46.58 655.53) rotate(-45)" fill="url(#radial-gradient-6)"/></g><g id="circle-1-molecule-2"><g id="circle-1-molecule-2-red"><circle cx="784.41" cy="367.59" r="17.48" fill="url(#radial-gradient-13)"/><path d="M784.78,361.17a7.68,7.68,0,0,1,5.27,1.69,6,6,0,0,1,1.92,4.71,6,6,0,0,1-1.88,4.75,7.74,7.74,0,0,1-5.32,1.67,7.64,7.64,0,0,1-5.28-1.68,6.07,6.07,0,0,1-1.87-4.77,5.94,5.94,0,0,1,1.91-4.69A7.67,7.67,0,0,1,784.78,361.17Zm0,11.11a6.62,6.62,0,0,0,4.3-1.21,4.93,4.93,0,0,0,0-7,8.37,8.37,0,0,0-8.57,0,4.22,4.22,0,0,0-1.45,3.49,4.3,4.3,0,0,0,1.46,3.52A6.55,6.55,0,0,0,784.78,372.28Z" fill="#fff"/></g><g id="circle-1-molecule-2-black"><circle cx="784.41" cy="367.59" r="17.25" fill="url(#radial-gradient-14)"/><path d="M779,365.87a4.5,4.5,0,0,0,1.51,3.58,6.09,6.09,0,0,0,4.14,1.31,6.22,6.22,0,0,0,4.18-1.27,4.5,4.5,0,0,0,1.47-3.61,12.32,12.32,0,0,0-.52-3.29h1.4a10.12,10.12,0,0,1,.54,3.53,6,6,0,0,1-1.85,4.69,7.6,7.6,0,0,1-5.24,1.65,8.28,8.28,0,0,1-3.73-.8,5.71,5.71,0,0,1-2.47-2.3,7,7,0,0,1-.87-3.54,8.53,8.53,0,0,1,.79-3.78l1.37.68A7.3,7.3,0,0,0,779,365.87Z" fill="#fff"/></g><circle id="circle-1-molecule-2-gray-3" cx="776.2" cy="388.69" r="8.97" fill="url(#radial-gradient-15)"/><circle id="circle-1-molecule-2-gray-2" cx="760.97" cy="367" r="8.97" fill="url(#radial-gradient-16)"/><circle id="circle-1-molecule-2-gray-1" cx="776.2" cy="345.31" r="8.97" fill="url(#radial-gradient-17)"/><circle id="circle-1-molecule-2-gray-0" cx="809.03" cy="367" r="8.97" fill="url(#radial-gradient-18)"/></g><g id="circle-1-molecule-3"><g id="circle-1-molecule-3-red"><circle cx="784.41" cy="366.41" r="17.48" fill="url(#radial-gradient-19)"/><path d="M790.83,366.78a7.68,7.68,0,0,1-1.69,5.27,6,6,0,0,1-4.71,1.92,6,6,0,0,1-4.75-1.88,7.74,7.74,0,0,1-1.67-5.32,7.64,7.64,0,0,1,1.68-5.28,6.07,6.07,0,0,1,4.77-1.87,5.94,5.94,0,0,1,4.69,1.91A7.67,7.67,0,0,1,790.83,366.78Zm-11.11,0a6.62,6.62,0,0,0,1.21,4.3,4.93,4.93,0,0,0,7,0,8.37,8.37,0,0,0,0-8.57,4.22,4.22,0,0,0-3.49-1.45,4.3,4.3,0,0,0-3.52,1.46A6.55,6.55,0,0,0,779.72,366.78Z" fill="#fff"/></g><g id="circle-1-molecule-3-black"><circle cx="784.41" cy="366.41" r="17.25" fill="url(#radial-gradient-20)"/><path d="M786.13,361a4.5,4.5,0,0,0-3.58,1.51,6.09,6.09,0,0,0-1.31,4.14,6.22,6.22,0,0,0,1.27,4.18,4.5,4.5,0,0,0,3.61,1.47,12.32,12.32,0,0,0,3.29-.52v1.4a10.12,10.12,0,0,1-3.53.54,6,6,0,0,1-4.69-1.85,7.6,7.6,0,0,1-1.65-5.24,8.28,8.28,0,0,1,.8-3.73,5.71,5.71,0,0,1,2.3-2.47,7,7,0,0,1,3.54-.87,8.53,8.53,0,0,1,3.78.79l-.68,1.37A7.3,7.3,0,0,0,786.13,361Z" fill="#fff"/></g><circle id="circle-1-molecule-3-gray-3" cx="763.31" cy="358.2" r="8.97" fill="url(#radial-gradient-21)"/><circle id="circle-1-molecule-3-gray-2" cx="785" cy="342.97" r="8.97" fill="url(#radial-gradient-22)"/><circle id="circle-1-molecule-3-gray-1" cx="806.69" cy="358.2" r="8.97" fill="url(#radial-gradient-23)"/><circle id="circle-1-molecule-3-gray-0" cx="785" cy="391.03" r="8.97" fill="url(#radial-gradient-24)"/></g><g id="circle-1-stroke"><circle cx="785" cy="367" r="110" fill="none" stroke="#231f20" stroke-miterlimit="10"/></g></g><g id="circle-0"><g id="circle-0-stick"><circle cx="507.13" cy="269.99" r="2" transform="translate(-63.31 338.37) rotate(-34.87)" fill="#231f20"/><line x1="342.95" y1="311.03" x2="508.12" y2="269.74" fill="none" stroke="#231f20" stroke-miterlimit="10"/></g><g id="circle-0-inner"><circle cx="238.14" cy="343.49" r="110" transform="translate(-153.61 197.79) rotate(-34.87)" fill="#fff"/></g><g id="circle-0-molecule-0"><g id="circle-0-molecule-0-red-1"><circle cx="249.98" cy="355.3" r="17.48" fill="url(#radial-gradient-25)"/><path d="M256.39,355.67a7.68,7.68,0,0,1-1.69,5.27,6,6,0,0,1-4.71,1.92,6,6,0,0,1-4.75-1.88,7.74,7.74,0,0,1-1.67-5.32,7.64,7.64,0,0,1,1.68-5.28A6.07,6.07,0,0,1,250,348.5a5.94,5.94,0,0,1,4.69,1.91A7.67,7.67,0,0,1,256.39,355.67Zm-11.11,0a6.62,6.62,0,0,0,1.21,4.3,4.93,4.93,0,0,0,7,0,8.37,8.37,0,0,0,0-8.57,4.22,4.22,0,0,0-3.49-1.45,4.3,4.3,0,0,0-3.52,1.46A6.55,6.55,0,0,0,245.28,355.67Z" fill="#fff"/></g><g id="circle-0-molecule-0-red-0"><circle cx="226.3" cy="333.69" r="17.48" fill="url(#radial-gradient-26)"/><path d="M232.72,334.05a7.68,7.68,0,0,1-1.69,5.27,6,6,0,0,1-4.71,1.92,6,6,0,0,1-4.75-1.88,7.74,7.74,0,0,1-1.67-5.32,7.64,7.64,0,0,1,1.68-5.28,6.07,6.07,0,0,1,4.77-1.87,5.94,5.94,0,0,1,4.69,1.91A7.67,7.67,0,0,1,232.72,334.05Zm-11.11,0a6.62,6.62,0,0,0,1.21,4.3,4.93,4.93,0,0,0,7,0,8.37,8.37,0,0,0,0-8.57,4.22,4.22,0,0,0-3.49-1.45,4.3,4.3,0,0,0-3.52,1.46A6.55,6.55,0,0,0,221.6,334.05Z" fill="#fff"/></g><g id="circle-0-molecule-0-black"><circle cx="238.14" cy="344.49" r="17.25" fill="url(#radial-gradient-27)"/><path d="M239.85,339a4.5,4.5,0,0,0-3.58,1.51,6.09,6.09,0,0,0-1.31,4.14,6.22,6.22,0,0,0,1.27,4.18,4.5,4.5,0,0,0,3.61,1.47,12.32,12.32,0,0,0,3.29-.52v1.4a10.12,10.12,0,0,1-3.53.54,6,6,0,0,1-4.69-1.85,7.6,7.6,0,0,1-1.65-5.24,8.28,8.28,0,0,1,.8-3.73,5.71,5.71,0,0,1,2.3-2.47,7,7,0,0,1,3.54-.87,8.53,8.53,0,0,1,3.78.79l-.68,1.37A7.3,7.3,0,0,0,239.85,339Z" fill="#fff"/></g></g><g id="circle-0-molecule-1"><g id="circle-0-molecule-1-red-1"><circle cx="245.81" cy="330.42" r="17.48" transform="translate(-71.76 68.21) rotate(-13.81)" fill="url(#radial-gradient-28)"/><path d="M244.64,324.1a7.68,7.68,0,0,1,5.52.39,6,6,0,0,1,3,4.11,6,6,0,0,1-.69,5.07,7.74,7.74,0,0,1-4.76,2.89,7.64,7.64,0,0,1-5.53-.37,6.07,6.07,0,0,1-3-4.18,5.94,5.94,0,0,1,.73-5A7.67,7.67,0,0,1,244.64,324.1Zm2.65,10.79a6.62,6.62,0,0,0,3.88-2.2,4.93,4.93,0,0,0-1.67-6.8,8.37,8.37,0,0,0-8.32,2,4.22,4.22,0,0,0-.58,3.73,4.3,4.3,0,0,0,2.26,3.07A6.55,6.55,0,0,0,247.29,334.89Z" fill="#fff"/></g><g id="circle-0-molecule-1-red-0"><circle cx="230.47" cy="358.57" r="17.48" transform="translate(-78.92 65.37) rotate(-13.81)" fill="url(#radial-gradient-29)"/><path d="M229.29,352.25a7.68,7.68,0,0,1,5.52.39,6,6,0,0,1,3,4.11,6,6,0,0,1-.69,5.07,7.74,7.74,0,0,1-4.76,2.89,7.64,7.64,0,0,1-5.53-.37,6.07,6.07,0,0,1-3-4.18,5.94,5.94,0,0,1,.73-5A7.67,7.67,0,0,1,229.29,352.25ZM231.95,363a6.62,6.62,0,0,0,3.88-2.2,4.93,4.93,0,0,0-1.67-6.8,8.37,8.37,0,0,0-8.32,2,4.22,4.22,0,0,0-.58,3.73,4.3,4.3,0,0,0,2.26,3.07A6.55,6.55,0,0,0,231.95,363Z" fill="#fff"/></g><g id="circle-0-molecule-1-black"><circle cx="238.14" cy="344.49" r="17.25" transform="translate(-75.34 66.79) rotate(-13.81)" fill="url(#radial-gradient-30)"/><path d="M232.44,344.13a4.5,4.5,0,0,0,2.32,3.12,6.09,6.09,0,0,0,4.33.29,6.22,6.22,0,0,0,3.75-2.23,4.5,4.5,0,0,0,.57-3.86,12.32,12.32,0,0,0-1.29-3.07l1.36-.33a10.12,10.12,0,0,1,1.36,3.3,6,6,0,0,1-.67,5,7.6,7.6,0,0,1-4.7,2.86,8.28,8.28,0,0,1-3.81.12,5.71,5.71,0,0,1-2.94-1.64,7,7,0,0,1-1.68-3.23,8.53,8.53,0,0,1-.14-3.86l1.5.33A7.3,7.3,0,0,0,232.44,344.13Z" fill="#fff"/></g></g><g id="circle-0-molecule-2"><g id="circle-0-molecule-2-red-1"><circle cx="254.1" cy="345.96" r="17.48" transform="translate(-157.38 223.74) rotate(-37.16)" fill="url(#radial-gradient-31)"/><path d="M259.43,342.38a7.68,7.68,0,0,1,1.83,5.22,6,6,0,0,1-2.59,4.37,6,6,0,0,1-4.93,1.37,7.74,7.74,0,0,1-4.55-3.23,7.64,7.64,0,0,1-1.85-5.22,6.07,6.07,0,0,1,2.67-4.37,5.94,5.94,0,0,1,4.89-1.31A7.67,7.67,0,0,1,259.43,342.38Zm-8.86,6.71a6.62,6.62,0,0,0,3.56,2.7,4.93,4.93,0,0,0,5.59-4.23,8.37,8.37,0,0,0-5.17-6.83,4.22,4.22,0,0,0-3.66.95A4.3,4.3,0,0,0,249,345,6.55,6.55,0,0,0,250.58,349.09Z" fill="#fff"/></g><g id="circle-0-molecule-2-red-0"><circle cx="222.18" cy="343.03" r="17.48" transform="translate(-162.1 203.86) rotate(-37.16)" fill="url(#radial-gradient-32)"/><path d="M227.51,339.45a7.68,7.68,0,0,1,1.83,5.22,6,6,0,0,1-2.59,4.37,6,6,0,0,1-4.93,1.37,7.74,7.74,0,0,1-4.55-3.23,7.64,7.64,0,0,1-1.85-5.22,6.07,6.07,0,0,1,2.67-4.37,5.94,5.94,0,0,1,4.89-1.31A7.67,7.67,0,0,1,227.51,339.45Zm-8.86,6.71a6.62,6.62,0,0,0,3.56,2.7,4.93,4.93,0,0,0,5.59-4.23,8.37,8.37,0,0,0-5.17-6.83,4.22,4.22,0,0,0-3.66.95A4.3,4.3,0,0,0,217,342,6.55,6.55,0,0,0,218.65,346.16Z" fill="#fff"/></g><g id="circle-0-molecule-2-black"><circle cx="238.14" cy="344.49" r="17.25" transform="translate(-159.74 213.8) rotate(-37.16)" fill="url(#radial-gradient-33)"/><path d="M236.21,339.12a4.5,4.5,0,0,0-1.94,3.37,6.09,6.09,0,0,0,1.45,4.09,6.22,6.22,0,0,0,3.53,2.56,4.5,4.5,0,0,0,3.77-1,12.32,12.32,0,0,0,2.31-2.4l.85,1.12a10.12,10.12,0,0,1-2.49,2.56,6,6,0,0,1-4.85,1.36,7.6,7.6,0,0,1-4.48-3.18,8.28,8.28,0,0,1-1.62-3.45,5.71,5.71,0,0,1,.34-3.35,7,7,0,0,1,2.29-2.83,8.53,8.53,0,0,1,3.49-1.66l.29,1.5A7.3,7.3,0,0,0,236.21,339.12Z" fill="#fff"/></g></g><g id="circle-0-molecule-3"><g id="circle-0-molecule-3-red-1"><circle cx="226.45" cy="355.46" r="17.48" transform="translate(-145.44 553.78) rotate(-85.57)" fill="url(#radial-gradient-34)"/><path d="M225.59,361.83a7.68,7.68,0,0,1-5.12-2.09,6,6,0,0,1-1.55-4.84,6,6,0,0,1,2.25-4.6A7.74,7.74,0,0,1,226.6,349a7.64,7.64,0,0,1,5.13,2.08,6.07,6.07,0,0,1,1.5,4.9,5.94,5.94,0,0,1-2.26,4.53A7.67,7.67,0,0,1,225.59,361.83Zm.86-11.08a6.62,6.62,0,0,0-4.38.87,4.93,4.93,0,0,0-.55,7,8.37,8.37,0,0,0,8.54.67,4.22,4.22,0,0,0,1.72-3.36,4.3,4.3,0,0,0-1.19-3.63A6.55,6.55,0,0,0,226.44,350.75Z" fill="#fff"/></g><g id="circle-0-molecule-3-red-0"><circle cx="249.83" cy="333.53" r="17.48" transform="translate(-102 556.85) rotate(-85.57)" fill="url(#radial-gradient-35)"/><path d="M249,339.9a7.68,7.68,0,0,1-5.12-2.09A6,6,0,0,1,242.3,333a6,6,0,0,1,2.25-4.6,7.74,7.74,0,0,1,5.43-1.26,7.64,7.64,0,0,1,5.13,2.08,6.07,6.07,0,0,1,1.5,4.9,5.94,5.94,0,0,1-2.26,4.53A7.67,7.67,0,0,1,249,339.9Zm.86-11.08a6.62,6.62,0,0,0-4.38.87,4.93,4.93,0,0,0-.55,7,8.37,8.37,0,0,0,8.54.67,4.22,4.22,0,0,0,1.72-3.36,4.3,4.3,0,0,0-1.19-3.63A6.55,6.55,0,0,0,249.82,328.82Z" fill="#fff"/></g><g id="circle-0-molecule-3-black"><circle cx="238.14" cy="344.49" r="17.25" transform="translate(-123.72 555.32) rotate(-85.57)" fill="url(#radial-gradient-36)"/><path d="M243.44,346.62a4.5,4.5,0,0,0-1.23-3.69,6.09,6.09,0,0,0-4-1.63,6.22,6.22,0,0,0-4.26.94,4.5,4.5,0,0,0-1.75,3.49,12.32,12.32,0,0,0,.26,3.32l-1.4-.11a10.12,10.12,0,0,1-.26-3.56,6,6,0,0,1,2.2-4.54,7.6,7.6,0,0,1,5.36-1.24,8.28,8.28,0,0,1,3.66,1.08,5.71,5.71,0,0,1,2.28,2.48,7,7,0,0,1,.59,3.59,8.53,8.53,0,0,1-1.08,3.71l-1.32-.78A7.3,7.3,0,0,0,243.44,346.62Z" fill="#fff"/></g></g><g id="circle-0-molecule-4"><g id="circle-0-molecule-4-red-1"><circle cx="239.36" cy="360.48" r="17.48" transform="translate(-187.23 287.97) rotate(-46.77)" fill="url(#radial-gradient-37)"/><path d="M243.78,365.14a7.68,7.68,0,0,1-4.84,2.68A6,6,0,0,1,234.2,366a6,6,0,0,1-2.17-4.63,7.74,7.74,0,0,1,2.42-5,7.64,7.64,0,0,1,4.84-2.7,6.07,6.07,0,0,1,4.76,1.9,5.94,5.94,0,0,1,2.11,4.6A7.67,7.67,0,0,1,243.78,365.14Zm-8.1-7.61a6.62,6.62,0,0,0-2.06,4,4.93,4.93,0,0,0,5.1,4.8A8.37,8.37,0,0,0,244.6,360a4.22,4.22,0,0,0-1.54-3.45,4.3,4.3,0,0,0-3.57-1.35A6.55,6.55,0,0,0,235.68,357.53Z" fill="#fff"/></g><g id="circle-0-molecule-4-red-0"><circle cx="236.92" cy="328.51" r="17.48" transform="translate(-164.71 276.12) rotate(-46.77)" fill="url(#radial-gradient-38)"/><path d="M241.34,333.17a7.68,7.68,0,0,1-4.84,2.68,6,6,0,0,1-4.74-1.83,6,6,0,0,1-2.17-4.63,7.74,7.74,0,0,1,2.42-5,7.64,7.64,0,0,1,4.84-2.7,6.07,6.07,0,0,1,4.76,1.9,5.94,5.94,0,0,1,2.11,4.6A7.67,7.67,0,0,1,241.34,333.17Zm-8.1-7.61a6.62,6.62,0,0,0-2.06,4,4.93,4.93,0,0,0,5.1,4.8,8.37,8.37,0,0,0,5.87-6.24,4.22,4.22,0,0,0-1.54-3.45,4.3,4.3,0,0,0-3.57-1.35A6.55,6.55,0,0,0,233.24,325.56Z" fill="#fff"/></g><g id="circle-0-molecule-4-black"><circle cx="238.14" cy="344.49" r="17.25" transform="translate(-175.97 282.04) rotate(-46.77)" fill="url(#radial-gradient-39)"/><path d="M243.12,341.69a4.5,4.5,0,0,0-3.64-1.35,6.09,6.09,0,0,0-3.79,2.12,6.22,6.22,0,0,0-1.94,3.91,4.5,4.5,0,0,0,1.62,3.55,12.32,12.32,0,0,0,2.75,1.87l-1,1a10.12,10.12,0,0,1-2.94-2,6,6,0,0,1-2.16-4.56,7.6,7.6,0,0,1,2.39-5,8.28,8.28,0,0,1,3.13-2.17,5.71,5.71,0,0,1,3.36-.22,7,7,0,0,1,3.17,1.79,8.53,8.53,0,0,1,2.22,3.17l-1.44.54A7.3,7.3,0,0,0,243.12,341.69Z" fill="#fff"/></g></g><g id="circle-0-molecule-5"><g id="circle-0-molecule-5-red-1"><circle cx="245.99" cy="358.47" r="17.48" transform="translate(-171.56 479.57) rotate(-71.71)" fill="url(#radial-gradient-40)"/><path d="M252,360.83a7.68,7.68,0,0,1-3.26,4.47,6,6,0,0,1-5.07.34,6,6,0,0,1-3.92-3.28,7.74,7.74,0,0,1,.08-5.57A7.64,7.64,0,0,1,243,352.3a6.07,6.07,0,0,1,5.12-.28A5.94,5.94,0,0,1,252,355.3,7.67,7.67,0,0,1,252,360.83Zm-10.55-3.49a6.62,6.62,0,0,0-.2,4.46,4.93,4.93,0,0,0,6.65,2.2,8.37,8.37,0,0,0,2.69-8.14,4.22,4.22,0,0,0-2.85-2.47,4.3,4.3,0,0,0-3.81.28A6.55,6.55,0,0,0,241.41,357.35Z" fill="#fff"/></g><g id="circle-0-molecule-5-red-0"><circle cx="230.29" cy="330.52" r="17.48" transform="translate(-155.79 445.48) rotate(-71.71)" fill="url(#radial-gradient-41)"/><path d="M236.27,332.88a7.68,7.68,0,0,1-3.26,4.47,6,6,0,0,1-5.07.34,6,6,0,0,1-3.92-3.28,7.74,7.74,0,0,1,.08-5.57,7.64,7.64,0,0,1,3.25-4.49,6.07,6.07,0,0,1,5.12-.28,5.94,5.94,0,0,1,3.86,3.28A7.67,7.67,0,0,1,236.27,332.88Zm-10.55-3.49a6.62,6.62,0,0,0-.2,4.46,4.93,4.93,0,0,0,6.65,2.2,8.37,8.37,0,0,0,2.69-8.14,4.22,4.22,0,0,0-2.85-2.47,4.3,4.3,0,0,0-3.81.28A6.55,6.55,0,0,0,225.71,329.39Z" fill="#fff"/></g><g id="circle-0-molecule-5-black"><circle cx="238.14" cy="344.49" r="17.25" transform="matrix(0.31, -0.95, 0.95, 0.31, -163.68, 462.53)" fill="url(#radial-gradient-42)"/><path d="M241.47,339.86a4.5,4.5,0,0,0-3.88.31,6.09,6.09,0,0,0-2.55,3.52,6.22,6.22,0,0,0-.11,4.36,4.5,4.5,0,0,0,3,2.53,12.32,12.32,0,0,0,3.28.54l-.44,1.33a10.12,10.12,0,0,1-3.52-.6,6,6,0,0,1-3.88-3.22,7.6,7.6,0,0,1,.08-5.5,8.28,8.28,0,0,1,1.92-3.29,5.71,5.71,0,0,1,3-1.62,7,7,0,0,1,3.63.29,8.53,8.53,0,0,1,3.35,1.94l-1.07,1.09A7.3,7.3,0,0,0,241.47,339.86Z" fill="#fff"/></g></g><g id="circle-0-stroke"><circle cx="238.14" cy="344.49" r="110" transform="translate(-154.19 197.97) rotate(-34.87)" fill="none" stroke="#231f20" stroke-miterlimit="10"/></g></g></svg>