<svg xmlns="http://www.w3.org/2000/svg" xmlns:xlink="http://www.w3.org/1999/xlink" viewBox="0 0 1024 768"><defs><radialGradient id="radial-gradient" cx="892.92" cy="369.04" r="21.16" gradientTransform="translate(46.58 61.47) scale(0.83)" gradientUnits="userSpaceOnUse"><stop offset="0.2" stop-color="#f15a29"/><stop offset="1" stop-color="#be1e2d"/></radialGradient><radialGradient id="radial-gradient-2" cx="811.42" cy="426.36" r="21.32" gradientTransform="translate(127.94 21.47) scale(0.81)" gradientUnits="userSpaceOnUse"><stop offset="0.2" stop-color="#58595b"/><stop offset="1" stop-color="#231f20"/></radialGradient><radialGradient id="radial-gradient-3" cx="785.33" cy="416.21" r="11.08" gradientTransform="translate(127.94 21.47) scale(0.81)" gradientUnits="userSpaceOnUse"><stop offset="0.2" stop-color="#f1f2f2"/><stop offset="1" stop-color="#808285"/></radialGradient><radialGradient id="radial-gradient-4" cx="812.14" cy="397.38" r="11.08" xlink:href="#radial-gradient-3"/><radialGradient id="radial-gradient-5" cx="838.95" cy="416.21" r="11.08" xlink:href="#radial-gradient-3"/><radialGradient id="radial-gradient-6" cx="812.14" cy="456.79" r="11.08" xlink:href="#radial-gradient-3"/><radialGradient id="radial-gradient-7" cx="837.02" cy="367.52" r="21.16" xlink:href="#radial-gradient"/><radialGradient id="radial-gradient-8" cx="754.33" cy="424.8" r="21.32" xlink:href="#radial-gradient-2"/><radialGradient id="radial-gradient-9" cx="728.25" cy="414.65" r="11.08" xlink:href="#radial-gradient-3"/><radialGradient id="radial-gradient-10" cx="755.06" cy="395.82" r="11.08" xlink:href="#radial-gradient-3"/><radialGradient id="radial-gradient-11" cx="781.87" cy="414.65" r="11.08" xlink:href="#radial-gradient-3"/><radialGradient id="radial-gradient-12" cx="755.06" cy="455.23" r="11.08" xlink:href="#radial-gradient-3"/><radialGradient id="radial-gradient-13" cx="912.28" cy="301.27" r="21.16" xlink:href="#radial-gradient"/><radialGradient id="radial-gradient-14" cx="831.19" cy="357.14" r="21.32" xlink:href="#radial-gradient-2"/><radialGradient id="radial-gradient-15" cx="805.11" cy="346.99" r="11.08" xlink:href="#radial-gradient-3"/><radialGradient id="radial-gradient-16" cx="831.92" cy="328.16" r="11.08" xlink:href="#radial-gradient-3"/><radialGradient id="radial-gradient-17" cx="858.73" cy="346.99" r="11.08" xlink:href="#radial-gradient-3"/><radialGradient id="radial-gradient-18" cx="831.92" cy="387.58" r="11.08" xlink:href="#radial-gradient-3"/><radialGradient id="radial-gradient-19" cx="968.94" cy="411.08" r="21.16" xlink:href="#radial-gradient"/><radialGradient id="radial-gradient-20" cx="889.06" cy="469.3" r="21.32" xlink:href="#radial-gradient-2"/><radialGradient id="radial-gradient-21" cx="862.97" cy="459.14" r="11.08" xlink:href="#radial-gradient-3"/><radialGradient id="radial-gradient-22" cx="889.78" cy="440.32" r="11.08" xlink:href="#radial-gradient-3"/><radialGradient id="radial-gradient-23" cx="916.59" cy="459.14" r="11.08" xlink:href="#radial-gradient-3"/><radialGradient id="radial-gradient-24" cx="889.78" cy="499.73" r="11.08" xlink:href="#radial-gradient-3"/><radialGradient id="radial-gradient-25" cx="272.01" cy="364.19" r="21.16" xlink:href="#radial-gradient"/><radialGradient id="radial-gradient-26" cx="243.36" cy="338.03" r="21.16" xlink:href="#radial-gradient"/><radialGradient id="radial-gradient-27" cx="162.62" cy="408.04" r="21.32" xlink:href="#radial-gradient-2"/><radialGradient id="radial-gradient-28" cx="159.46" cy="385.98" r="21.16" xlink:href="#radial-gradient"/><radialGradient id="radial-gradient-29" cx="130.81" cy="359.81" r="21.16" xlink:href="#radial-gradient"/><radialGradient id="radial-gradient-30" cx="47.67" cy="430.29" r="21.32" xlink:href="#radial-gradient-2"/><radialGradient id="radial-gradient-31" cx="194.55" cy="323.05" r="21.16" xlink:href="#radial-gradient"/><radialGradient id="radial-gradient-32" cx="165.9" cy="296.88" r="21.16" xlink:href="#radial-gradient"/><radialGradient id="radial-gradient-33" cx="83.52" cy="366.02" r="21.32" xlink:href="#radial-gradient-2"/><radialGradient id="radial-gradient-34" cx="244.17" cy="428.33" r="21.16" xlink:href="#radial-gradient"/><radialGradient id="radial-gradient-35" cx="215.52" cy="402.17" r="21.16" xlink:href="#radial-gradient"/><radialGradient id="radial-gradient-36" cx="134.2" cy="473.55" r="21.32" xlink:href="#radial-gradient-2"/><radialGradient id="radial-gradient-37" cx="327.67" cy="331.52" r="21.16" xlink:href="#radial-gradient"/><radialGradient id="radial-gradient-38" cx="299.03" cy="305.36" r="21.16" xlink:href="#radial-gradient"/><radialGradient id="radial-gradient-39" cx="219.48" cy="374.67" r="21.32" xlink:href="#radial-gradient-2"/><radialGradient id="radial-gradient-40" cx="250.22" cy="268.59" r="21.16" xlink:href="#radial-gradient"/><radialGradient id="radial-gradient-41" cx="221.57" cy="242.43" r="21.16" xlink:href="#radial-gradient"/><radialGradient id="radial-gradient-42" cx="140.38" cy="310.4" r="21.32" xlink:href="#radial-gradient-2"/></defs><title>anim_03</title><g id="burner"><path d="M482.67,439.13c-67,0-85,22.2-87.11,40.89-3.4,30.59,33,38.18,73.63,67" fill="none" stroke="#ed5159" stroke-miterlimit="10" stroke-width="8.18"/><path d="M508.47,443.95H483.93a11.06,11.06,0,0,1-1.26-5,7.79,7.79,0,0,1,1.26-4.41h24.54Z" fill="#e6e6e6" stroke="#4d4d4d" stroke-linecap="round" stroke-linejoin="round" stroke-width="2.52"/><path d="M513.66,445.69H489.75a14.34,14.34,0,0,1-1.89-6.94,10.17,10.17,0,0,1,1.89-6.08h23.91Z" fill="#e6e6e6" stroke="#4d4d4d" stroke-linecap="round" stroke-linejoin="round" stroke-width="3.78"/><path d="M577.79,497.44c0,10.61-28.18,21.1-62.94,21.1s-62.94-10.49-62.94-21.1c0-9.54.24-9.87.24-9.87,3.33-.17,120.4,1.28,125.87.63C578,488.21,577.79,486.83,577.79,497.44Z" fill="#e6e6e6" stroke="#4d4d4d" stroke-linecap="round" stroke-linejoin="round" stroke-width="3.78"/><path d="M577.56,486.95c0,10.61-28,21.1-62.56,21.1s-62.56-10.49-62.56-21.1L501.71,452h22Z" fill="#e6e6e6" stroke="#4d4d4d" stroke-linecap="round" stroke-linejoin="round" stroke-width="3.78"/><path d="M502.68,421.29V453c0,3,4.61,5.37,10.3,5.37s10.3-2.4,10.3-5.37V421.29Z" fill="#e6e6e6" stroke="#4d4d4d" stroke-linecap="round" stroke-linejoin="round" stroke-width="3.78"/><ellipse cx="513.09" cy="421.92" rx="11.04" ry="4.88" fill="#e6e6e6" stroke="#4d4d4d" stroke-linecap="round" stroke-linejoin="round" stroke-width="2.52"/><path d="M507.9,287.4V420c0,.8,2.39,2.07,5.35,2.07s5.35-1.28,5.35-2.07V287.4Z" fill="#e6e6e6" stroke="#4d4d4d" stroke-linecap="round" stroke-linejoin="round" stroke-width="2.52"/><ellipse cx="513.24" cy="287.1" rx="5.69" ry="1.91" fill="#e6e6e6" stroke="#4d4d4d" stroke-linecap="round" stroke-linejoin="round" stroke-width="1.89"/><path d="M513.59,282a7.69,7.69,0,0,0,.76-.09,12.59,12.59,0,0,1-2.11-.18A4.13,4.13,0,0,0,513.59,282Z" fill="#fff"/></g><g id="fire-0"><path d="M515.74,247c-3.73,3.11-3.15,5.71-2.61,8.49.33,1.67.26,4.46-1.22,4.49-4,.11-2.13-7.09-2.13-7.09-7.63,4.22-11.53,16-5.87,23.59a13,13,0,0,0,8.33,5.28,9.06,9.06,0,0,0,2.11.18,12.31,12.31,0,0,0,12.51-12.32C526.87,261.49,517.27,256.08,515.74,247Z" fill="#ffe000"/></g><g id="fire-1"><path d="M513.22,264.38a8.71,8.71,0,0,1,.24,4.77c-.94,3.25-2.79,2.8-4,5.92a5.3,5.3,0,0,0,2.8,6.7,12.59,12.59,0,0,0,2.11.18C522.49,280.57,519.25,266.67,513.22,264.38Z" fill="#ffcf00"/></g><g id="circle-1"><g id="circle-1-stick"><circle cx="521.7" cy="274.36" r="2" fill="#231f20"/><line x1="679.87" y1="334.54" x2="520.75" y2="274" fill="none" stroke="#231f20" stroke-miterlimit="10"/></g><g id="circle-1-inner"><circle cx="785" cy="367" r="110" fill="#fff"/></g><g id="circle-1-molecule-0"><g id="circle-1-molecule-0-red"><circle cx="784.41" cy="366.41" r="17.48" fill="url(#radial-gradient)"/><path d="M790.83,366.78a7.68,7.68,0,0,1-1.69,5.27,6,6,0,0,1-4.71,1.92,6,6,0,0,1-4.75-1.88,7.74,7.74,0,0,1-1.67-5.32,7.64,7.64,0,0,1,1.68-5.28,6.07,6.07,0,0,1,4.77-1.87,5.94,5.94,0,0,1,4.69,1.91A7.67,7.67,0,0,1,790.83,366.78Zm-11.11,0a6.62,6.62,0,0,0,1.21,4.3,4.93,4.93,0,0,0,7,0,8.37,8.37,0,0,0,0-8.57,4.22,4.22,0,0,0-3.49-1.45,4.3,4.3,0,0,0-3.52,1.46A6.55,6.55,0,0,0,779.72,366.78Z" fill="#fff"/></g><g id="circle-1-molecule-0-black"><circle cx="784.41" cy="366.41" r="17.25" fill="url(#radial-gradient-2)"/><path d="M786.13,361a4.5,4.5,0,0,0-3.58,1.51,6.09,6.09,0,0,0-1.31,4.14,6.22,6.22,0,0,0,1.27,4.18,4.5,4.5,0,0,0,3.61,1.47,12.32,12.32,0,0,0,3.29-.52v1.4a10.12,10.12,0,0,1-3.53.54,6,6,0,0,1-4.69-1.85,7.6,7.6,0,0,1-1.65-5.24,8.28,8.28,0,0,1,.8-3.73,5.71,5.71,0,0,1,2.3-2.47,7,7,0,0,1,3.54-.87,8.53,8.53,0,0,1,3.78.79l-.68,1.37A7.3,7.3,0,0,0,786.13,361Z" fill="#fff"/></g><circle id="circle-1-molecule-0-gray-3" cx="763.31" cy="358.2" r="8.97" fill="url(#radial-gradient-3)"/><circle id="circle-1-molecule-0-gray-2" cx="785" cy="342.97" r="8.97" fill="url(#radial-gradient-4)"/><circle id="circle-1-molecule-0-gray-1" cx="806.69" cy="358.2" r="8.97" fill="url(#radial-gradient-5)"/><circle id="circle-1-molecule-0-gray-0" cx="785" cy="391.03" r="8.97" fill="url(#radial-gradient-6)"/></g><g id="circle-1-molecule-1"><g id="circle-1-molecule-1-red"><circle cx="738.23" cy="365.15" r="17.48" fill="url(#radial-gradient-7)"/><path d="M744.64,365.52a7.68,7.68,0,0,1-1.69,5.27,6,6,0,0,1-4.71,1.92,6,6,0,0,1-4.75-1.88,7.74,7.74,0,0,1-1.67-5.32,7.64,7.64,0,0,1,1.68-5.28,6.07,6.07,0,0,1,4.77-1.87,5.94,5.94,0,0,1,4.69,1.91A7.67,7.67,0,0,1,744.64,365.52Zm-11.11,0a6.62,6.62,0,0,0,1.21,4.3,4.93,4.93,0,0,0,7,0,8.37,8.37,0,0,0,0-8.57,4.22,4.22,0,0,0-3.49-1.45,4.3,4.3,0,0,0-3.52,1.46A6.55,6.55,0,0,0,733.53,365.52Z" fill="#fff"/></g><g id="circle-1-molecule-1-black"><circle cx="738.23" cy="365.15" r="17.25" fill="url(#radial-gradient-8)"/><path d="M739.94,359.7a4.5,4.5,0,0,0-3.58,1.51,6.09,6.09,0,0,0-1.31,4.14,6.22,6.22,0,0,0,1.27,4.18,4.5,4.5,0,0,0,3.61,1.47,12.32,12.32,0,0,0,3.29-.52v1.4a10.12,10.12,0,0,1-3.53.54,6,6,0,0,1-4.69-1.85,7.6,7.6,0,0,1-1.65-5.24,8.28,8.28,0,0,1,.8-3.73,5.71,5.71,0,0,1,2.3-2.47,7,7,0,0,1,3.54-.87,8.53,8.53,0,0,1,3.78.79l-.68,1.37A7.3,7.3,0,0,0,739.94,359.7Z" fill="#fff"/></g><circle id="circle-1-molecule-1-gray-3" cx="717.12" cy="356.94" r="8.97" fill="url(#radial-gradient-9)"/><circle id="circle-1-molecule-1-gray-2" cx="738.81" cy="341.7" r="8.97" fill="url(#radial-gradient-10)"/><circle id="circle-1-molecule-1-gray-1" cx="760.5" cy="356.94" r="8.97" fill="url(#radial-gradient-11)"/><circle id="circle-1-molecule-1-gray-0" cx="738.81" cy="389.77" r="8.97" fill="url(#radial-gradient-12)"/></g><g id="circle-1-molecule-2"><g id="circle-1-molecule-2-red"><circle cx="800.41" cy="310.41" r="17.48" fill="url(#radial-gradient-13)"/><path d="M806.83,310.78a7.68,7.68,0,0,1-1.69,5.27,6,6,0,0,1-4.71,1.92,6,6,0,0,1-4.75-1.88,7.74,7.74,0,0,1-1.67-5.32,7.64,7.64,0,0,1,1.68-5.28,6.07,6.07,0,0,1,4.77-1.87,5.94,5.94,0,0,1,4.69,1.91A7.67,7.67,0,0,1,806.83,310.78Zm-11.11,0a6.62,6.62,0,0,0,1.21,4.3,4.93,4.93,0,0,0,7,0,8.37,8.37,0,0,0,0-8.57,4.22,4.22,0,0,0-3.49-1.45,4.3,4.3,0,0,0-3.52,1.46A6.55,6.55,0,0,0,795.72,310.78Z" fill="#fff"/></g><g id="circle-1-molecule-2-black"><circle cx="800.41" cy="310.41" r="17.25" fill="url(#radial-gradient-14)"/><path d="M802.13,305a4.5,4.5,0,0,0-3.58,1.51,6.09,6.09,0,0,0-1.31,4.14,6.22,6.22,0,0,0,1.27,4.18,4.5,4.5,0,0,0,3.61,1.47,12.32,12.32,0,0,0,3.29-.52v1.4a10.12,10.12,0,0,1-3.53.54,6,6,0,0,1-4.69-1.85,7.6,7.6,0,0,1-1.65-5.24,8.28,8.28,0,0,1,.8-3.73,5.71,5.71,0,0,1,2.3-2.47,7,7,0,0,1,3.54-.87,8.53,8.53,0,0,1,3.78.79l-.68,1.37A7.3,7.3,0,0,0,802.13,305Z" fill="#fff"/></g><circle id="circle-1-molecule-2-gray-3" cx="779.31" cy="302.2" r="8.97" fill="url(#radial-gradient-15)"/><circle id="circle-1-molecule-2-gray-2" cx="801" cy="286.97" r="8.97" fill="url(#radial-gradient-16)"/><circle id="circle-1-molecule-2-gray-1" cx="822.69" cy="302.2" r="8.97" fill="url(#radial-gradient-17)"/><circle id="circle-1-molecule-2-gray-0" cx="801" cy="335.03" r="8.97" fill="url(#radial-gradient-18)"/></g><g id="circle-1-molecule-3"><g id="circle-1-molecule-3-red"><circle cx="847.23" cy="401.15" r="17.48" fill="url(#radial-gradient-19)"/><path d="M853.64,401.52a7.68,7.68,0,0,1-1.69,5.27,6,6,0,0,1-4.71,1.92,6,6,0,0,1-4.75-1.88,7.74,7.74,0,0,1-1.67-5.32,7.64,7.64,0,0,1,1.68-5.28,6.07,6.07,0,0,1,4.77-1.87,5.94,5.94,0,0,1,4.69,1.91A7.67,7.67,0,0,1,853.64,401.52Zm-11.11,0a6.62,6.62,0,0,0,1.21,4.3,4.93,4.93,0,0,0,7,0,8.37,8.37,0,0,0,0-8.57,4.22,4.22,0,0,0-3.49-1.45,4.3,4.3,0,0,0-3.52,1.46A6.55,6.55,0,0,0,842.53,401.52Z" fill="#fff"/></g><g id="circle-1-molecule-3-black"><circle cx="847.23" cy="401.15" r="17.25" fill="url(#radial-gradient-20)"/><path d="M848.94,395.7a4.5,4.5,0,0,0-3.58,1.51,6.09,6.09,0,0,0-1.31,4.14,6.22,6.22,0,0,0,1.27,4.18,4.5,4.5,0,0,0,3.61,1.47,12.32,12.32,0,0,0,3.29-.52v1.4a10.12,10.12,0,0,1-3.53.54,6,6,0,0,1-4.69-1.85,7.6,7.6,0,0,1-1.65-5.24,8.28,8.28,0,0,1,.8-3.73,5.71,5.71,0,0,1,2.3-2.47,7,7,0,0,1,3.54-.87,8.53,8.53,0,0,1,3.78.79l-.68,1.37A7.3,7.3,0,0,0,848.94,395.7Z" fill="#fff"/></g><circle id="circle-1-molecule-3-gray-3" cx="826.12" cy="392.94" r="8.97" fill="url(#radial-gradient-21)"/><circle id="circle-1-molecule-3-gray-2" cx="847.81" cy="377.7" r="8.97" fill="url(#radial-gradient-22)"/><circle id="circle-1-molecule-3-gray-1" cx="869.5" cy="392.94" r="8.97" fill="url(#radial-gradient-23)"/><circle id="circle-1-molecule-3-gray-0" cx="847.81" cy="425.77" r="8.97" fill="url(#radial-gradient-24)"/></g><g id="circle-1-stroke"><circle cx="785" cy="367" r="110" fill="none" stroke="#231f20" stroke-miterlimit="10"/></g></g><g id="circle-0"><g id="circle-0-stick"><circle cx="507.13" cy="269.99" r="2" transform="translate(-63.31 338.37) rotate(-34.87)" fill="#231f20"/><line x1="342.95" y1="311.03" x2="508.12" y2="269.74" fill="none" stroke="#231f20" stroke-miterlimit="10"/></g><g id="circle-0-inner"><circle cx="238.14" cy="343.49" r="110" transform="translate(-153.61 197.79) rotate(-34.87)" fill="#fff"/></g><g id="circle-0-molecule-0"><g id="circle-0-molecule-0-red-1"><circle cx="271.35" cy="362.4" r="17.48" fill="url(#radial-gradient-25)"/><path d="M277.76,362.77a7.68,7.68,0,0,1-1.69,5.27,6,6,0,0,1-4.71,1.92,6,6,0,0,1-4.75-1.88,7.74,7.74,0,0,1-1.67-5.32,7.64,7.64,0,0,1,1.68-5.28,6.07,6.07,0,0,1,4.77-1.87,5.94,5.94,0,0,1,4.69,1.91A7.67,7.67,0,0,1,277.76,362.77Zm-11.11,0a6.62,6.62,0,0,0,1.21,4.3,4.93,4.93,0,0,0,7,0,8.37,8.37,0,0,0,0-8.57,4.22,4.22,0,0,0-3.49-1.45,4.3,4.3,0,0,0-3.52,1.46A6.55,6.55,0,0,0,266.65,362.77Z" fill="#fff"/></g><g id="circle-0-molecule-0-red-0"><circle cx="247.67" cy="340.79" r="17.48" fill="url(#radial-gradient-26)"/><path d="M254.09,341.15a7.68,7.68,0,0,1-1.69,5.27,6,6,0,0,1-4.71,1.92,6,6,0,0,1-4.75-1.88,7.74,7.74,0,0,1-1.67-5.32,7.64,7.64,0,0,1,1.68-5.28,6.07,6.07,0,0,1,4.77-1.87,5.94,5.94,0,0,1,4.69,1.91A7.67,7.67,0,0,1,254.09,341.15Zm-11.11,0a6.62,6.62,0,0,0,1.21,4.3,4.93,4.93,0,0,0,7,0,8.37,8.37,0,0,0,0-8.57,4.22,4.22,0,0,0-3.49-1.45,4.3,4.3,0,0,0-3.52,1.46A6.55,6.55,0,0,0,243,341.15Z" fill="#fff"/></g><g id="circle-0-molecule-0-black"><circle cx="259.51" cy="351.59" r="17.25" fill="url(#radial-gradient-27)"/><path d="M261.22,346.14a4.5,4.5,0,0,0-3.58,1.51,6.09,6.09,0,0,0-1.31,4.14,6.22,6.22,0,0,0,1.27,4.18,4.5,4.5,0,0,0,3.61,1.47,12.32,12.32,0,0,0,3.29-.52v1.4a10.12,10.12,0,0,1-3.53.54,6,6,0,0,1-4.69-1.85,7.6,7.6,0,0,1-1.65-5.24,8.28,8.28,0,0,1,.8-3.73,5.71,5.71,0,0,1,2.3-2.47,7,7,0,0,1,3.54-.87,8.53,8.53,0,0,1,3.78.79l-.68,1.37A7.3,7.3,0,0,0,261.22,346.14Z" fill="#fff"/></g></g><g id="circle-0-molecule-1"><g id="circle-0-molecule-1-red-1"><circle cx="178.35" cy="380.4" r="17.48" fill="url(#radial-gradient-28)"/><path d="M184.76,380.77a7.68,7.68,0,0,1-1.69,5.27,6,6,0,0,1-4.71,1.92,6,6,0,0,1-4.75-1.88,7.74,7.74,0,0,1-1.67-5.32,7.64,7.64,0,0,1,1.68-5.28,6.07,6.07,0,0,1,4.77-1.87,5.94,5.94,0,0,1,4.69,1.91A7.67,7.67,0,0,1,184.76,380.77Zm-11.11,0a6.62,6.62,0,0,0,1.21,4.3,4.93,4.93,0,0,0,7,0,8.37,8.37,0,0,0,0-8.57,4.22,4.22,0,0,0-3.49-1.45,4.3,4.3,0,0,0-3.52,1.46A6.55,6.55,0,0,0,173.65,380.77Z" fill="#fff"/></g><g id="circle-0-molecule-1-red-0"><circle cx="154.67" cy="358.79" r="17.48" fill="url(#radial-gradient-29)"/><path d="M161.09,359.15a7.68,7.68,0,0,1-1.69,5.27,6,6,0,0,1-4.71,1.92,6,6,0,0,1-4.75-1.88,7.74,7.74,0,0,1-1.67-5.32,7.64,7.64,0,0,1,1.68-5.28,6.07,6.07,0,0,1,4.77-1.87,5.94,5.94,0,0,1,4.69,1.91A7.67,7.67,0,0,1,161.09,359.15Zm-11.11,0a6.62,6.62,0,0,0,1.21,4.3,4.93,4.93,0,0,0,7,0,8.37,8.37,0,0,0,0-8.57,4.22,4.22,0,0,0-3.49-1.45,4.3,4.3,0,0,0-3.52,1.46A6.55,6.55,0,0,0,150,359.15Z" fill="#fff"/></g><g id="circle-0-molecule-1-black"><circle cx="166.51" cy="369.59" r="17.25" fill="url(#radial-gradient-30)"/><path d="M168.22,364.14a4.5,4.5,0,0,0-3.58,1.51,6.09,6.09,0,0,0-1.31,4.14,6.22,6.22,0,0,0,1.27,4.18,4.5,4.5,0,0,0,3.61,1.47,12.32,12.32,0,0,0,3.29-.52v1.4a10.12,10.12,0,0,1-3.53.54,6,6,0,0,1-4.69-1.85,7.6,7.6,0,0,1-1.65-5.24,8.28,8.28,0,0,1,.8-3.73,5.71,5.71,0,0,1,2.3-2.47,7,7,0,0,1,3.54-.87,8.53,8.53,0,0,1,3.78.79l-.68,1.37A7.3,7.3,0,0,0,168.22,364.14Z" fill="#fff"/></g></g><g id="circle-0-molecule-2"><g id="circle-0-molecule-2-red-1"><circle cx="207.35" cy="328.4" r="17.48" fill="url(#radial-gradient-31)"/><path d="M213.76,328.77a7.68,7.68,0,0,1-1.69,5.27,6,6,0,0,1-4.71,1.92,6,6,0,0,1-4.75-1.88,7.74,7.74,0,0,1-1.67-5.32,7.64,7.64,0,0,1,1.68-5.28,6.07,6.07,0,0,1,4.77-1.87,5.94,5.94,0,0,1,4.69,1.91A7.67,7.67,0,0,1,213.76,328.77Zm-11.11,0a6.62,6.62,0,0,0,1.21,4.3,4.93,4.93,0,0,0,7,0,8.37,8.37,0,0,0,0-8.57,4.22,4.22,0,0,0-3.49-1.45,4.3,4.3,0,0,0-3.52,1.46A6.55,6.55,0,0,0,202.65,328.77Z" fill="#fff"/></g><g id="circle-0-molecule-2-red-0"><circle cx="183.67" cy="306.79" r="17.48" fill="url(#radial-gradient-32)"/><path d="M190.09,307.15a7.68,7.68,0,0,1-1.69,5.27,6,6,0,0,1-4.71,1.92,6,6,0,0,1-4.75-1.88,7.74,7.74,0,0,1-1.67-5.32,7.64,7.64,0,0,1,1.68-5.28,6.07,6.07,0,0,1,4.77-1.87,5.94,5.94,0,0,1,4.69,1.91A7.67,7.67,0,0,1,190.09,307.15Zm-11.11,0a6.62,6.62,0,0,0,1.21,4.3,4.93,4.93,0,0,0,7,0,8.37,8.37,0,0,0,0-8.57,4.22,4.22,0,0,0-3.49-1.45,4.3,4.3,0,0,0-3.52,1.46A6.55,6.55,0,0,0,179,307.15Z" fill="#fff"/></g><g id="circle-0-molecule-2-black"><circle cx="195.51" cy="317.59" r="17.25" fill="url(#radial-gradient-33)"/><path d="M197.22,312.14a4.5,4.5,0,0,0-3.58,1.51,6.09,6.09,0,0,0-1.31,4.14,6.22,6.22,0,0,0,1.27,4.18,4.5,4.5,0,0,0,3.61,1.47,12.32,12.32,0,0,0,3.29-.52v1.4a10.12,10.12,0,0,1-3.53.54,6,6,0,0,1-4.69-1.85,7.6,7.6,0,0,1-1.65-5.24,8.28,8.28,0,0,1,.8-3.73,5.71,5.71,0,0,1,2.3-2.47,7,7,0,0,1,3.54-.87,8.53,8.53,0,0,1,3.78.79l-.68,1.37A7.3,7.3,0,0,0,197.22,312.14Z" fill="#fff"/></g></g><g id="circle-0-molecule-3"><g id="circle-0-molecule-3-red-1"><circle cx="248.35" cy="415.4" r="17.48" fill="url(#radial-gradient-34)"/><path d="M254.76,415.77a7.68,7.68,0,0,1-1.69,5.27,6,6,0,0,1-4.71,1.92,6,6,0,0,1-4.75-1.88,7.74,7.74,0,0,1-1.67-5.32,7.64,7.64,0,0,1,1.68-5.28,6.07,6.07,0,0,1,4.77-1.87,5.94,5.94,0,0,1,4.69,1.91A7.67,7.67,0,0,1,254.76,415.77Zm-11.11,0a6.62,6.62,0,0,0,1.21,4.3,4.93,4.93,0,0,0,7,0,8.37,8.37,0,0,0,0-8.57,4.22,4.22,0,0,0-3.49-1.45,4.3,4.3,0,0,0-3.52,1.46A6.55,6.55,0,0,0,243.65,415.77Z" fill="#fff"/></g><g id="circle-0-molecule-3-red-0"><circle cx="224.67" cy="393.79" r="17.48" fill="url(#radial-gradient-35)"/><path d="M231.09,394.15a7.68,7.68,0,0,1-1.69,5.27,6,6,0,0,1-4.71,1.92,6,6,0,0,1-4.75-1.88,7.74,7.74,0,0,1-1.67-5.32,7.64,7.64,0,0,1,1.68-5.28,6.07,6.07,0,0,1,4.77-1.87,5.94,5.94,0,0,1,4.69,1.91A7.67,7.67,0,0,1,231.09,394.15Zm-11.11,0a6.62,6.62,0,0,0,1.21,4.3,4.93,4.93,0,0,0,7,0,8.37,8.37,0,0,0,0-8.57,4.22,4.22,0,0,0-3.49-1.45,4.3,4.3,0,0,0-3.52,1.46A6.55,6.55,0,0,0,220,394.15Z" fill="#fff"/></g><g id="circle-0-molecule-3-black"><circle cx="236.51" cy="404.59" r="17.25" fill="url(#radial-gradient-36)"/><path d="M238.22,399.14a4.5,4.5,0,0,0-3.58,1.51,6.09,6.09,0,0,0-1.31,4.14,6.22,6.22,0,0,0,1.27,4.18,4.5,4.5,0,0,0,3.61,1.47,12.32,12.32,0,0,0,3.29-.52v1.4a10.12,10.12,0,0,1-3.53.54,6,6,0,0,1-4.69-1.85,7.6,7.6,0,0,1-1.65-5.24,8.28,8.28,0,0,1,.8-3.73,5.71,5.71,0,0,1,2.3-2.47,7,7,0,0,1,3.54-.87,8.53,8.53,0,0,1,3.78.79l-.68,1.37A7.3,7.3,0,0,0,238.22,399.14Z" fill="#fff"/></g></g><g id="circle-0-molecule-4"><g id="circle-0-molecule-4-red-1"><circle cx="317.35" cy="335.4" r="17.48" fill="url(#radial-gradient-37)"/><path d="M323.76,335.77a7.68,7.68,0,0,1-1.69,5.27,6,6,0,0,1-4.71,1.92,6,6,0,0,1-4.75-1.88,7.74,7.74,0,0,1-1.67-5.32,7.64,7.64,0,0,1,1.68-5.28,6.07,6.07,0,0,1,4.77-1.87,5.94,5.94,0,0,1,4.69,1.91A7.67,7.67,0,0,1,323.76,335.77Zm-11.11,0a6.62,6.62,0,0,0,1.21,4.3,4.93,4.93,0,0,0,7,0,8.37,8.37,0,0,0,0-8.57,4.22,4.22,0,0,0-3.49-1.45,4.3,4.3,0,0,0-3.52,1.46A6.55,6.55,0,0,0,312.65,335.77Z" fill="#fff"/></g><g id="circle-0-molecule-4-red-0"><circle cx="293.67" cy="313.79" r="17.48" fill="url(#radial-gradient-38)"/><path d="M300.09,314.15a7.68,7.68,0,0,1-1.69,5.27,6,6,0,0,1-4.71,1.92,6,6,0,0,1-4.75-1.88,7.74,7.74,0,0,1-1.67-5.32,7.64,7.64,0,0,1,1.68-5.28,6.07,6.07,0,0,1,4.77-1.87,5.94,5.94,0,0,1,4.69,1.91A7.67,7.67,0,0,1,300.09,314.15Zm-11.11,0a6.62,6.62,0,0,0,1.21,4.3,4.93,4.93,0,0,0,7,0,8.37,8.37,0,0,0,0-8.57,4.22,4.22,0,0,0-3.49-1.45,4.3,4.3,0,0,0-3.52,1.46A6.55,6.55,0,0,0,289,314.15Z" fill="#fff"/></g><g id="circle-0-molecule-4-black"><circle cx="305.51" cy="324.59" r="17.25" fill="url(#radial-gradient-39)"/><path d="M307.22,319.14a4.5,4.5,0,0,0-3.58,1.51,6.09,6.09,0,0,0-1.31,4.14,6.22,6.22,0,0,0,1.27,4.18,4.5,4.5,0,0,0,3.61,1.47,12.32,12.32,0,0,0,3.29-.52v1.4a10.12,10.12,0,0,1-3.53.54,6,6,0,0,1-4.69-1.85,7.6,7.6,0,0,1-1.65-5.24,8.28,8.28,0,0,1,.8-3.73,5.71,5.71,0,0,1,2.3-2.47,7,7,0,0,1,3.54-.87,8.53,8.53,0,0,1,3.78.79l-.68,1.37A7.3,7.3,0,0,0,307.22,319.14Z" fill="#fff"/></g></g><g id="circle-0-molecule-5"><g id="circle-0-molecule-5-red-1"><circle cx="253.35" cy="283.4" r="17.48" fill="url(#radial-gradient-40)"/><path d="M259.76,283.77a7.68,7.68,0,0,1-1.69,5.27,6,6,0,0,1-4.71,1.92,6,6,0,0,1-4.75-1.88,7.74,7.74,0,0,1-1.67-5.32,7.64,7.64,0,0,1,1.68-5.28,6.07,6.07,0,0,1,4.77-1.87,5.94,5.94,0,0,1,4.69,1.91A7.67,7.67,0,0,1,259.76,283.77Zm-11.11,0a6.62,6.62,0,0,0,1.21,4.3,4.93,4.93,0,0,0,7,0,8.37,8.37,0,0,0,0-8.57,4.22,4.22,0,0,0-3.49-1.45,4.3,4.3,0,0,0-3.52,1.46A6.55,6.55,0,0,0,248.65,283.77Z" fill="#fff"/></g><g id="circle-0-molecule-5-red-0"><circle cx="229.67" cy="261.79" r="17.48" fill="url(#radial-gradient-41)"/><path d="M236.09,262.15a7.68,7.68,0,0,1-1.69,5.27,6,6,0,0,1-4.71,1.92,6,6,0,0,1-4.75-1.88,7.74,7.74,0,0,1-1.67-5.32,7.64,7.64,0,0,1,1.68-5.28,6.07,6.07,0,0,1,4.77-1.87,5.94,5.94,0,0,1,4.69,1.91A7.67,7.67,0,0,1,236.09,262.15Zm-11.11,0a6.62,6.62,0,0,0,1.21,4.3,4.93,4.93,0,0,0,7,0,8.37,8.37,0,0,0,0-8.57,4.22,4.22,0,0,0-3.49-1.45,4.3,4.3,0,0,0-3.52,1.46A6.55,6.55,0,0,0,225,262.15Z" fill="#fff"/></g><g id="circle-0-molecule-5-black"><circle cx="241.51" cy="272.59" r="17.25" fill="url(#radial-gradient-42)"/><path d="M243.22,267.14a4.5,4.5,0,0,0-3.58,1.51,6.09,6.09,0,0,0-1.31,4.14,6.22,6.22,0,0,0,1.27,4.18,4.5,4.5,0,0,0,3.61,1.47,12.32,12.32,0,0,0,3.29-.52v1.4a10.12,10.12,0,0,1-3.53.54,6,6,0,0,1-4.69-1.85,7.6,7.6,0,0,1-1.65-5.24,8.28,8.28,0,0,1,.8-3.73,5.71,5.71,0,0,1,2.3-2.47,7,7,0,0,1,3.54-.87,8.53,8.53,0,0,1,3.78.79l-.68,1.37A7.3,7.3,0,0,0,243.22,267.14Z" fill="#fff"/></g></g><g id="circle-0-stroke"><circle cx="238.14" cy="344.49" r="110" transform="translate(-154.19 197.97) rotate(-34.87)" fill="none" stroke="#231f20" stroke-miterlimit="10"/></g></g></svg>