<svg id="ANIMATION" xmlns="http://www.w3.org/2000/svg" xmlns:xlink="http://www.w3.org/1999/xlink" viewBox="0 0 1024 768"><defs><radialGradient id="radial-gradient" cx="801.56" cy="290.54" r="13.9" gradientTransform="translate(-47.4 -27.49)" gradientUnits="userSpaceOnUse"><stop offset="0.2" stop-color="#f15a29"/><stop offset="1" stop-color="#be1e2d"/></radialGradient><radialGradient id="radial-gradient-2" cx="819.06" cy="286.09" r="7.22" gradientTransform="translate(-65.06 -41.09)" gradientUnits="userSpaceOnUse"><stop offset="0.2" stop-color="#f1f2f2"/><stop offset="1" stop-color="#808285"/></radialGradient><radialGradient id="radial-gradient-3" cx="802.03" cy="271.65" r="7.22" gradientTransform="translate(-66.1 -13.54)" xlink:href="#radial-gradient-2"/><radialGradient id="radial-gradient-4" cx="768.96" cy="202.52" r="13.9" gradientTransform="translate(426.05 1107.97) rotate(-90)" xlink:href="#radial-gradient"/><radialGradient id="radial-gradient-5" cx="786.45" cy="198.07" r="7.22" gradientTransform="translate(419.77 1110.95) rotate(-90)" xlink:href="#radial-gradient-2"/><radialGradient id="radial-gradient-6" cx="769.43" cy="183.63" r="7.22" gradientTransform="translate(427.28 1115.14) rotate(-90)" xlink:href="#radial-gradient-2"/><radialGradient id="radial-gradient-7" cx="720.79" cy="456.16" r="13.9" gradientTransform="translate(1370.63 748.08) rotate(180)" xlink:href="#radial-gradient"/><radialGradient id="radial-gradient-8" cx="738.28" cy="451.72" r="7.22" gradientTransform="translate(1374.21 755.12) rotate(180)" xlink:href="#radial-gradient-2"/><radialGradient id="radial-gradient-9" cx="721.26" cy="437.28" r="7.22" gradientTransform="translate(1378.74 746.47) rotate(180)" xlink:href="#radial-gradient-2"/><radialGradient id="radial-gradient-10" cx="670.87" cy="527.55" r="13.9" gradientTransform="translate(1361.35 795.38) rotate(180)" xlink:href="#radial-gradient"/><radialGradient id="radial-gradient-11" cx="688.37" cy="523.1" r="7.22" gradientTransform="translate(1379.01 808.98) rotate(180)" xlink:href="#radial-gradient-2"/><radialGradient id="radial-gradient-12" cx="671.34" cy="508.66" r="7.22" gradientTransform="translate(1380.05 781.44) rotate(180)" xlink:href="#radial-gradient-2"/><radialGradient id="radial-gradient-13" cx="596.9" cy="480.56" r="13.9" gradientTransform="translate(1173.35 -276) rotate(90)" xlink:href="#radial-gradient"/><radialGradient id="radial-gradient-14" cx="614.4" cy="476.11" r="7.22" gradientTransform="translate(1179.63 -278.98) rotate(90)" xlink:href="#radial-gradient-2"/><radialGradient id="radial-gradient-15" cx="597.37" cy="461.68" r="7.22" gradientTransform="translate(1172.12 -283.17) rotate(90)" xlink:href="#radial-gradient-2"/><radialGradient id="radial-gradient-16" cx="606.17" cy="236.07" r="13.9" gradientTransform="translate(190.16 36.1)" xlink:href="#radial-gradient"/><radialGradient id="radial-gradient-17" cx="623.66" cy="231.62" r="7.22" gradientTransform="translate(186.58 29.06)" xlink:href="#radial-gradient-2"/><radialGradient id="radial-gradient-18" cx="606.64" cy="217.19" r="7.22" gradientTransform="translate(182.05 37.71)" xlink:href="#radial-gradient-2"/><radialGradient id="radial-gradient-19" cx="720.53" cy="404.38" r="27" gradientTransform="translate(1133.09 -317.84) rotate(90)" gradientUnits="userSpaceOnUse"><stop offset="0.2" stop-color="#27aae1"/><stop offset="1" stop-color="#1c75bc"/></radialGradient><radialGradient id="radial-gradient-20" cx="876.65" cy="501.76" r="42.54" gradientTransform="translate(1022.01 -196.99) rotate(90) scale(0.71)" gradientUnits="userSpaceOnUse"><stop offset="0.2" stop-color="#8dc63f"/><stop offset="1" stop-color="#006838"/></radialGradient><radialGradient id="radial-gradient-21" cx="1028.1" cy="501.76" r="42.54" gradientTransform="translate(1124.94 -275.31) rotate(90) scale(0.71)" xlink:href="#radial-gradient-20"/><radialGradient id="radial-gradient-22" cx="960.8" cy="395.6" r="23.25" gradientTransform="translate(93.58 79.08) scale(0.79)" gradientUnits="userSpaceOnUse"><stop offset="0.2" stop-color="#1c75bc"/><stop offset="1" stop-color="#2b3990"/></radialGradient><radialGradient id="radial-gradient-23" cx="932.35" cy="384.52" r="12.08" gradientTransform="translate(93.58 79.08) scale(0.79)" xlink:href="#radial-gradient-2"/><radialGradient id="radial-gradient-24" cx="990.82" cy="384.52" r="12.08" gradientTransform="translate(93.58 79.08) scale(0.79)" xlink:href="#radial-gradient-2"/><radialGradient id="radial-gradient-25" cx="961.59" cy="363.99" r="12.08" gradientTransform="translate(93.58 79.08) scale(0.79)" xlink:href="#radial-gradient-2"/><radialGradient id="radial-gradient-26" cx="902.32" cy="322.9" r="23.25" xlink:href="#radial-gradient-22"/><radialGradient id="radial-gradient-27" cx="873.88" cy="311.83" r="12.08" gradientTransform="translate(93.58 79.08) scale(0.79)" xlink:href="#radial-gradient-2"/><radialGradient id="radial-gradient-28" cx="932.35" cy="311.83" r="12.08" gradientTransform="translate(93.58 79.08) scale(0.79)" xlink:href="#radial-gradient-2"/><radialGradient id="radial-gradient-29" cx="903.11" cy="291.3" r="12.08" gradientTransform="translate(93.58 79.08) scale(0.79)" xlink:href="#radial-gradient-2"/><radialGradient id="radial-gradient-30" cx="246.92" cy="385.28" r="42.54" gradientTransform="translate(48.93 84.55) scale(0.71)" xlink:href="#radial-gradient-20"/><radialGradient id="radial-gradient-31" cx="98.01" cy="324.13" r="23.25" gradientTransform="translate(96.3 79.59) scale(0.79)" xlink:href="#radial-gradient-22"/><radialGradient id="radial-gradient-32" cx="69.56" cy="313.06" r="12.08" gradientTransform="translate(94.87 85.16) scale(0.79)" xlink:href="#radial-gradient-2"/><radialGradient id="radial-gradient-33" cx="128.03" cy="313.06" r="12.08" gradientTransform="translate(93.55 74.23) scale(0.79)" xlink:href="#radial-gradient-2"/><radialGradient id="radial-gradient-34" cx="98.8" cy="292.53" r="12.08" gradientTransform="translate(90.37 80.16) scale(0.79)" xlink:href="#radial-gradient-2"/><radialGradient id="radial-gradient-35" cx="98.8" cy="357.32" r="12.08" gradientTransform="translate(102.49 78.7) scale(0.79)" xlink:href="#radial-gradient-2"/><radialGradient id="radial-gradient-36" cx="254.31" cy="238.91" r="42.54" gradientTransform="translate(48.93 84.55) scale(0.71)" xlink:href="#radial-gradient-20"/><radialGradient id="radial-gradient-37" cx="254.47" cy="289.56" r="23.25" gradientTransform="translate(500.28 81.58) rotate(90) scale(0.79)" xlink:href="#radial-gradient-22"/><radialGradient id="radial-gradient-38" cx="226.02" cy="278.49" r="12.08" gradientTransform="translate(491.11 79.95) rotate(90) scale(0.79)" xlink:href="#radial-gradient-2"/><radialGradient id="radial-gradient-39" cx="284.49" cy="278.49" r="12.08" gradientTransform="translate(508.61 76.49) rotate(90) scale(0.79)" xlink:href="#radial-gradient-2"/><radialGradient id="radial-gradient-40" cx="255.26" cy="257.96" r="12.08" gradientTransform="matrix(0, 0.79, -0.79, 0, 498.64, 72.08)" xlink:href="#radial-gradient-2"/><radialGradient id="radial-gradient-41" cx="255.26" cy="322.75" r="12.08" gradientTransform="matrix(0, 0.79, -0.79, 0, 502.48, 91.47)" xlink:href="#radial-gradient-2"/><radialGradient id="radial-gradient-42" cx="800.43" cy="368.46" r="27" gradientTransform="matrix(1, 0, 0, 1, 0, 0)" xlink:href="#radial-gradient-19"/><radialGradient id="radial-gradient-43" cx="743.63" cy="329.96" r="13.9" gradientTransform="translate(35.06 -1.26)" xlink:href="#radial-gradient"/><radialGradient id="radial-gradient-44" cx="761.12" cy="325.51" r="7.22" gradientTransform="translate(17.41 -14.86)" xlink:href="#radial-gradient-2"/><radialGradient id="radial-gradient-45" cx="744.09" cy="311.08" r="7.22" gradientTransform="translate(16.36 12.68)" xlink:href="#radial-gradient-2"/><radialGradient id="radial-gradient-46" cx="694.63" cy="304.06" r="13.9" gradientTransform="translate(446.61 1064.09) rotate(-90)" xlink:href="#radial-gradient"/><radialGradient id="radial-gradient-47" cx="712.12" cy="299.62" r="7.22" gradientTransform="translate(440.33 1067.07) rotate(-90)" xlink:href="#radial-gradient-2"/><radialGradient id="radial-gradient-48" cx="695.09" cy="285.18" r="7.22" gradientTransform="translate(447.84 1071.26) rotate(-90)" xlink:href="#radial-gradient-2"/><radialGradient id="radial-gradient-49" cx="658.18" cy="297.12" r="13.9" gradientTransform="translate(1432.55 706.11) rotate(180)" xlink:href="#radial-gradient"/><radialGradient id="radial-gradient-50" cx="675.68" cy="292.67" r="7.22" gradientTransform="translate(1436.13 713.15) rotate(180)" xlink:href="#radial-gradient-2"/><radialGradient id="radial-gradient-51" cx="658.65" cy="278.24" r="7.22" gradientTransform="translate(1440.66 704.5) rotate(180)" xlink:href="#radial-gradient-2"/><radialGradient id="radial-gradient-52" cx="775.94" cy="366.27" r="13.9" gradientTransform="translate(1598.11 774.48) rotate(180)" xlink:href="#radial-gradient"/><radialGradient id="radial-gradient-53" cx="793.43" cy="361.82" r="7.22" gradientTransform="translate(1615.76 788.09) rotate(180)" xlink:href="#radial-gradient-2"/><radialGradient id="radial-gradient-54" cx="776.4" cy="347.38" r="7.22" gradientTransform="translate(1616.81 760.54) rotate(180)" xlink:href="#radial-gradient-2"/><radialGradient id="radial-gradient-55" cx="699.47" cy="352.43" r="13.9" gradientTransform="translate(1202.6 -332.02) rotate(90)" xlink:href="#radial-gradient"/><radialGradient id="radial-gradient-56" cx="716.96" cy="347.98" r="7.22" gradientTransform="translate(1208.88 -335) rotate(90)" xlink:href="#radial-gradient-2"/><radialGradient id="radial-gradient-57" cx="699.94" cy="333.54" r="7.22" gradientTransform="translate(1201.38 -339.19) rotate(90)" xlink:href="#radial-gradient-2"/><radialGradient id="radial-gradient-58" cx="609.63" cy="299.36" r="13.9" gradientTransform="translate(216.85 28.56)" xlink:href="#radial-gradient"/><radialGradient id="radial-gradient-59" cx="627.12" cy="294.92" r="7.22" gradientTransform="translate(213.28 21.52)" xlink:href="#radial-gradient-2"/><radialGradient id="radial-gradient-60" cx="610.1" cy="280.48" r="7.22" gradientTransform="translate(208.74 30.17)" xlink:href="#radial-gradient-2"/></defs><title>anim_02</title><g id="jar"><g id="bg"><path d="M434.28,399.48l.1-.17.14-.23.13-.2.19-.27.16-.21.22-.29.18-.23.23-.3.18-.23.25-.31.13-.16,1.11-1.31c2.71-3.17,5-5.92,3.28-8a13,13,0,0,1-3.28-7,10,10,0,0,1-.05-1c0-13.53,27.45-25,60-25,31.65,0,58.51,10.84,59.89,23.91l-.18,3.18c-2.69,12.58-28.93,22.84-59.71,22.84-14.77,0-29-2.31-40-6.51a5.5,5.5,0,0,0-.82-.23l-.23,0c-.25,0-.52-.08-.8-.1l-.22,0c-.34,0-.71,0-1.09,0h-.44l-.89,0-.46,0c-2.06.15-4.61.5-7.73,1l-2,.29c-1.9.27-3.75.51-5.3.62a14.92,14.92,0,0,1-2.89,0v0Z" fill="#abedff"/><path d="M556.91,508.5c0,10.14-5,18.91-14.59,25.38-10.44,7.07-25.59,10.81-43.82,10.81-36.08,0-58.41-19.56-58.41-37.68V432l-.07-.23c-1.81-6.26-3.64-17.54-5.41-28.74h0l.65,0h.7a81.78,81.78,0,0,0,9-1l1-.15.42-.06.62-.09,1-.14.3,0,.72-.09.17,0,1.13-.14.51-.06.39,0a16,16,0,0,1,4.47,0l.23.07c11.44,4.34,26.1,6.73,41.28,6.73,27.87,0,51-7.67,59.71-18.67Z" fill="#abedff"/></g><g id="strokeBottomBack"><path d="M558.76,511.34h-2.31c0-6.88-6-13.44-16.85-18.47-11.11-5.14-25.82-8-41.41-8s-30.15,2.83-41.11,8c-10.68,5-16.57,11.57-16.57,18.47h-2.31c0-7.84,6.36-15.15,17.9-20.56,11.26-5.28,26.21-8.19,42.09-8.19C531.59,482.59,558.76,495.48,558.76,511.34Z" fill="#00d4ff"/></g><g id="strokeAround"><path d="M498.49,548.16c-17.37,0-33.29-4.51-44.83-12.7-10.83-7.68-17-18-17-28.44V432.44c-1.94-6.85-3.87-19-5.73-30.76l-.09-.56,3.42-.54.09.56c1.87,11.79,3.8,24,5.7,30.58l.07.23V507c0,18.12,22.33,37.68,58.41,37.68,18.23,0,33.38-3.74,43.82-10.81,9.55-6.47,14.59-15.25,14.59-25.38v-130h3.46v130c0,11.18-5.72,21.21-16.11,28.25C533.24,544.22,517.42,548.16,498.49,548.16Z" fill="#00d4ff"/></g><path id="strokeTopTop" d="M497.2,354.55c32.5,0,60,11.43,60,25h3.46c0-15.94-27.85-28.42-63.41-28.42s-63.41,12.49-63.41,28.42h3.46C437.25,366,464.7,354.55,497.2,354.55Z" fill="#00d4ff"/><g id="stick"><path d="M505.43,512.44c0-.06,0-.12,0-.18L538,228.42a4.76,4.76,0,0,0-9.46-1L496,511.27" fill="#abedff"/><path d="M505.43,514.09l-.29,0a1.66,1.66,0,0,1-1.36-1.91l0-.09,32.49-283.84a3.08,3.08,0,0,0-6.12-.63L497.67,511.46a1.68,1.68,0,0,1-3.34-.38l32.49-283.84a6.44,6.44,0,0,1,12.8,1.36L507.13,512.45c0,.07,0,.16,0,.25A1.71,1.71,0,0,1,505.43,514.09Z" fill="#00d4ff"/><path d="M497.89,509.61a4.83,4.83,0,0,0-2.1,2.72,4.84,4.84,0,1,0,8.77-1.13" fill="#abedff"/><path d="M500.56,519a6.48,6.48,0,0,1-.69,0,6.43,6.43,0,0,1-5.76-6.68V512l.06-.2a6.53,6.53,0,0,1,2.82-3.66l1.76,2.86a3.17,3.17,0,0,0-1.3,1.58,3.07,3.07,0,0,0,6.08.57,3.1,3.1,0,0,0-.42-1.1l2.86-1.76a6.44,6.44,0,0,1,.92,2.72l0,.21,0,.21A6.4,6.4,0,0,1,500.56,519Z" fill="#00d4ff"/><path d="M504.38,512a4.85,4.85,0,0,0-6.67-1.59" fill="#abedff"/><path d="M503.43,512.55a3.74,3.74,0,0,0-5.13-1.22l-1.17-1.91a6,6,0,0,1,8.21,2Z" fill="#00d4ff"/></g><g id="jarSalt"><g id="jarSaltParticle"><polygon points="517.78 514.75 515.93 512.67 516.81 510.04 519.52 509.48 521.37 511.55 520.5 514.18 517.78 514.75" fill="#fff"/><path d="M517.78,515.9a1.16,1.16,0,0,1-.86-.39l-1.84-2.07a1.15,1.15,0,0,1-.23-1.13l.87-2.63a1.15,1.15,0,0,1,.86-.77l2.72-.56a1.16,1.16,0,0,1,1.1.36l1.85,2.07a1.16,1.16,0,0,1,.23,1.13l-.87,2.63a1.15,1.15,0,0,1-.86.77l-2.72.56Zm-.54-3.5,1,1.08,1.41-.29.45-1.37-1-1.08-1.41.29Z" fill="#f2f2f2"/></g><g id="jarSaltParticle-2" data-name="jarSaltParticle"><polygon points="516.12 509.3 514.27 507.23 515.14 504.59 517.86 504.03 519.71 506.11 518.83 508.74 516.12 509.3" fill="#fff"/><path d="M516.11,510.46a1.16,1.16,0,0,1-.86-.39L513.41,508a1.15,1.15,0,0,1-.23-1.13l.87-2.63a1.15,1.15,0,0,1,.86-.77l2.72-.56a1.16,1.16,0,0,1,1.1.36l1.85,2.07a1.16,1.16,0,0,1,.23,1.13l-.87,2.63a1.15,1.15,0,0,1-.86.77l-2.72.56Zm-.54-3.5,1,1.08,1.41-.29.45-1.37-1-1.08-1.41.29Z" fill="#f2f2f2"/></g><g id="jarSaltParticle-3" data-name="jarSaltParticle"><polygon points="479.9 512.1 478.06 510.03 478.93 507.39 481.65 506.83 483.49 508.9 482.62 511.54 479.9 512.1" fill="#fff"/><path d="M479.9,513.26a1.16,1.16,0,0,1-.86-.39l-1.84-2.07a1.15,1.15,0,0,1-.23-1.13l.87-2.63a1.15,1.15,0,0,1,.86-.77l2.72-.56a1.16,1.16,0,0,1,1.1.36l1.85,2.07a1.16,1.16,0,0,1,.23,1.13l-.87,2.63a1.15,1.15,0,0,1-.86.77l-2.72.56Zm-.54-3.5,1,1.08,1.41-.29.45-1.37-1-1.08-1.41.29Z" fill="#f2f2f2"/></g><g id="jarSaltParticle-4" data-name="jarSaltParticle"><polygon points="479.42 517.84 477.58 515.77 478.45 513.13 481.17 512.57 483.01 514.65 482.14 517.28 479.42 517.84" fill="#fff"/><path d="M479.42,519a1.16,1.16,0,0,1-.86-.39l-1.84-2.07a1.15,1.15,0,0,1-.23-1.13l.87-2.63a1.15,1.15,0,0,1,.86-.77l2.72-.56a1.16,1.16,0,0,1,1.1.36l1.85,2.07a1.16,1.16,0,0,1,.23,1.13l-.87,2.63a1.15,1.15,0,0,1-.86.77l-2.72.56Zm-.54-3.5,1,1.08,1.41-.29.45-1.37-1-1.08-1.41.29Z" fill="#f2f2f2"/></g><g id="jarSaltParticle-5" data-name="jarSaltParticle"><polygon points="517.04 522.84 515.19 520.77 516.07 518.13 518.78 517.57 520.63 519.64 519.76 522.28 517.04 522.84" fill="#fff"/><path d="M517,524a1.16,1.16,0,0,1-.86-.39l-1.84-2.07a1.15,1.15,0,0,1-.23-1.13l.87-2.63a1.15,1.15,0,0,1,.86-.77l2.72-.56a1.16,1.16,0,0,1,1.1.36l1.85,2.07a1.16,1.16,0,0,1,.23,1.13l-.87,2.63a1.15,1.15,0,0,1-.86.77l-2.72.56Zm-.54-3.5,1,1.08,1.41-.29.45-1.37-1-1.08-1.41.29Z" fill="#f2f2f2"/></g><g id="jarSaltParticle-6" data-name="jarSaltParticle"><polygon points="504.67 498.94 502.82 496.87 503.7 494.24 506.42 493.67 508.26 495.75 507.39 498.38 504.67 498.94" fill="#fff"/><path d="M504.67,500.1a1.16,1.16,0,0,1-.86-.39L502,497.64a1.15,1.15,0,0,1-.23-1.13l.87-2.63a1.15,1.15,0,0,1,.86-.77l2.72-.56a1.16,1.16,0,0,1,1.1.36l1.85,2.07a1.16,1.16,0,0,1,.23,1.13l-.87,2.63a1.15,1.15,0,0,1-.86.77l-2.72.56Zm-.54-3.5,1,1.08,1.41-.29L507,496l-1-1.08-1.41.29Z" fill="#f2f2f2"/></g><g id="jarSaltParticle-7" data-name="jarSaltParticle"><polygon points="500.8 502.11 498.95 500.04 499.82 497.4 502.54 496.84 504.39 498.91 503.51 501.55 500.8 502.11" fill="#fff"/><path d="M500.8,503.26a1.16,1.16,0,0,1-.86-.39l-1.84-2.07a1.15,1.15,0,0,1-.23-1.13l.87-2.63a1.15,1.15,0,0,1,.86-.77l2.72-.56a1.16,1.16,0,0,1,1.1.36l1.85,2.07a1.16,1.16,0,0,1,.23,1.13l-.87,2.63a1.15,1.15,0,0,1-.86.77l-2.72.56Zm-.54-3.5,1,1.08,1.41-.29.45-1.37-1-1.08-1.41.29Z" fill="#f2f2f2"/></g><g id="jarSaltParticle-8" data-name="jarSaltParticle"><polygon points="495.79 503.31 493.95 501.24 494.82 498.61 497.54 498.05 499.38 500.12 498.51 502.75 495.79 503.31" fill="#fff"/><path d="M495.79,504.47a1.16,1.16,0,0,1-.86-.39L493.08,502a1.15,1.15,0,0,1-.23-1.13l.87-2.63a1.15,1.15,0,0,1,.86-.77l2.72-.56a1.16,1.16,0,0,1,1.1.36l1.85,2.07a1.16,1.16,0,0,1,.23,1.13l-.87,2.63a1.15,1.15,0,0,1-.86.77l-2.72.56Zm-.54-3.5,1,1.08,1.41-.29.45-1.37-1-1.08-1.41.29Z" fill="#f2f2f2"/></g><g id="jarSaltParticle-9" data-name="jarSaltParticle"><polygon points="489.73 503.46 487.88 501.39 488.75 498.75 491.47 498.19 493.32 500.27 492.44 502.9 489.73 503.46" fill="#fff"/><path d="M489.73,504.62a1.16,1.16,0,0,1-.86-.39L487,502.16a1.15,1.15,0,0,1-.23-1.13l.87-2.63a1.15,1.15,0,0,1,.86-.77l2.72-.56a1.16,1.16,0,0,1,1.1.36l1.85,2.07a1.16,1.16,0,0,1,.23,1.13l-.87,2.63a1.15,1.15,0,0,1-.86.77l-2.72.56Zm-.54-3.5,1,1.08,1.41-.29.45-1.37-1-1.08-1.41.29Z" fill="#f2f2f2"/></g><g id="jarSaltParticle-10" data-name="jarSaltParticle"><polygon points="479.9 523.75 478.06 521.68 478.93 519.04 481.65 518.48 483.49 520.55 482.62 523.19 479.9 523.75" fill="#fff"/><path d="M479.9,524.91a1.16,1.16,0,0,1-.86-.39l-1.84-2.07a1.15,1.15,0,0,1-.23-1.13l.87-2.63a1.15,1.15,0,0,1,.86-.77l2.72-.56a1.16,1.16,0,0,1,1.1.36l1.85,2.07a1.16,1.16,0,0,1,.23,1.13l-.87,2.63a1.15,1.15,0,0,1-.86.77l-2.72.56Zm-.54-3.5,1,1.08,1.41-.29.45-1.37-1-1.08-1.41.29Z" fill="#f2f2f2"/></g><g id="jarSaltParticle-11" data-name="jarSaltParticle"><polygon points="483.29 506.64 481.45 504.56 482.32 501.93 485.04 501.37 486.89 503.44 486.01 506.07 483.29 506.64" fill="#fff"/><path d="M483.29,507.79a1.16,1.16,0,0,1-.86-.39l-1.84-2.07a1.15,1.15,0,0,1-.23-1.13l.87-2.63a1.15,1.15,0,0,1,.86-.77l2.72-.56a1.16,1.16,0,0,1,1.1.36l1.85,2.07a1.16,1.16,0,0,1,.23,1.13l-.87,2.63a1.15,1.15,0,0,1-.86.77l-2.72.56Zm-.54-3.5,1,1.08,1.41-.29.45-1.37-1-1.08-1.41.29Z" fill="#f2f2f2"/></g><g id="jarSaltParticle-12" data-name="jarSaltParticle"><polygon points="483.29 512.8 481.45 510.73 482.32 508.09 485.04 507.53 486.89 509.61 486.01 512.24 483.29 512.8" fill="#fff"/><path d="M483.29,514a1.16,1.16,0,0,1-.86-.39l-1.84-2.07a1.15,1.15,0,0,1-.23-1.13l.87-2.63a1.15,1.15,0,0,1,.86-.77l2.72-.56a1.16,1.16,0,0,1,1.1.36l1.85,2.07A1.16,1.16,0,0,1,488,510l-.87,2.63a1.15,1.15,0,0,1-.86.77l-2.72.56Zm-.54-3.5,1,1.08,1.41-.29.45-1.37-1-1.08-1.41.29Z" fill="#f2f2f2"/></g><g id="jarSaltParticle-13" data-name="jarSaltParticle"><polygon points="487.37 508.54 485.52 506.46 486.39 503.83 489.11 503.27 490.96 505.34 490.08 507.98 487.37 508.54" fill="#fff"/><path d="M487.37,509.69a1.16,1.16,0,0,1-.86-.39l-1.84-2.07a1.15,1.15,0,0,1-.23-1.13l.87-2.63a1.15,1.15,0,0,1,.86-.77l2.72-.56a1.16,1.16,0,0,1,1.1.36l1.85,2.07a1.16,1.16,0,0,1,.23,1.13l-.87,2.63a1.15,1.15,0,0,1-.86.77l-2.72.56Zm-.54-3.5,1,1.08,1.41-.29.45-1.37-1-1.08-1.41.29Z" fill="#f2f2f2"/></g><g id="jarSaltParticle-14" data-name="jarSaltParticle"><polygon points="493.6 509.01 491.75 506.94 492.63 504.31 495.35 503.75 497.19 505.82 496.32 508.45 493.6 509.01" fill="#fff"/><path d="M493.6,510.17a1.16,1.16,0,0,1-.86-.39l-1.84-2.07a1.15,1.15,0,0,1-.23-1.13l.87-2.63a1.15,1.15,0,0,1,.86-.77l2.72-.56a1.16,1.16,0,0,1,1.1.36l1.85,2.07a1.16,1.16,0,0,1,.23,1.13l-.87,2.63a1.15,1.15,0,0,1-.86.77l-2.72.56Zm-.54-3.5,1,1.08,1.41-.29.45-1.37-1-1.08-1.41.29Z" fill="#f2f2f2"/></g><g id="jarSaltParticle-15" data-name="jarSaltParticle"><polygon points="498.29 509.39 496.45 507.32 497.32 504.68 500.04 504.12 501.88 506.19 501.01 508.83 498.29 509.39" fill="#fff"/><path d="M498.29,510.54a1.16,1.16,0,0,1-.86-.39l-1.84-2.07a1.15,1.15,0,0,1-.23-1.13l.87-2.63a1.15,1.15,0,0,1,.86-.77l2.72-.56a1.16,1.16,0,0,1,1.1.36l1.85,2.07a1.16,1.16,0,0,1,.23,1.13l-.87,2.63a1.15,1.15,0,0,1-.86.77l-2.72.56Zm-.54-3.5,1,1.08,1.41-.29.45-1.37-1-1.08-1.41.29Z" fill="#f2f2f2"/></g><g id="jarSaltParticle-16" data-name="jarSaltParticle"><polygon points="489.2 520.48 487.36 518.4 488.23 515.77 490.95 515.21 492.79 517.28 491.92 519.92 489.2 520.48" fill="#fff"/><path d="M489.2,521.63a1.16,1.16,0,0,1-.86-.39l-1.84-2.07a1.15,1.15,0,0,1-.23-1.13l.87-2.63a1.15,1.15,0,0,1,.86-.77l2.72-.56a1.16,1.16,0,0,1,1.1.36l1.85,2.07a1.16,1.16,0,0,1,.23,1.13l-.87,2.63a1.15,1.15,0,0,1-.86.77l-2.72.56Zm-.54-3.5,1,1.08,1.41-.29.45-1.37-1-1.08-1.41.29Z" fill="#f2f2f2"/></g><g id="jarSaltParticle-17" data-name="jarSaltParticle"><polygon points="484.03 519.33 482.19 517.25 483.06 514.62 485.78 514.05 487.63 516.13 486.75 518.76 484.03 519.33" fill="#fff"/><path d="M484,520.48a1.16,1.16,0,0,1-.86-.39L481.33,518a1.15,1.15,0,0,1-.23-1.13l.87-2.63a1.15,1.15,0,0,1,.86-.77l2.72-.56a1.16,1.16,0,0,1,1.1.36l1.85,2.07a1.16,1.16,0,0,1,.23,1.13l-.87,2.63a1.15,1.15,0,0,1-.86.77l-2.72.56Zm-.54-3.5,1,1.08,1.41-.29.45-1.37-1-1.08-1.41.29Z" fill="#f2f2f2"/></g><g id="jarSaltParticle-18" data-name="jarSaltParticle"><polygon points="487.37 514.74 485.52 512.66 486.39 510.03 489.11 509.47 490.96 511.54 490.08 514.17 487.37 514.74" fill="#fff"/><path d="M487.37,515.89a1.16,1.16,0,0,1-.86-.39l-1.84-2.07a1.15,1.15,0,0,1-.23-1.13l.87-2.63a1.15,1.15,0,0,1,.86-.77l2.72-.56a1.16,1.16,0,0,1,1.1.36l1.85,2.07a1.16,1.16,0,0,1,.23,1.13l-.87,2.63a1.15,1.15,0,0,1-.86.77l-2.72.56Zm-.54-3.5,1,1.08,1.41-.29.45-1.37-1-1.08-1.41.29Z" fill="#f2f2f2"/></g><g id="jarSaltParticle-19" data-name="jarSaltParticle"><polygon points="483.29 524.82 481.45 522.75 482.32 520.11 485.04 519.55 486.89 521.62 486.01 524.26 483.29 524.82" fill="#fff"/><path d="M483.29,526a1.16,1.16,0,0,1-.86-.39l-1.84-2.07a1.15,1.15,0,0,1-.23-1.13l.87-2.63a1.15,1.15,0,0,1,.86-.77l2.72-.56a1.16,1.16,0,0,1,1.1.36l1.85,2.07A1.16,1.16,0,0,1,488,522l-.87,2.63a1.15,1.15,0,0,1-.86.77l-2.72.56Zm-.54-3.5,1,1.08,1.41-.29.45-1.37-1-1.08-1.41.29Z" fill="#f2f2f2"/></g><g id="jarSaltParticle-20" data-name="jarSaltParticle"><polygon points="488.7 526.3 486.86 524.23 487.73 521.59 490.45 521.03 492.3 523.1 491.42 525.74 488.7 526.3" fill="#fff"/><path d="M488.7,527.45a1.16,1.16,0,0,1-.86-.39L486,525a1.15,1.15,0,0,1-.23-1.13l.87-2.63a1.15,1.15,0,0,1,.86-.77l2.72-.56a1.16,1.16,0,0,1,1.1.36l1.85,2.07a1.16,1.16,0,0,1,.23,1.13l-.87,2.63a1.15,1.15,0,0,1-.86.77l-2.72.56Zm-.54-3.5,1,1.08,1.41-.29.45-1.37-1-1.08-1.41.29Z" fill="#f2f2f2"/></g><g id="jarSaltParticle-21" data-name="jarSaltParticle"><polygon points="498.17 527.09 496.33 525.01 497.2 522.38 499.92 521.82 501.77 523.89 500.89 526.53 498.17 527.09" fill="#fff"/><path d="M498.17,528.24a1.16,1.16,0,0,1-.86-.39l-1.84-2.07a1.15,1.15,0,0,1-.23-1.13l.87-2.63a1.15,1.15,0,0,1,.86-.77l2.72-.56a1.16,1.16,0,0,1,1.1.36l1.85,2.07a1.16,1.16,0,0,1,.23,1.13l-.87,2.63a1.15,1.15,0,0,1-.86.77l-2.72.56Zm-.54-3.5,1,1.08,1.41-.29.45-1.37-1-1.08-1.41.29Z" fill="#f2f2f2"/></g><g id="jarSaltParticle-22" data-name="jarSaltParticle"><polygon points="494.42 524.43 492.57 522.35 493.45 519.72 496.17 519.16 498.01 521.23 497.14 523.87 494.42 524.43" fill="#fff"/><path d="M494.42,525.58a1.16,1.16,0,0,1-.86-.39l-1.84-2.07a1.15,1.15,0,0,1-.23-1.13l.87-2.63a1.15,1.15,0,0,1,.86-.77l2.72-.56a1.16,1.16,0,0,1,1.1.36l1.85,2.07a1.16,1.16,0,0,1,.23,1.13l-.87,2.63a1.15,1.15,0,0,1-.86.77l-2.72.56Zm-.54-3.5,1,1.08,1.41-.29.45-1.37-1-1.08-1.41.29Z" fill="#f2f2f2"/></g><g id="jarSaltParticle-23" data-name="jarSaltParticle"><polygon points="502.5 523.11 500.65 521.04 501.53 518.4 504.25 517.84 506.09 519.92 505.22 522.55 502.5 523.11" fill="#fff"/><path d="M502.5,524.27a1.16,1.16,0,0,1-.86-.39l-1.84-2.07a1.15,1.15,0,0,1-.23-1.13l.87-2.63a1.15,1.15,0,0,1,.86-.77l2.72-.56a1.16,1.16,0,0,1,1.1.36l1.85,2.07a1.16,1.16,0,0,1,.23,1.13l-.87,2.63a1.15,1.15,0,0,1-.86.77l-2.72.56Zm-.54-3.5,1,1.08,1.41-.29.45-1.37-1-1.08-1.41.29Z" fill="#f2f2f2"/></g><g id="jarSaltParticle-24" data-name="jarSaltParticle"><polygon points="507.85 525 506.01 522.92 506.88 520.29 509.6 519.73 511.44 521.8 510.57 524.44 507.85 525" fill="#fff"/><path d="M507.85,526.15a1.16,1.16,0,0,1-.86-.39l-1.84-2.07a1.15,1.15,0,0,1-.23-1.13l.87-2.63a1.15,1.15,0,0,1,.86-.77l2.72-.56a1.16,1.16,0,0,1,1.1.36l1.85,2.07a1.16,1.16,0,0,1,.23,1.13l-.87,2.63a1.15,1.15,0,0,1-.86.77l-2.72.56Zm-.54-3.5,1,1.08,1.41-.29.45-1.37-1-1.08-1.41.29Z" fill="#f2f2f2"/></g><g id="jarSaltParticle-25" data-name="jarSaltParticle"><polygon points="513.29 524.14 511.45 522.06 512.32 519.43 515.04 518.87 516.88 520.94 516.01 523.57 513.29 524.14" fill="#fff"/><path d="M513.29,525.29a1.16,1.16,0,0,1-.86-.39l-1.84-2.07a1.15,1.15,0,0,1-.23-1.13l.87-2.63a1.15,1.15,0,0,1,.86-.77l2.72-.56a1.16,1.16,0,0,1,1.1.36l1.85,2.07a1.16,1.16,0,0,1,.23,1.13l-.87,2.63a1.15,1.15,0,0,1-.86.77l-2.72.56Zm-.54-3.5,1,1.08,1.41-.29.45-1.37-1-1.08-1.41.29Z" fill="#f2f2f2"/></g><g id="jarSaltParticle-26" data-name="jarSaltParticle"><polygon points="505.22 511.17 503.37 509.1 504.25 506.46 506.96 505.9 508.81 507.98 507.94 510.61 505.22 511.17" fill="#fff"/><path d="M505.22,512.33a1.16,1.16,0,0,1-.86-.39l-1.84-2.07a1.15,1.15,0,0,1-.23-1.13l.87-2.63a1.15,1.15,0,0,1,.86-.77l2.72-.56a1.16,1.16,0,0,1,1.1.36l1.85,2.07a1.16,1.16,0,0,1,.23,1.13L509,511a1.15,1.15,0,0,1-.86.77l-2.72.56Zm-.54-3.5,1,1.08,1.41-.29.45-1.37-1-1.08-1.41.29Z" fill="#f2f2f2"/></g><g id="jarSaltParticle-27" data-name="jarSaltParticle"><polygon points="502.82 508.54 500.98 506.46 501.85 503.83 504.57 503.27 506.42 505.34 505.54 507.98 502.82 508.54" fill="#fff"/><path d="M502.82,509.69a1.16,1.16,0,0,1-.86-.39l-1.84-2.07a1.15,1.15,0,0,1-.23-1.13l.87-2.63a1.15,1.15,0,0,1,.86-.77l2.72-.56a1.16,1.16,0,0,1,1.1.36l1.85,2.07a1.16,1.16,0,0,1,.23,1.13l-.87,2.63a1.15,1.15,0,0,1-.86.77l-2.72.56Zm-.54-3.5,1,1.08,1.41-.29.45-1.37-1-1.08-1.41.29Z" fill="#f2f2f2"/></g><g id="jarSaltParticle-28" data-name="jarSaltParticle"><polygon points="492.44 512.33 490.6 510.25 491.47 507.62 494.19 507.06 496.04 509.13 495.16 511.76 492.44 512.33" fill="#fff"/><path d="M492.44,513.48a1.16,1.16,0,0,1-.86-.39L489.74,511a1.15,1.15,0,0,1-.23-1.13l.87-2.63a1.15,1.15,0,0,1,.86-.77l2.72-.56a1.16,1.16,0,0,1,1.1.36l1.85,2.07a1.16,1.16,0,0,1,.23,1.13l-.87,2.63a1.15,1.15,0,0,1-.86.77l-2.72.56Zm-.54-3.5,1,1.08,1.41-.29.45-1.37-1-1.08-1.41.29Z" fill="#f2f2f2"/></g><g id="jarSaltParticle-29" data-name="jarSaltParticle"><polygon points="491.92 517.84 490.07 515.77 490.95 513.13 493.67 512.57 495.51 514.65 494.64 517.28 491.92 517.84" fill="#fff"/><path d="M491.92,519a1.16,1.16,0,0,1-.86-.39l-1.84-2.07a1.15,1.15,0,0,1-.23-1.13l.87-2.63a1.15,1.15,0,0,1,.86-.77l2.72-.56a1.16,1.16,0,0,1,1.1.36l1.85,2.07a1.16,1.16,0,0,1,.23,1.13l-.87,2.63a1.15,1.15,0,0,1-.86.77l-2.72.56Zm-.54-3.5,1,1.08,1.41-.29.45-1.37-1-1.08-1.41.29Z" fill="#f2f2f2"/></g><g id="jarSaltParticle-30" data-name="jarSaltParticle"><polygon points="498.51 520.33 496.66 518.25 497.54 515.62 500.25 515.06 502.1 517.13 501.23 519.76 498.51 520.33" fill="#fff"/><path d="M498.51,521.48a1.16,1.16,0,0,1-.86-.39L495.8,519a1.15,1.15,0,0,1-.23-1.13l.87-2.63a1.15,1.15,0,0,1,.86-.77l2.72-.56a1.16,1.16,0,0,1,1.1.36l1.85,2.07a1.16,1.16,0,0,1,.23,1.13l-.87,2.63a1.15,1.15,0,0,1-.86.77l-2.72.56ZM498,518l1,1.08,1.41-.29.45-1.37-1-1.08-1.41.29Z" fill="#f2f2f2"/></g><g id="jarSaltParticle-31" data-name="jarSaltParticle"><polygon points="513.14 519.33 511.29 517.25 512.17 514.62 514.88 514.06 516.73 516.13 515.86 518.76 513.14 519.33" fill="#fff"/><path d="M513.14,520.48a1.16,1.16,0,0,1-.86-.39L510.43,518a1.15,1.15,0,0,1-.23-1.13l.87-2.63a1.15,1.15,0,0,1,.86-.77l2.72-.56a1.16,1.16,0,0,1,1.1.36l1.85,2.07a1.16,1.16,0,0,1,.23,1.13l-.87,2.63a1.15,1.15,0,0,1-.86.77l-2.72.56Zm-.54-3.5,1,1.08,1.41-.29.45-1.37-1-1.08-1.41.29Z" fill="#f2f2f2"/></g><g id="jarSaltParticle-32" data-name="jarSaltParticle"><polygon points="511.01 513.18 509.17 511.11 510.04 508.47 512.76 507.91 514.61 509.98 513.73 512.62 511.01 513.18" fill="#fff"/><path d="M511,514.33a1.16,1.16,0,0,1-.86-.39l-1.84-2.07a1.15,1.15,0,0,1-.23-1.13l.87-2.63a1.15,1.15,0,0,1,.86-.77l2.72-.56a1.16,1.16,0,0,1,1.1.36l1.85,2.07a1.16,1.16,0,0,1,.23,1.13l-.87,2.63a1.15,1.15,0,0,1-.86.77l-2.72.56Zm-.54-3.5,1,1.08,1.41-.29.45-1.37-1-1.08-1.41.29Z" fill="#f2f2f2"/></g><g id="jarSaltParticle-33" data-name="jarSaltParticle"><polygon points="513.14 503.46 511.29 501.39 512.17 498.75 514.88 498.19 516.73 500.27 515.86 502.9 513.14 503.46" fill="#fff"/><path d="M513.14,504.62a1.16,1.16,0,0,1-.86-.39l-1.84-2.07a1.15,1.15,0,0,1-.23-1.13l.87-2.63a1.15,1.15,0,0,1,.86-.77l2.72-.56a1.16,1.16,0,0,1,1.1.36l1.85,2.07a1.16,1.16,0,0,1,.23,1.13l-.87,2.63a1.15,1.15,0,0,1-.86.77l-2.72.56Zm-.54-3.5,1,1.08,1.41-.29.45-1.37-1-1.08-1.41.29Z" fill="#f2f2f2"/></g><g id="jarSaltParticle-34" data-name="jarSaltParticle"><polygon points="511.13 499.6 509.28 497.52 510.15 494.89 512.87 494.32 514.72 496.4 513.85 499.03 511.13 499.6" fill="#fff"/><path d="M511.13,500.75a1.16,1.16,0,0,1-.86-.39l-1.84-2.07a1.15,1.15,0,0,1-.23-1.13l.87-2.63a1.15,1.15,0,0,1,.86-.77l2.72-.56a1.16,1.16,0,0,1,1.1.36l1.85,2.07a1.16,1.16,0,0,1,.23,1.13l-.87,2.63a1.15,1.15,0,0,1-.86.77l-2.72.56Zm-.54-3.5,1,1.08L513,498l.45-1.37-1-1.08-1.41.29Z" fill="#f2f2f2"/></g><g id="jarSaltParticle-35" data-name="jarSaltParticle"><polygon points="506.7 504 504.85 501.93 505.73 499.29 508.44 498.73 510.29 500.8 509.42 503.44 506.7 504" fill="#fff"/><path d="M506.7,505.15a1.16,1.16,0,0,1-.86-.39L504,502.69a1.15,1.15,0,0,1-.23-1.13l.87-2.63a1.15,1.15,0,0,1,.86-.77l2.72-.56a1.16,1.16,0,0,1,1.1.36l1.85,2.07a1.16,1.16,0,0,1,.23,1.13l-.87,2.63a1.15,1.15,0,0,1-.86.77l-2.72.56Zm-.54-3.5,1,1.08,1.41-.29.45-1.37L508,500l-1.41.29Z" fill="#f2f2f2"/></g><g id="jarSaltParticle-36" data-name="jarSaltParticle"><polygon points="509.94 507.79 508.09 505.71 508.97 503.08 511.68 502.52 513.53 504.59 512.66 507.23 509.94 507.79" fill="#fff"/><path d="M509.94,508.94a1.16,1.16,0,0,1-.86-.39l-1.84-2.07a1.15,1.15,0,0,1-.23-1.13l.87-2.63a1.15,1.15,0,0,1,.86-.77l2.72-.56a1.16,1.16,0,0,1,1.1.36l1.85,2.07a1.16,1.16,0,0,1,.23,1.13l-.87,2.63a1.15,1.15,0,0,1-.86.77l-2.72.56Zm-.54-3.5,1,1.08,1.41-.29.45-1.37-1-1.08-1.41.29Z" fill="#f2f2f2"/></g><g id="jarSaltParticle-37" data-name="jarSaltParticle"><polygon points="508.39 519.4 506.54 517.33 507.42 514.69 510.13 514.13 511.98 516.2 511.11 518.84 508.39 519.4" fill="#fff"/><path d="M508.39,520.55a1.16,1.16,0,0,1-.86-.39l-1.84-2.07a1.15,1.15,0,0,1-.23-1.13l.87-2.63a1.15,1.15,0,0,1,.86-.77l2.72-.56a1.16,1.16,0,0,1,1.1.36l1.85,2.07a1.16,1.16,0,0,1,.23,1.13l-.87,2.63a1.15,1.15,0,0,1-.86.77l-2.72.56Zm-.54-3.5,1,1.08,1.41-.29.45-1.37-1-1.08-1.41.29Z" fill="#f2f2f2"/></g><g id="jarSaltParticle-38" data-name="jarSaltParticle"><polygon points="497.14 515.21 495.29 513.13 496.17 510.5 498.88 509.94 500.73 512.01 499.86 514.65 497.14 515.21" fill="#fff"/><path d="M497.14,516.36a1.16,1.16,0,0,1-.86-.39l-1.84-2.07a1.15,1.15,0,0,1-.23-1.13l.87-2.63a1.15,1.15,0,0,1,.86-.77l2.72-.56a1.16,1.16,0,0,1,1.1.36l1.85,2.07a1.16,1.16,0,0,1,.23,1.13L501,515a1.15,1.15,0,0,1-.86.77l-2.72.56Zm-.54-3.5,1,1.08,1.41-.29.45-1.37-1-1.08-1.41.29Z" fill="#f2f2f2"/></g><g id="jarSaltParticle-39" data-name="jarSaltParticle"><polygon points="502.66 514.45 500.82 512.38 501.69 509.74 504.41 509.18 506.25 511.25 505.38 513.89 502.66 514.45" fill="#fff"/><path d="M502.66,515.6a1.16,1.16,0,0,1-.86-.39L500,513.14a1.15,1.15,0,0,1-.23-1.13l.87-2.63a1.15,1.15,0,0,1,.86-.77l2.72-.56a1.16,1.16,0,0,1,1.1.36l1.85,2.07a1.16,1.16,0,0,1,.23,1.13l-.87,2.63a1.15,1.15,0,0,1-.86.77l-2.72.56Zm-.54-3.5,1,1.08,1.41-.29.45-1.37-1-1.08-1.41.29Z" fill="#f2f2f2"/></g><g id="jarSaltParticle-40" data-name="jarSaltParticle"><polygon points="502.38 518.63 500.54 516.56 501.41 513.93 504.13 513.37 505.97 515.44 505.1 518.07 502.38 518.63" fill="#fff"/><path d="M502.38,519.79a1.16,1.16,0,0,1-.86-.39l-1.84-2.07a1.15,1.15,0,0,1-.23-1.13l.87-2.63a1.15,1.15,0,0,1,.86-.77l2.72-.56a1.16,1.16,0,0,1,1.1.36l1.85,2.07a1.16,1.16,0,0,1,.23,1.13l-.87,2.63a1.15,1.15,0,0,1-.86.77l-2.72.56Zm-.54-3.5,1,1.08,1.41-.29.45-1.37-1-1.08-1.41.29Z" fill="#f2f2f2"/></g><g id="jarSaltParticle-41" data-name="jarSaltParticle"><polygon points="506.7 515.21 504.85 513.13 505.73 510.5 508.44 509.94 510.29 512.01 509.42 514.65 506.7 515.21" fill="#fff"/><path d="M506.7,516.36a1.16,1.16,0,0,1-.86-.39L504,513.9a1.15,1.15,0,0,1-.23-1.13l.87-2.63a1.15,1.15,0,0,1,.86-.77l2.72-.56a1.16,1.16,0,0,1,1.1.36l1.85,2.07a1.16,1.16,0,0,1,.23,1.13l-.87,2.63a1.15,1.15,0,0,1-.86.77l-2.72.56Zm-.54-3.5,1,1.08,1.41-.29.45-1.37-1-1.08-1.41.29Z" fill="#f2f2f2"/></g><g id="jarSaltParticle-42" data-name="jarSaltParticle"><polygon points="519.03 518.9 517.19 516.82 518.06 514.19 520.78 513.63 522.63 515.7 521.75 518.34 519.03 518.9" fill="#fff"/><path d="M519,520.05a1.16,1.16,0,0,1-.86-.39l-1.84-2.07a1.15,1.15,0,0,1-.23-1.13l.87-2.63a1.15,1.15,0,0,1,.86-.77l2.72-.56a1.16,1.16,0,0,1,1.1.36l1.85,2.07a1.16,1.16,0,0,1,.23,1.13l-.87,2.63a1.15,1.15,0,0,1-.86.77l-2.72.56Zm-.54-3.5,1,1.08,1.41-.29.45-1.37-1-1.08-1.41.29Z" fill="#f2f2f2"/></g></g><g id="plate"><path d="M578.4,266.75c0,11.79-29.37,27.52-65.6,27.52s-65.59-15.73-65.59-27.52,29.37-17.49,65.59-17.49S578.4,255,578.4,266.75Z" fill="#abedff"/><path d="M512.81,296c-16.93,0-33.66-3.37-47.1-9.49-12.67-5.77-20.23-13.15-20.23-19.76,0-17.84,51.53-19.22,67.33-19.22s67.33,1.39,67.33,19.22c0,6.6-7.56,14-20.23,19.76C546.47,292.63,529.74,296,512.81,296Zm0-45c-38.2,0-63.86,6.33-63.86,15.75,0,10.14,27.42,25.78,63.86,25.78s63.86-15.64,63.86-25.78C576.67,257.33,551,251,512.81,251Z" fill="#00d4ff"/><path d="M513.2,286.61c-13.09,0-27-3.07-27-8.77s13.92-8.77,27-8.77,27,3.07,27,8.77S526.3,286.61,513.2,286.61Zm0-15.23c-15.3,0-24.7,3.76-24.7,6.46s9.4,6.46,24.7,6.46,24.7-3.76,24.7-6.46S528.5,271.38,513.2,271.38Z" fill="#00d4ff"/></g><g id="plateSalt"><g id="saltParticle"><polygon points="534.36 281.65 531.69 280.86 531.04 278.16 533.06 276.24 535.73 277.04 536.38 279.74 534.36 281.65" fill="#fff"/><path d="M534.36,282.81a1.16,1.16,0,0,1-.33,0l-2.67-.79a1.16,1.16,0,0,1-.8-.84l-.65-2.71a1.16,1.16,0,0,1,.33-1.11l2-1.91a1.16,1.16,0,0,1,1.12-.27l2.67.79a1.16,1.16,0,0,1,.8.84l.65,2.71a1.16,1.16,0,0,1-.33,1.11l-2,1.91A1.16,1.16,0,0,1,534.36,282.81Zm-1.7-2.87,1.39.41,1-1-.34-1.41-1.39-.41-1,1Z" fill="#f2f2f2"/></g><g id="saltParticle-2" data-name="saltParticle"><polygon points="489.27 268.35 486.56 267.72 485.76 265.05 487.66 263.03 490.37 263.66 491.17 266.32 489.27 268.35" fill="#fff"/><path d="M489.22,269.51l-.22,0-2.71-.64a1.16,1.16,0,0,1-.84-.79l-.8-2.66a1.16,1.16,0,0,1,.26-1.13l1.9-2a1.15,1.15,0,0,1,1.11-.33l2.71.64a1.16,1.16,0,0,1,.84.79l.8,2.66a1.16,1.16,0,0,1-.26,1.13l-1.9,2A1.16,1.16,0,0,1,489.22,269.51Zm-1.75-2.76,1.41.33,1-1.05-.42-1.38L488,264.3l-1,1.05Z" fill="#f2f2f2"/></g><g id="saltParticle-3" data-name="saltParticle"><polygon points="489.02 274.94 486.29 274.42 485.38 271.79 487.2 269.69 489.93 270.21 490.84 272.84 489.02 274.94" fill="#fff"/><path d="M489,276.1l-.22,0-2.73-.52a1.16,1.16,0,0,1-.87-.76l-.91-2.63a1.16,1.16,0,0,1,.22-1.14l1.82-2.1a1.15,1.15,0,0,1,1.09-.38l2.73.52a1.16,1.16,0,0,1,.87.76l.91,2.63a1.16,1.16,0,0,1-.22,1.14l-1.82,2.1A1.16,1.16,0,0,1,489,276.1Zm-1.86-2.69,1.42.27.95-1.09-.47-1.37-1.42-.27-.95,1.09Z" fill="#f2f2f2"/></g><g id="saltParticle-4" data-name="saltParticle"><polygon points="491.43 277.63 488.7 277.1 487.79 274.48 489.61 272.37 492.34 272.9 493.25 275.52 491.43 277.63" fill="#fff"/><path d="M491.43,278.78l-.22,0-2.73-.52a1.16,1.16,0,0,1-.87-.76l-.91-2.63a1.16,1.16,0,0,1,.22-1.14l1.82-2.1a1.15,1.15,0,0,1,1.09-.38l2.73.52a1.16,1.16,0,0,1,.87.76l.91,2.63a1.16,1.16,0,0,1-.22,1.14l-1.82,2.1A1.16,1.16,0,0,1,491.43,278.78Zm-1.86-2.69,1.42.27.95-1.09-.47-1.37-1.42-.27-.95,1.09Z" fill="#f2f2f2"/></g><g id="saltParticle-5" data-name="saltParticle"><polygon points="495.17 279.31 492.44 278.79 491.52 276.16 493.34 274.06 496.07 274.58 496.99 277.21 495.17 279.31" fill="#fff"/><path d="M495.17,280.47l-.22,0-2.73-.52a1.16,1.16,0,0,1-.87-.76l-.91-2.63a1.16,1.16,0,0,1,.22-1.14l1.82-2.1a1.15,1.15,0,0,1,1.09-.38l2.73.52a1.16,1.16,0,0,1,.87.76l.91,2.63a1.16,1.16,0,0,1-.22,1.14l-1.82,2.1A1.16,1.16,0,0,1,495.17,280.47Zm-1.86-2.69,1.42.27.95-1.09-.47-1.37-1.42-.27-.95,1.09Z" fill="#f2f2f2"/></g><g id="saltParticle-6" data-name="saltParticle"><polygon points="499.62 280.49 496.89 279.97 495.98 277.34 497.8 275.24 500.53 275.76 501.44 278.39 499.62 280.49" fill="#fff"/><path d="M499.62,281.65l-.22,0-2.73-.52a1.16,1.16,0,0,1-.87-.76l-.91-2.63a1.16,1.16,0,0,1,.22-1.14l1.82-2.1a1.15,1.15,0,0,1,1.09-.38l2.73.52a1.16,1.16,0,0,1,.87.76l.91,2.63a1.16,1.16,0,0,1-.22,1.14l-1.82,2.1A1.16,1.16,0,0,1,499.62,281.65ZM497.76,279l1.42.27.95-1.09-.47-1.37-1.42-.27-.95,1.09Z" fill="#f2f2f2"/></g><g id="saltParticle-7" data-name="saltParticle"><polygon points="503.75 281.94 501.02 281.42 500.11 278.79 501.93 276.69 504.66 277.21 505.57 279.84 503.75 281.94" fill="#fff"/><path d="M503.75,283.1l-.22,0-2.73-.52a1.16,1.16,0,0,1-.87-.76l-.91-2.63a1.16,1.16,0,0,1,.22-1.14l1.82-2.1a1.15,1.15,0,0,1,1.09-.38l2.73.52a1.16,1.16,0,0,1,.87.76l.91,2.63a1.16,1.16,0,0,1-.22,1.14l-1.82,2.1A1.16,1.16,0,0,1,503.75,283.1Zm-1.86-2.69,1.42.27.95-1.09-.47-1.37-1.42-.27-.95,1.09Z" fill="#f2f2f2"/></g><g id="saltParticle-8" data-name="saltParticle"><polygon points="507.69 281.65 504.95 281.12 504.04 278.5 505.86 276.39 508.59 276.92 509.5 279.55 507.69 281.65" fill="#fff"/><path d="M507.69,282.81l-.22,0-2.73-.52a1.16,1.16,0,0,1-.87-.76l-.91-2.63a1.16,1.16,0,0,1,.22-1.14l1.82-2.1a1.15,1.15,0,0,1,1.09-.38l2.73.52a1.16,1.16,0,0,1,.87.76l.91,2.63a1.16,1.16,0,0,1-.22,1.14l-1.82,2.1A1.16,1.16,0,0,1,507.69,282.81Zm-1.86-2.69,1.42.27.95-1.09-.47-1.37-1.42-.27-.95,1.09Z" fill="#f2f2f2"/></g><g id="saltParticle-9" data-name="saltParticle"><polygon points="512.83 281.06 510.1 280.54 509.19 277.91 511.01 275.8 513.74 276.33 514.65 278.96 512.83 281.06" fill="#fff"/><path d="M512.83,282.22l-.22,0-2.73-.52a1.16,1.16,0,0,1-.87-.76l-.91-2.63a1.16,1.16,0,0,1,.22-1.14l1.82-2.1a1.15,1.15,0,0,1,1.09-.38l2.73.52a1.16,1.16,0,0,1,.87.76l.91,2.63a1.16,1.16,0,0,1-.22,1.14l-1.82,2.1A1.16,1.16,0,0,1,512.83,282.22ZM511,279.53l1.42.27.95-1.09-.47-1.37-1.42-.27-.95,1.09Z" fill="#f2f2f2"/></g><g id="saltParticle-10" data-name="saltParticle"><polygon points="518.72 279.55 515.99 279.03 515.08 276.4 516.9 274.3 519.63 274.82 520.54 277.45 518.72 279.55" fill="#fff"/><path d="M518.72,280.71l-.22,0-2.73-.52a1.16,1.16,0,0,1-.87-.76l-.91-2.63a1.16,1.16,0,0,1,.22-1.14l1.82-2.1a1.15,1.15,0,0,1,1.09-.38l2.73.52a1.16,1.16,0,0,1,.87.76l.91,2.63a1.16,1.16,0,0,1-.22,1.14l-1.82,2.1A1.16,1.16,0,0,1,518.72,280.71ZM516.86,278l1.42.27.95-1.09-.47-1.37-1.42-.27-.95,1.09Z" fill="#f2f2f2"/></g><g id="saltParticle-11" data-name="saltParticle"><polygon points="525.19 279.14 522.46 278.61 521.54 275.99 523.36 273.88 526.1 274.41 527.01 277.04 525.19 279.14" fill="#fff"/><path d="M525.19,280.29l-.22,0-2.73-.52a1.16,1.16,0,0,1-.87-.76l-.91-2.63a1.16,1.16,0,0,1,.22-1.14l1.82-2.1a1.15,1.15,0,0,1,1.09-.38l2.73.52a1.16,1.16,0,0,1,.87.76l.91,2.63a1.16,1.16,0,0,1-.22,1.14l-1.82,2.1A1.16,1.16,0,0,1,525.19,280.29Zm-1.86-2.69,1.42.27.95-1.09-.47-1.37-1.42-.27-.95,1.09Z" fill="#f2f2f2"/></g><g id="saltParticle-12" data-name="saltParticle"><polygon points="530.8 277.57 528.07 277.04 527.16 274.42 528.98 272.31 531.71 272.84 532.62 275.46 530.8 277.57" fill="#fff"/><path d="M530.8,278.72l-.22,0-2.73-.52a1.16,1.16,0,0,1-.87-.76l-.91-2.63a1.16,1.16,0,0,1,.22-1.14l1.82-2.1a1.15,1.15,0,0,1,1.09-.38l2.73.52a1.16,1.16,0,0,1,.87.76l.91,2.63a1.16,1.16,0,0,1-.22,1.14l-1.82,2.1A1.16,1.16,0,0,1,530.8,278.72ZM528.94,276l1.42.27.95-1.09-.47-1.37-1.42-.27-.95,1.09Z" fill="#f2f2f2"/></g><g id="saltParticle-13" data-name="saltParticle"><polygon points="528.86 273.78 526.13 273.26 525.22 270.63 527.04 268.53 529.77 269.05 530.68 271.68 528.86 273.78" fill="#fff"/><path d="M528.86,274.94l-.22,0-2.73-.52a1.16,1.16,0,0,1-.87-.76l-.91-2.63a1.16,1.16,0,0,1,.22-1.14l1.82-2.1a1.15,1.15,0,0,1,1.09-.38l2.73.52a1.16,1.16,0,0,1,.87.76l.91,2.63a1.16,1.16,0,0,1-.22,1.14l-1.82,2.1A1.16,1.16,0,0,1,528.86,274.94ZM527,272.25l1.42.27.95-1.09-.47-1.37-1.42-.27-.95,1.09Z" fill="#f2f2f2"/></g><g id="saltParticle-14" data-name="saltParticle"><polygon points="523.27 274.95 520.54 274.43 519.63 271.8 521.45 269.7 524.18 270.22 525.09 272.85 523.27 274.95" fill="#fff"/><path d="M523.27,276.11l-.22,0-2.73-.52a1.16,1.16,0,0,1-.87-.76l-.91-2.63a1.16,1.16,0,0,1,.22-1.14l1.82-2.1a1.15,1.15,0,0,1,1.09-.38l2.73.52a1.16,1.16,0,0,1,.87.76l.91,2.63a1.16,1.16,0,0,1-.22,1.14l-1.82,2.1A1.16,1.16,0,0,1,523.27,276.11Zm-1.86-2.69,1.42.27.95-1.09-.47-1.37-1.42-.27-.95,1.09Z" fill="#f2f2f2"/></g><g id="saltParticle-15" data-name="saltParticle"><polygon points="517.1 275.01 514.37 274.48 513.46 271.86 515.28 269.75 518.01 270.28 518.92 272.9 517.1 275.01" fill="#fff"/><path d="M517.1,276.17l-.22,0-2.73-.52a1.16,1.16,0,0,1-.87-.76l-.91-2.63a1.16,1.16,0,0,1,.22-1.14l1.82-2.1a1.15,1.15,0,0,1,1.09-.38l2.73.52a1.16,1.16,0,0,1,.87.76l.91,2.63a1.16,1.16,0,0,1-.22,1.14l-1.82,2.1A1.16,1.16,0,0,1,517.1,276.17Zm-1.86-2.69,1.42.27.95-1.09-.47-1.37-1.42-.27-.95,1.09Z" fill="#f2f2f2"/></g><g id="saltParticle-16" data-name="saltParticle"><polygon points="511.53 275.31 508.8 274.79 507.89 272.16 509.71 270.06 512.44 270.58 513.35 273.21 511.53 275.31" fill="#fff"/><path d="M511.53,276.47l-.22,0-2.73-.52a1.16,1.16,0,0,1-.87-.76l-.91-2.63a1.16,1.16,0,0,1,.22-1.14l1.82-2.1a1.15,1.15,0,0,1,1.09-.38l2.73.52a1.16,1.16,0,0,1,.87.76l.91,2.63a1.16,1.16,0,0,1-.22,1.14l-1.82,2.1A1.16,1.16,0,0,1,511.53,276.47Zm-1.86-2.69,1.42.27L512,273l-.47-1.37-1.42-.27-.95,1.09Z" fill="#f2f2f2"/></g><g id="saltParticle-17" data-name="saltParticle"><polygon points="507.15 277.1 504.42 276.58 503.51 273.95 505.33 271.85 508.06 272.37 508.97 275 507.15 277.1" fill="#fff"/><path d="M507.15,278.26l-.22,0-2.73-.52a1.16,1.16,0,0,1-.87-.76l-.91-2.63a1.16,1.16,0,0,1,.22-1.14l1.82-2.1a1.15,1.15,0,0,1,1.09-.38l2.73.52a1.16,1.16,0,0,1,.87.76l.91,2.63a1.16,1.16,0,0,1-.22,1.14l-1.82,2.1A1.16,1.16,0,0,1,507.15,278.26Zm-1.86-2.69,1.42.27.95-1.09-.47-1.37-1.42-.27-.95,1.09Z" fill="#f2f2f2"/></g><g id="saltParticle-18" data-name="saltParticle"><polygon points="503.02 275.65 500.29 275.13 499.38 272.5 501.2 270.39 503.93 270.92 504.84 273.55 503.02 275.65" fill="#fff"/><path d="M503,276.81l-.22,0-2.73-.52a1.16,1.16,0,0,1-.87-.76l-.91-2.63a1.16,1.16,0,0,1,.22-1.14l1.82-2.1a1.15,1.15,0,0,1,1.09-.38l2.73.52a1.16,1.16,0,0,1,.87.76l.91,2.63a1.16,1.16,0,0,1-.22,1.14l-1.82,2.1A1.16,1.16,0,0,1,503,276.81Zm-1.86-2.69,1.42.27.95-1.09-.47-1.37-1.42-.27-.95,1.09Z" fill="#f2f2f2"/></g><g id="saltParticle-19" data-name="saltParticle"><polygon points="497.29 274.54 494.56 274.01 493.65 271.38 495.47 269.28 498.2 269.8 499.11 272.43 497.29 274.54" fill="#fff"/><path d="M497.29,275.69l-.22,0-2.73-.52a1.16,1.16,0,0,1-.87-.76l-.91-2.63a1.16,1.16,0,0,1,.22-1.14l1.82-2.1a1.15,1.15,0,0,1,1.09-.38l2.73.52a1.16,1.16,0,0,1,.87.76l.91,2.63a1.16,1.16,0,0,1-.22,1.14l-1.82,2.1A1.16,1.16,0,0,1,497.29,275.69ZM495.44,273l1.42.27.95-1.09-.47-1.37-1.42-.27-.95,1.09Z" fill="#f2f2f2"/></g><g id="saltParticle-20" data-name="saltParticle"><polygon points="494.63 272.16 491.9 271.64 490.99 269.01 492.81 266.9 495.54 267.43 496.45 270.06 494.63 272.16" fill="#fff"/><path d="M494.63,273.32l-.22,0-2.73-.52a1.16,1.16,0,0,1-.87-.76l-.91-2.63a1.16,1.16,0,0,1,.22-1.14l1.82-2.1a1.15,1.15,0,0,1,1.09-.38l2.73.52a1.16,1.16,0,0,1,.87.76l.91,2.63a1.16,1.16,0,0,1-.22,1.14l-1.82,2.1A1.16,1.16,0,0,1,494.63,273.32Zm-1.86-2.69,1.42.27.95-1.09-.47-1.37-1.42-.27-.95,1.09Z" fill="#f2f2f2"/></g><g id="saltParticle-21" data-name="saltParticle"><polygon points="496.51 268.53 493.78 268 492.87 265.38 494.69 263.27 497.42 263.8 498.33 266.43 496.51 268.53" fill="#fff"/><path d="M496.51,269.68l-.22,0-2.73-.52a1.16,1.16,0,0,1-.87-.76l-.91-2.63a1.16,1.16,0,0,1,.22-1.14l1.82-2.1a1.15,1.15,0,0,1,1.09-.38l2.73.52a1.16,1.16,0,0,1,.87.76l.91,2.63a1.16,1.16,0,0,1-.22,1.14l-1.82,2.1A1.16,1.16,0,0,1,496.51,269.68ZM494.66,267l1.42.27.95-1.09-.47-1.37-1.42-.27-.95,1.09Z" fill="#f2f2f2"/></g><g id="saltParticle-22" data-name="saltParticle"><polygon points="501.3 270.74 498.56 270.21 497.65 267.58 499.47 265.48 502.2 266 503.12 268.63 501.3 270.74" fill="#fff"/><path d="M501.3,271.89l-.22,0-2.73-.52a1.16,1.16,0,0,1-.87-.76l-.91-2.63a1.16,1.16,0,0,1,.22-1.14l1.82-2.1a1.15,1.15,0,0,1,1.09-.38l2.73.52a1.16,1.16,0,0,1,.87.76l.91,2.63a1.16,1.16,0,0,1-.22,1.14l-1.82,2.1A1.16,1.16,0,0,1,501.3,271.89Zm-1.86-2.69,1.42.27.95-1.09-.47-1.37-1.42-.27-.95,1.09Z" fill="#f2f2f2"/></g><g id="saltParticle-23" data-name="saltParticle"><polygon points="507.69 271.87 504.95 271.34 504.04 268.71 505.86 266.61 508.59 267.13 509.5 269.76 507.69 271.87" fill="#fff"/><path d="M507.69,273l-.22,0-2.73-.52a1.16,1.16,0,0,1-.87-.76l-.91-2.63a1.16,1.16,0,0,1,.22-1.14l1.82-2.1a1.15,1.15,0,0,1,1.09-.38l2.73.52a1.16,1.16,0,0,1,.87.76l.91,2.63a1.16,1.16,0,0,1-.22,1.14l-1.82,2.1A1.16,1.16,0,0,1,507.69,273Zm-1.86-2.69,1.42.27.95-1.09-.47-1.37-1.42-.27-.95,1.09Z" fill="#f2f2f2"/></g><g id="saltParticle-24" data-name="saltParticle"><polygon points="513.21 270.85 510.48 270.32 509.57 267.7 511.39 265.59 514.12 266.12 515.03 268.75 513.21 270.85" fill="#fff"/><path d="M513.21,272l-.22,0-2.73-.52a1.16,1.16,0,0,1-.87-.76l-.91-2.63a1.16,1.16,0,0,1,.22-1.14l1.82-2.1a1.15,1.15,0,0,1,1.09-.38l2.73.52a1.16,1.16,0,0,1,.87.76l.91,2.63a1.16,1.16,0,0,1-.22,1.14l-1.82,2.1A1.16,1.16,0,0,1,513.21,272Zm-1.86-2.69,1.42.27.95-1.09-.47-1.37-1.42-.27-.95,1.09Z" fill="#f2f2f2"/></g><g id="saltParticle-25" data-name="saltParticle"><polygon points="519.54 271.16 516.81 270.63 515.9 268.01 517.72 265.9 520.45 266.43 521.36 269.06 519.54 271.16" fill="#fff"/><path d="M519.54,272.32l-.22,0-2.73-.52a1.16,1.16,0,0,1-.87-.76l-.91-2.63a1.16,1.16,0,0,1,.22-1.14l1.82-2.1a1.15,1.15,0,0,1,1.09-.38l2.73.52a1.16,1.16,0,0,1,.87.76l.91,2.63a1.16,1.16,0,0,1-.22,1.14l-1.82,2.1A1.16,1.16,0,0,1,519.54,272.32Zm-1.86-2.69,1.42.27.95-1.09-.47-1.37-1.42-.27-.95,1.09Z" fill="#f2f2f2"/></g><g id="saltParticle-26" data-name="saltParticle"><polygon points="525.71 271.11 522.98 270.58 522.06 267.95 523.88 265.85 526.62 266.37 527.53 269 525.71 271.11" fill="#fff"/><path d="M525.71,272.26l-.22,0-2.73-.52a1.16,1.16,0,0,1-.87-.76l-.91-2.63a1.16,1.16,0,0,1,.22-1.14l1.82-2.1a1.15,1.15,0,0,1,1.09-.38l2.73.52a1.16,1.16,0,0,1,.87.76l.91,2.63a1.16,1.16,0,0,1-.22,1.14l-1.82,2.1A1.16,1.16,0,0,1,525.71,272.26Zm-1.86-2.69,1.42.27.95-1.09-.47-1.37-1.42-.27-.95,1.09Z" fill="#f2f2f2"/></g><g id="saltParticle-27" data-name="saltParticle"><polygon points="529.45 268.58 526.72 268.05 525.8 265.42 527.62 263.32 530.35 263.85 531.26 266.47 529.45 268.58" fill="#fff"/><path d="M529.45,269.73l-.22,0-2.73-.52a1.16,1.16,0,0,1-.87-.76l-.91-2.63a1.16,1.16,0,0,1,.22-1.14l1.82-2.1a1.15,1.15,0,0,1,1.09-.38l2.73.52a1.16,1.16,0,0,1,.87.76l.91,2.63a1.16,1.16,0,0,1-.22,1.14l-1.82,2.1A1.16,1.16,0,0,1,529.45,269.73ZM527.59,267l1.42.27.95-1.09-.47-1.37-1.42-.27-.95,1.09Z" fill="#f2f2f2"/></g><g id="saltParticle-28" data-name="saltParticle"><polygon points="524.97 265.65 522.24 265.13 521.33 262.5 523.15 260.4 525.88 260.92 526.79 263.55 524.97 265.65" fill="#fff"/><path d="M525,266.81l-.22,0-2.73-.52a1.16,1.16,0,0,1-.87-.76l-.91-2.63a1.16,1.16,0,0,1,.22-1.14l1.82-2.1a1.15,1.15,0,0,1,1.09-.38l2.73.52a1.16,1.16,0,0,1,.87.76l.91,2.63a1.16,1.16,0,0,1-.22,1.14l-1.82,2.1A1.16,1.16,0,0,1,525,266.81Zm-1.86-2.69,1.42.27.95-1.09-.47-1.37-1.42-.27-.95,1.09Z" fill="#f2f2f2"/></g><g id="saltParticle-29" data-name="saltParticle"><polygon points="519.79 266.3 517.06 265.78 516.15 263.15 517.97 261.05 520.7 261.57 521.61 264.2 519.79 266.3" fill="#fff"/><path d="M519.79,267.46l-.22,0-2.73-.52a1.16,1.16,0,0,1-.87-.76l-.91-2.63a1.16,1.16,0,0,1,.22-1.14l1.82-2.1a1.15,1.15,0,0,1,1.09-.38l2.73.52a1.16,1.16,0,0,1,.87.76l.91,2.63a1.16,1.16,0,0,1-.22,1.14l-1.82,2.1A1.16,1.16,0,0,1,519.79,267.46Zm-1.86-2.69,1.42.27.95-1.09-.47-1.37-1.42-.27-.95,1.09Z" fill="#f2f2f2"/></g><g id="saltParticle-30" data-name="saltParticle"><polygon points="513.25 267.13 510.52 266.6 509.6 263.98 511.42 261.87 514.15 262.4 515.07 265.02 513.25 267.13" fill="#fff"/><path d="M513.25,268.28l-.22,0-2.73-.52a1.16,1.16,0,0,1-.87-.76l-.91-2.63a1.16,1.16,0,0,1,.22-1.14l1.82-2.1a1.15,1.15,0,0,1,1.09-.38l2.73.52a1.16,1.16,0,0,1,.87.76l.91,2.63a1.16,1.16,0,0,1-.22,1.14l-1.82,2.1A1.16,1.16,0,0,1,513.25,268.28Zm-1.86-2.69,1.42.27.95-1.09-.47-1.37-1.42-.27-.95,1.09Z" fill="#f2f2f2"/></g><g id="saltParticle-31" data-name="saltParticle"><polygon points="511.57 264.54 508.84 264.02 507.93 261.39 509.75 259.29 512.48 259.81 513.39 262.44 511.57 264.54" fill="#fff"/><path d="M511.57,265.7l-.22,0-2.73-.52a1.16,1.16,0,0,1-.87-.76l-.91-2.63a1.16,1.16,0,0,1,.22-1.14l1.82-2.1a1.15,1.15,0,0,1,1.09-.38l2.73.52a1.16,1.16,0,0,1,.87.76l.91,2.63a1.16,1.16,0,0,1-.22,1.14l-1.82,2.1A1.16,1.16,0,0,1,511.57,265.7ZM509.72,263l1.42.27.95-1.09-.47-1.37-1.42-.27-.95,1.09Z" fill="#f2f2f2"/></g><g id="saltParticle-32" data-name="saltParticle"><polygon points="506.85 267.39 504.11 266.86 503.2 264.24 505.02 262.13 507.75 262.66 508.66 265.28 506.85 267.39" fill="#fff"/><path d="M506.85,268.54l-.22,0L503.9,268a1.16,1.16,0,0,1-.87-.76l-.91-2.63a1.16,1.16,0,0,1,.22-1.14l1.82-2.1a1.15,1.15,0,0,1,1.09-.38l2.73.52a1.16,1.16,0,0,1,.87.76l.91,2.63a1.16,1.16,0,0,1-.22,1.14l-1.82,2.1A1.16,1.16,0,0,1,506.85,268.54ZM505,265.85l1.42.27.95-1.09-.47-1.37-1.42-.27-.95,1.09Z" fill="#f2f2f2"/></g><g id="saltParticle-33" data-name="saltParticle"><polygon points="502.06 265.18 499.33 264.65 498.42 262.03 500.24 259.92 502.97 260.45 503.88 263.07 502.06 265.18" fill="#fff"/><path d="M502.06,266.33l-.22,0-2.73-.52a1.16,1.16,0,0,1-.87-.76l-.91-2.63a1.16,1.16,0,0,1,.22-1.14l1.82-2.1a1.15,1.15,0,0,1,1.09-.38l2.73.52a1.16,1.16,0,0,1,.87.76l.91,2.63a1.16,1.16,0,0,1-.22,1.14l-1.82,2.1A1.16,1.16,0,0,1,502.06,266.33Zm-1.86-2.69,1.42.27.95-1.09-.47-1.37-1.42-.27-.95,1.09Z" fill="#f2f2f2"/></g><g id="saltParticle-34" data-name="saltParticle"><polygon points="526.86 283.34 525.43 280.95 526.78 278.52 529.56 278.47 530.99 280.86 529.64 283.29 526.86 283.34" fill="#fff"/><path d="M526.86,284.49a1.16,1.16,0,0,1-1-.56l-1.43-2.38a1.16,1.16,0,0,1,0-1.16l1.35-2.43a1.16,1.16,0,0,1,1-.6l2.78,0a1.17,1.17,0,0,1,1,.56l1.43,2.38a1.16,1.16,0,0,1,0,1.16l-1.35,2.43a1.16,1.16,0,0,1-1,.6l-2.78,0Zm-.1-3.56.74,1.24,1.45,0,.7-1.26-.74-1.24-1.44,0Z" fill="#f2f2f2"/></g><g id="saltParticle-35" data-name="saltParticle"><polygon points="511.24 287.14 508.58 286.35 507.93 283.64 509.95 281.73 512.62 282.52 513.26 285.23 511.24 287.14" fill="#fff"/><path d="M511.24,288.3a1.16,1.16,0,0,1-.33,0l-2.67-.79a1.16,1.16,0,0,1-.8-.84l-.65-2.71a1.16,1.16,0,0,1,.33-1.11l2-1.91a1.16,1.16,0,0,1,1.12-.27l2.67.79a1.16,1.16,0,0,1,.8.84l.65,2.71a1.16,1.16,0,0,1-.33,1.11L512,288A1.16,1.16,0,0,1,511.24,288.3Zm-1.7-2.87,1.39.41,1-1-.34-1.41-1.39-.41-1,1Z" fill="#f2f2f2"/></g><g id="saltParticle-36" data-name="saltParticle"><polygon points="500.4 285.43 497.67 284.91 496.76 282.28 498.58 280.18 501.31 280.7 502.22 283.33 500.4 285.43" fill="#fff"/><path d="M500.4,286.59l-.22,0-2.73-.52a1.16,1.16,0,0,1-.87-.76l-.91-2.63a1.16,1.16,0,0,1,.22-1.14l1.82-2.1a1.15,1.15,0,0,1,1.09-.38l2.73.52a1.16,1.16,0,0,1,.87.76l.91,2.63a1.16,1.16,0,0,1-.22,1.14l-1.82,2.1A1.16,1.16,0,0,1,500.4,286.59Zm-1.86-2.69,1.42.27.95-1.09-.47-1.37-1.42-.27-.95,1.09Z" fill="#f2f2f2"/></g><g id="saltParticle-37" data-name="saltParticle"><polygon points="515.28 285 512.64 284.15 512.05 281.43 514.12 279.56 516.76 280.42 517.35 283.14 515.28 285" fill="#fff"/><path d="M515.28,286.16a1.17,1.17,0,0,1-.36-.06l-2.65-.86a1.16,1.16,0,0,1-.78-.86l-.58-2.72a1.16,1.16,0,0,1,.36-1.1l2.06-1.86a1.16,1.16,0,0,1,1.13-.24l2.65.86a1.16,1.16,0,0,1,.78.86l.58,2.72a1.16,1.16,0,0,1-.36,1.1l-2.06,1.86A1.16,1.16,0,0,1,515.28,286.16Zm-1.65-2.91,1.38.44,1.07-1-.3-1.41-1.38-.44-1.07,1Z" fill="#f2f2f2"/></g><g id="saltParticle-38" data-name="saltParticle"><polygon points="523.89 281.75 521.57 283.28 519.08 282.03 518.92 279.26 521.24 277.73 523.73 278.98 523.89 281.75" fill="#fff"/><path d="M521.57,284.44a1.16,1.16,0,0,1-.52-.12l-2.49-1.25a1.16,1.16,0,0,1-.64-1l-.16-2.78a1.16,1.16,0,0,1,.52-1l2.32-1.53a1.16,1.16,0,0,1,1.15-.07l2.49,1.25a1.15,1.15,0,0,1,.64,1l.16,2.78a1.16,1.16,0,0,1-.52,1l-2.32,1.53A1.15,1.15,0,0,1,521.57,284.44Zm-1.37-3.14,1.29.65,1.21-.79-.08-1.44-1.29-.65-1.21.8Z" fill="#f2f2f2"/></g><g id="saltParticle-39" data-name="saltParticle"><polygon points="503.74 287.04 502.31 284.65 503.66 282.22 506.44 282.17 507.88 284.56 506.52 286.99 503.74 287.04" fill="#fff"/><path d="M503.74,288.19a1.16,1.16,0,0,1-1-.56l-1.43-2.38a1.16,1.16,0,0,1,0-1.16l1.35-2.43a1.16,1.16,0,0,1,1-.6l2.78,0a1.17,1.17,0,0,1,1,.56l1.43,2.38a1.16,1.16,0,0,1,0,1.16l-1.35,2.43a1.16,1.16,0,0,1-1,.6l-2.78,0Zm-.1-3.56.74,1.24,1.45,0,.7-1.26-.74-1.24-1.44,0Z" fill="#f2f2f2"/></g><g id="saltParticle-40" data-name="saltParticle"><polygon points="488.1 282.29 486.35 280.12 487.35 277.53 490.1 277.09 491.85 279.26 490.85 281.85 488.1 282.29" fill="#fff"/><path d="M487.45,283.24a1.16,1.16,0,0,1-.24-.23l-1.75-2.16a1.16,1.16,0,0,1-.18-1.14l1-2.6a1.16,1.16,0,0,1,.9-.73l2.75-.43a1.16,1.16,0,0,1,1.08.42l1.75,2.16a1.16,1.16,0,0,1,.18,1.14l-1,2.6a1.16,1.16,0,0,1-.9.73l-2.75.43A1.16,1.16,0,0,1,487.45,283.24Zm.23-3.32.91,1.12,1.43-.23.52-1.35-.91-1.12-1.43.23Z" fill="#f2f2f2"/></g><g id="saltParticle-41" data-name="saltParticle"><polygon points="492.64 282.81 490.94 280.61 492 278.03 494.76 277.67 496.46 279.87 495.4 282.44 492.64 282.81" fill="#fff"/><path d="M492,283.76a1.17,1.17,0,0,1-.26-.25l-1.7-2.2a1.16,1.16,0,0,1-.15-1.15l1.06-2.57a1.16,1.16,0,0,1,.92-.71l2.76-.37a1.16,1.16,0,0,1,1.07.44l1.7,2.2a1.16,1.16,0,0,1,.15,1.15l-1.06,2.57a1.16,1.16,0,0,1-.92.71l-2.76.37A1.16,1.16,0,0,1,492,283.76Zm.28-3.33.88,1.15,1.43-.19.55-1.34-.88-1.15-1.43.19Z" fill="#f2f2f2"/></g></g><g id="strokeTopBottom"><path d="M557.15,379.51c0,13.53-27.45,25-60,25-14.77,0-29-2.31-40-6.51a5.5,5.5,0,0,0-.82-.23l-.23,0c-.25,0-.52-.08-.8-.1l-.22,0c-.34,0-.71,0-1.09,0h-.44l-.89,0-.46,0c-2.06.15-4.61.5-7.73,1l-2,.29c-1.9.27-3.75.51-5.3.62a14.92,14.92,0,0,1-2.89,0v0h0l.1-.17.14-.23.13-.2.19-.27.16-.21.22-.29.18-.23.23-.3.18-.23.25-.31.13-.16,1.11-1.31c2.71-3.17,5-5.92,3.28-8a13,13,0,0,1-3.28-7,10,10,0,0,1-.05-1h-3.46a15.62,15.62,0,0,0,3.85,9.92,26.27,26.27,0,0,1-3,3.89c-2.68,3.14-4.3,5.16-4,7.08a2.65,2.65,0,0,0,1.21,1.86,3.65,3.65,0,0,0,.56.28l.22.09a5.12,5.12,0,0,0,.58.17l.4.07.4.05.6.05.65,0h.7a81.78,81.78,0,0,0,9-1l1-.15.42-.06.62-.09,1-.14.3,0,.72-.09.17,0,1.13-.14.51-.06.39,0a16,16,0,0,1,4.47,0l.23.07c11.44,4.34,26.1,6.73,41.28,6.73,35.56,0,63.41-12.49,63.41-28.42Z" fill="#00d4ff"/></g></g><g id="circle-2"><g id="c-2-bg"><circle cx="741.51" cy="382.22" r="155" fill="#fff"/></g><g id="c-2-mol"><g id="c-3-H20"><circle cx="754.16" cy="263.05" r="13.9" transform="translate(319.44 933.1) rotate(-76.25)" fill="url(#radial-gradient)"/><circle cx="754" cy="245" r="7.22" transform="translate(336.84 919.19) rotate(-76.25)" fill="url(#radial-gradient-2)"/><circle cx="735.93" cy="258.11" r="7.22" transform="translate(310.33 911.63) rotate(-76.25)" fill="url(#radial-gradient-3)"/><path d="M755.51,258.13a6.1,6.1,0,0,1,3.74,2.3,4.73,4.73,0,0,1,.59,4,4.79,4.79,0,0,1-2.35,3.31,6.15,6.15,0,0,1-4.42.29,6.07,6.07,0,0,1-3.76-2.29,4.82,4.82,0,0,1-.55-4,4.72,4.72,0,0,1,2.36-3.26A6.1,6.1,0,0,1,755.51,258.13Zm-2.1,8.58a5.26,5.26,0,0,0,3.55-.12,3.92,3.92,0,0,0,1.33-5.41,6.65,6.65,0,0,0-6.62-1.62,3.35,3.35,0,0,0-1.78,2.42,3.42,3.42,0,0,0,.46,3A5.21,5.21,0,0,0,753.41,266.71Z" fill="#fff"/><circle cx="628.57" cy="339.01" r="13.9" transform="translate(-81.5 262.65) rotate(-22.2)" fill="url(#radial-gradient-4)"/><circle cx="617.84" cy="324.5" r="7.22" transform="translate(-76.81 257.52) rotate(-22.2)" fill="url(#radial-gradient-5)"/><circle cx="610.91" cy="345.72" r="7.22" transform="translate(-85.34 256.47) rotate(-22.2)" fill="url(#radial-gradient-6)"/><path d="M626.77,334.24a6.1,6.1,0,0,1,4.38-.34,4.73,4.73,0,0,1,2.82,2.89,4.79,4.79,0,0,1,0,4.06,6.15,6.15,0,0,1-3.41,2.83,6.07,6.07,0,0,1-4.39.35,4.82,4.82,0,0,1-2.81-2.95,4.72,4.72,0,0,1,0-4A6.1,6.1,0,0,1,626.77,334.24Zm3.34,8.18a5.26,5.26,0,0,0,2.8-2.18,3.92,3.92,0,0,0-2.1-5.16,6.65,6.65,0,0,0-6.31,2.57,3.35,3.35,0,0,0,0,3,3.42,3.42,0,0,0,2.14,2.15A5.21,5.21,0,0,0,630.11,342.42Z" fill="#fff"/><circle cx="649.84" cy="291.91" r="13.9" transform="translate(-62.42 305.46) rotate(-25.28)" fill="url(#radial-gradient-7)"/><circle cx="635.93" cy="303.4" r="7.22" transform="translate(-68.66 300.62) rotate(-25.28)" fill="url(#radial-gradient-8)"/><circle cx="657.49" cy="309.19" r="7.22" transform="translate(-69.07 310.38) rotate(-25.28)" fill="url(#radial-gradient-9)"/><path d="M645.17,294a6.1,6.1,0,0,1-.57-4.36,4.73,4.73,0,0,1,2.73-3,4.79,4.79,0,0,1,4.06-.26,6.15,6.15,0,0,1,3,3.25A6.07,6.07,0,0,1,655,294a4.82,4.82,0,0,1-2.79,3,4.72,4.72,0,0,1-4,.22A6.1,6.1,0,0,1,645.17,294Zm8-3.77a5.26,5.26,0,0,0-2.33-2.68,3.92,3.92,0,0,0-5,2.37,6.65,6.65,0,0,0,2.91,6.16,3.35,3.35,0,0,0,3-.14,3.42,3.42,0,0,0,2-2.25A5.21,5.21,0,0,0,653.16,290.19Z" fill="#fff"/><circle cx="690.48" cy="267.84" r="13.9" transform="translate(266.24 874.89) rotate(-76.25)" fill="url(#radial-gradient-10)"/><circle cx="690.64" cy="285.88" r="7.22" transform="translate(248.83 888.81) rotate(-76.25)" fill="url(#radial-gradient-11)"/><circle cx="708.71" cy="272.78" r="7.22" transform="translate(275.34 896.37) rotate(-76.25)" fill="url(#radial-gradient-12)"/><path d="M689.13,272.75a6.1,6.1,0,0,1-3.74-2.3,4.73,4.73,0,0,1-.59-4,4.79,4.79,0,0,1,2.35-3.31,6.15,6.15,0,0,1,4.42-.29,6.07,6.07,0,0,1,3.76,2.29,4.82,4.82,0,0,1,.55,4,4.72,4.72,0,0,1-2.36,3.26A6.1,6.1,0,0,1,689.13,272.75Zm2.1-8.58a5.26,5.26,0,0,0-3.55.12,3.92,3.92,0,0,0-1.33,5.41,6.65,6.65,0,0,0,6.62,1.62,3.35,3.35,0,0,0,1.78-2.42,3.42,3.42,0,0,0-.46-3A5.21,5.21,0,0,0,691.23,264.18Z" fill="#fff"/><circle cx="692.79" cy="320.9" r="13.9" transform="translate(-69.89 285.57) rotate(-22.2)" fill="url(#radial-gradient-13)"/><circle cx="703.51" cy="335.42" r="7.22" transform="translate(-74.58 290.7) rotate(-22.2)" fill="url(#radial-gradient-14)"/><circle cx="710.45" cy="314.2" r="7.22" transform="translate(-66.05 291.74) rotate(-22.2)" fill="url(#radial-gradient-15)"/><path d="M694.58,325.67a6.1,6.1,0,0,1-4.38.34,4.73,4.73,0,0,1-2.82-2.89,4.79,4.79,0,0,1,0-4.06,6.15,6.15,0,0,1,3.41-2.83,6.07,6.07,0,0,1,4.39-.35,4.82,4.82,0,0,1,2.81,2.95,4.72,4.72,0,0,1,0,4A6.1,6.1,0,0,1,694.58,325.67Zm-3.34-8.18a5.26,5.26,0,0,0-2.8,2.18,3.92,3.92,0,0,0,2.1,5.16,6.65,6.65,0,0,0,6.31-2.57,3.35,3.35,0,0,0,0-3,3.42,3.42,0,0,0-2.14-2.15A5.21,5.21,0,0,0,691.25,317.5Z" fill="#fff"/><circle cx="796.33" cy="272.17" r="13.9" transform="translate(-39.97 366.12) rotate(-25.28)" fill="url(#radial-gradient-16)"/><circle cx="810.25" cy="260.68" r="7.22" transform="translate(-33.73 370.97) rotate(-25.28)" fill="url(#radial-gradient-17)"/><circle cx="788.69" cy="254.9" r="7.22" transform="translate(-33.32 361.21) rotate(-25.28)" fill="url(#radial-gradient-18)"/><path d="M801,270.12a6.1,6.1,0,0,1,.57,4.36,4.73,4.73,0,0,1-2.73,3,4.79,4.79,0,0,1-4.06.26,6.15,6.15,0,0,1-3-3.25,6.07,6.07,0,0,1-.59-4.36,4.82,4.82,0,0,1,2.79-3,4.72,4.72,0,0,1,4-.22A6.1,6.1,0,0,1,801,270.12Zm-8,3.77a5.26,5.26,0,0,0,2.33,2.68,3.92,3.92,0,0,0,5-2.37,6.65,6.65,0,0,0-2.91-6.16,3.35,3.35,0,0,0-3,.14,3.42,3.42,0,0,0-2,2.25A5.21,5.21,0,0,0,793,273.89Z" fill="#fff"/></g><g id="c-3-Cl2Ba"><circle cx="728.71" cy="402.68" r="27" transform="translate(146.3 997.64) rotate(-74.54)" fill="url(#radial-gradient-19)"/><path d="M721.34,393.9l3.64,1a7.13,7.13,0,0,1,3.5,1.8,2.81,2.81,0,0,1,.48,2.74,2.91,2.91,0,0,1-1.16,1.72,3.2,3.2,0,0,1-2.13.45l0,.09q2.8,1.32,2.08,3.9a3.44,3.44,0,0,1-1.92,2.38,5.16,5.16,0,0,1-3.54.07l-4.5-1.25Zm0,5.94,2.47.68a4.17,4.17,0,0,0,2.42.13,2,2,0,0,0,1.16-1.49,1.77,1.77,0,0,0-.34-1.78,5,5,0,0,0-2.34-1.16l-2.21-.61Zm-.35,1.27-1.34,4.83,2.69.74a4,4,0,0,0,2.52,0,2.32,2.32,0,0,0,1.31-1.67,2.08,2.08,0,0,0-.32-2,4.48,4.48,0,0,0-2.3-1.24Z" fill="#fff"/><path d="M735.21,411.62l.09-1.46-.07,0a4.22,4.22,0,0,1-1.78.83,4.57,4.57,0,0,1-1.88-.17,3.35,3.35,0,0,1-2-1.36,2.81,2.81,0,0,1-.23-2.33q.81-2.93,5.53-1.77l1.66.4.17-.6a2.54,2.54,0,0,0,0-1.82,2.09,2.09,0,0,0-1.42-1,6.62,6.62,0,0,0-2.94,0l-.14-1.25a7.13,7.13,0,0,1,1.73-.18,7,7,0,0,1,1.77.25,3.82,3.82,0,0,1,2.35,1.48,3.32,3.32,0,0,1,.15,2.69l-1.83,6.6Zm-3-1.95a3.08,3.08,0,0,0,2.36-.16,2.88,2.88,0,0,0,1.36-1.88l.24-.87-1.48-.34a5.53,5.53,0,0,0-2.67-.15,1.7,1.7,0,0,0-1.19,1.28,1.57,1.57,0,0,0,.15,1.34A2.07,2.07,0,0,0,732.19,409.68Z" fill="#fff"/><circle cx="668.18" cy="421.21" r="30" transform="translate(84.05 952.89) rotate(-74.54)" fill="url(#radial-gradient-20)"/><path d="M669,415.33a4.86,4.86,0,0,0-4.17.54,6.59,6.59,0,0,0-2.56,3.93,6.72,6.72,0,0,0,.12,4.71,4.86,4.86,0,0,0,3.34,2.57,13.32,13.32,0,0,0,3.57.41l-.4,1.46a10.93,10.93,0,0,1-3.83-.46,6.45,6.45,0,0,1-4.36-3.27,8.21,8.21,0,0,1-.21-5.94,8.94,8.94,0,0,1,1.9-3.65,6.17,6.17,0,0,1,3.1-1.91,7.51,7.51,0,0,1,3.93.12,9.22,9.22,0,0,1,3.71,1.91L672,417A7.88,7.88,0,0,0,669,415.33Z" fill="#fff"/><path d="M673.29,430.57l-1.63-.45,4.22-15.26,1.63.45Z" fill="#fff"/><circle cx="771.11" cy="449.69" r="30" transform="translate(132.09 1072.97) rotate(-74.54)" fill="url(#radial-gradient-21)"/><path d="M771.92,443.8a4.86,4.86,0,0,0-4.17.54,6.59,6.59,0,0,0-2.56,3.93,6.72,6.72,0,0,0,.12,4.71,4.86,4.86,0,0,0,3.34,2.57,13.32,13.32,0,0,0,3.57.41l-.4,1.46A10.93,10.93,0,0,1,768,457a6.45,6.45,0,0,1-4.36-3.27,8.21,8.21,0,0,1-.21-5.94,8.94,8.94,0,0,1,1.9-3.65,6.17,6.17,0,0,1,3.1-1.91,7.51,7.51,0,0,1,3.93.12,9.22,9.22,0,0,1,3.71,1.91l-1.1,1.24A7.88,7.88,0,0,0,771.92,443.8Z" fill="#fff"/><path d="M776.22,459l-1.63-.45,4.22-15.26,1.63.45Z" fill="#fff"/></g><g id="c-3-NH3"><circle cx="849.57" cy="390.35" r="18.29" fill="url(#radial-gradient-22)"/><circle cx="827.19" cy="381.64" r="9.51" fill="url(#radial-gradient-23)"/><circle cx="873.2" cy="381.64" r="9.51" fill="url(#radial-gradient-24)"/><circle cx="850.19" cy="365.49" r="9.51" fill="url(#radial-gradient-25)"/><path d="M855.28,397.86h-1.94l-8-12.25h-.08q.16,2.16.16,4v8.3h-1.57v-14.6h1.92l8,12.2h.08q0-.27-.09-1.73t0-2.09v-8.38h1.59Z" fill="#fff"/><circle cx="803.56" cy="333.15" r="18.29" fill="url(#radial-gradient-26)"/><circle cx="781.18" cy="324.44" r="9.51" fill="url(#radial-gradient-27)"/><circle cx="827.19" cy="324.44" r="9.51" fill="url(#radial-gradient-28)"/><circle cx="804.18" cy="308.29" r="9.51" fill="url(#radial-gradient-29)"/><path d="M809.27,340.66h-1.94l-8-12.25h-.08q.16,2.16.16,4v8.3h-1.57v-14.6h1.92l8,12.2h.08q0-.27-.09-1.73t0-2.09v-8.38h1.59Z" fill="#fff"/></g></g><g id="c-0-stick"><line x1="514.2" y1="507.07" x2="608.19" y2="461.32" fill="#231f20" stroke="#231f20" stroke-miterlimit="10"/><ellipse cx="514.16" cy="507.09" rx="2.2" ry="2.14" transform="translate(-98.99 125.58) rotate(-12.71)" fill="#231f20"/></g><g id="c-2-stroke"><circle cx="741.51" cy="382.22" r="155" fill="none" stroke="#231f20" stroke-miterlimit="10"/></g></g><g id="circle-1"><circle id="c-1-bg" cx="224.05" cy="311.17" r="95" fill="#fff"/><g id="c-1-mol"><circle cx="223.05" cy="356.24" r="30" fill="url(#radial-gradient-30)"/><path d="M222.27,350.35A4.86,4.86,0,0,0,218.4,352a6.59,6.59,0,0,0-1.42,4.47,6.72,6.72,0,0,0,1.37,4.51,4.86,4.86,0,0,0,3.9,1.59,13.32,13.32,0,0,0,3.55-.56v1.52a10.93,10.93,0,0,1-3.81.58,6.45,6.45,0,0,1-5.07-2,8.21,8.21,0,0,1-1.79-5.67,8.94,8.94,0,0,1,.86-4,6.17,6.17,0,0,1,2.48-2.67,7.51,7.51,0,0,1,3.82-.94,9.22,9.22,0,0,1,4.09.85l-.73,1.49A7.88,7.88,0,0,0,222.27,350.35Z" fill="#fff"/><path d="M230.48,363.89h-1.69V348.06h1.69Z" fill="#fff"/><circle cx="173.41" cy="334.63" r="18.29" transform="translate(-74.54 50.79) rotate(-13.74)" fill="url(#radial-gradient-31)"/><circle cx="149.6" cy="331.49" r="9.51" transform="translate(-74.48 45.04) rotate(-13.74)" fill="url(#radial-gradient-32)"/><circle cx="194.29" cy="320.55" r="9.51" transform="translate(-70.6 55.34) rotate(-13.74)" fill="url(#radial-gradient-33)"/><circle cx="168.11" cy="310.33" r="9.51" transform="translate(-68.92 48.83) rotate(-13.74)" fill="url(#radial-gradient-34)"/><circle cx="180.22" cy="359.85" r="9.51" transform="translate(-80.34 53.12) rotate(-13.74)" fill="url(#radial-gradient-35)"/><path d="M180.74,340.57l-1.88.46L168.2,331l-.08,0q.67,2.06,1.09,3.8l2,8.06-1.52.37L166.2,329.1l1.86-.46,10.63,10,.08,0q-.08-.26-.5-1.66t-.55-2l-2-8.14,1.54-.38Z" fill="#fff"/><circle cx="228.26" cy="253.02" r="30" fill="url(#radial-gradient-36)"/><path d="M227.48,247.13a4.86,4.86,0,0,0-3.87,1.63,6.59,6.59,0,0,0-1.42,4.47,6.72,6.72,0,0,0,1.37,4.51,4.86,4.86,0,0,0,3.9,1.59,13.32,13.32,0,0,0,3.55-.56v1.52a10.93,10.93,0,0,1-3.81.58,6.45,6.45,0,0,1-5.07-2,8.21,8.21,0,0,1-1.79-5.67,8.94,8.94,0,0,1,.86-4,6.17,6.17,0,0,1,2.48-2.67,7.51,7.51,0,0,1,3.82-.94,9.22,9.22,0,0,1,4.09.85l-.73,1.49A7.88,7.88,0,0,0,227.48,247.13Z" fill="#fff"/><path d="M235.69,260.67H234V244.84h1.69Z" fill="#fff"/><circle cx="272.44" cy="281.81" r="18.29" transform="translate(-86.72 124.83) rotate(-22.36)" fill="url(#radial-gradient-37)"/><circle cx="271.98" cy="257.79" r="9.51" transform="translate(-77.62 122.85) rotate(-22.36)" fill="url(#radial-gradient-38)"/><circle cx="289.48" cy="300.34" r="9.51" transform="translate(-92.49 132.71) rotate(-22.36)" fill="url(#radial-gradient-39)"/><circle cx="295.67" cy="272.92" r="9.51" transform="translate(-81.59 133) rotate(-22.36)" fill="url(#radial-gradient-40)"/><circle cx="248.52" cy="292.32" r="9.51" transform="translate(-92.52 116.52) rotate(-22.36)" fill="url(#radial-gradient-41)"/><path d="M267.67,289.94l-.74-1.79,8.3-12,0-.07q-1.93,1-3.6,1.65l-7.67,3.16-.6-1.45,13.5-5.55.73,1.77-8.26,12,0,.07,1.57-.74q1.33-.62,1.92-.84l7.75-3.19.6,1.47Z" fill="#fff"/></g><g id="c-1-stick"><line x1="518.57" y1="266.92" x2="317.6" y2="295.65" fill="#231f20" stroke="#231f20" stroke-miterlimit="10"/><circle cx="518.61" cy="266.91" r="2" transform="translate(203.74 757.87) rotate(-84.56)" fill="#231f20"/></g><circle id="c-1-stroke" cx="224.05" cy="311.17" r="95" fill="none" stroke="#231f20" stroke-miterlimit="10"/></g><g id="circle-0"><circle id="c-0-bg" cx="800.43" cy="368.46" r="95" fill="#fff"/><g id="c-0-mol"><g id="BA"><circle cx="800.43" cy="368.46" r="27" fill="url(#radial-gradient-42)"/><path d="M791,362h3.78a7.13,7.13,0,0,1,3.85.8,2.81,2.81,0,0,1,1.19,2.52,2.91,2.91,0,0,1-.66,2,3.2,3.2,0,0,1-1.94,1v.09q3,.52,3,3.2a3.44,3.44,0,0,1-1.21,2.8,5.16,5.16,0,0,1-3.39,1H791Zm1.56,5.73h2.56a4.17,4.17,0,0,0,2.37-.52,2,2,0,0,0,.72-1.74,1.77,1.77,0,0,0-.81-1.63,5,5,0,0,0-2.56-.5h-2.29Zm0,1.32v5h2.79a4,4,0,0,0,2.44-.63,2.32,2.32,0,0,0,.82-2,2.08,2.08,0,0,0-.84-1.83,4.48,4.48,0,0,0-2.55-.59Z" fill="#fff"/><path d="M809.08,375.34l-.3-1.43h-.07a4.22,4.22,0,0,1-1.5,1.28,4.57,4.57,0,0,1-1.86.33,3.35,3.35,0,0,1-2.34-.77,2.81,2.81,0,0,1-.85-2.19q0-3,4.86-3.19l1.7-.05v-.62a2.54,2.54,0,0,0-.51-1.74,2.09,2.09,0,0,0-1.63-.56,6.62,6.62,0,0,0-2.84.77l-.47-1.16a7.13,7.13,0,0,1,1.63-.63,7,7,0,0,1,1.77-.23,3.82,3.82,0,0,1,2.66.8,3.32,3.32,0,0,1,.87,2.55v6.85Zm-3.43-1.07a3.08,3.08,0,0,0,2.23-.78,2.88,2.88,0,0,0,.81-2.18v-.91l-1.52.06a5.53,5.53,0,0,0-2.61.56,1.7,1.7,0,0,0-.8,1.55,1.57,1.57,0,0,0,.5,1.25A2.07,2.07,0,0,0,805.64,374.27Z" fill="#fff"/></g><g id="H2O"><circle cx="778.69" cy="328.7" r="13.9" transform="translate(274.37 1006.97) rotate(-76.25)" fill="url(#radial-gradient-43)"/><circle cx="778.52" cy="310.65" r="7.22" transform="translate(291.77 993.06) rotate(-76.25)" fill="url(#radial-gradient-44)"/><circle cx="760.45" cy="323.76" r="7.22" transform="translate(265.26 985.5) rotate(-76.25)" fill="url(#radial-gradient-45)"/><path d="M780,323.78a6.1,6.1,0,0,1,3.74,2.3,4.73,4.73,0,0,1,.59,4,4.79,4.79,0,0,1-2.35,3.31,6.15,6.15,0,0,1-4.42.29,6.07,6.07,0,0,1-3.76-2.29,4.82,4.82,0,0,1-.55-4,4.72,4.72,0,0,1,2.36-3.26A6.1,6.1,0,0,1,780,323.78Zm-2.1,8.58a5.26,5.26,0,0,0,3.55-.12,3.92,3.92,0,0,0,1.33-5.41,6.65,6.65,0,0,0-6.62-1.62,3.35,3.35,0,0,0-1.78,2.42,3.42,3.42,0,0,0,.46,3A5.21,5.21,0,0,0,777.93,332.36Z" fill="#fff"/><circle cx="750.68" cy="369.47" r="13.9" transform="translate(-83.95 311.04) rotate(-22.2)" fill="url(#radial-gradient-46)"/><circle cx="739.95" cy="354.95" r="7.22" transform="translate(-79.26 305.91) rotate(-22.2)" fill="url(#radial-gradient-47)"/><circle cx="733.01" cy="376.17" r="7.22" transform="translate(-87.8 304.87) rotate(-22.2)" fill="url(#radial-gradient-48)"/><path d="M748.88,364.69a6.1,6.1,0,0,1,4.38-.34,4.73,4.73,0,0,1,2.82,2.89,4.79,4.79,0,0,1,0,4.06,6.15,6.15,0,0,1-3.41,2.83,6.07,6.07,0,0,1-4.39.35,4.82,4.82,0,0,1-2.81-2.95,4.72,4.72,0,0,1,0-4A6.1,6.1,0,0,1,748.88,364.69Zm3.34,8.18a5.26,5.26,0,0,0,2.8-2.18,3.92,3.92,0,0,0-2.1-5.16,6.65,6.65,0,0,0-6.31,2.57,3.35,3.35,0,0,0,0,3,3.42,3.42,0,0,0,2.14,2.15A5.21,5.21,0,0,0,752.21,372.87Z" fill="#fff"/><circle cx="774.37" cy="408.99" r="13.9" transform="translate(-100.49 369.85) rotate(-25.28)" fill="url(#radial-gradient-49)"/><circle cx="760.45" cy="420.48" r="7.22" transform="translate(-106.73 365.01) rotate(-25.28)" fill="url(#radial-gradient-50)"/><circle cx="782.01" cy="426.26" r="7.22" transform="translate(-107.14 374.77) rotate(-25.28)" fill="url(#radial-gradient-51)"/><path d="M769.7,411a6.1,6.1,0,0,1-.57-4.36,4.73,4.73,0,0,1,2.73-3,4.79,4.79,0,0,1,4.06-.26,6.15,6.15,0,0,1,3,3.25,6.07,6.07,0,0,1,.59,4.36,4.82,4.82,0,0,1-2.79,3,4.72,4.72,0,0,1-4,.22A6.1,6.1,0,0,1,769.7,411Zm8-3.77a5.26,5.26,0,0,0-2.33-2.68,3.92,3.92,0,0,0-5,2.37,6.65,6.65,0,0,0,2.91,6.16,3.35,3.35,0,0,0,3-.14,3.42,3.42,0,0,0,2-2.25A5.21,5.21,0,0,0,777.69,407.27Z" fill="#fff"/><circle cx="822.17" cy="408.22" r="13.9" transform="translate(230.27 1109.83) rotate(-76.25)" fill="url(#radial-gradient-52)"/><circle cx="822.33" cy="426.26" r="7.22" transform="translate(212.87 1123.75) rotate(-76.25)" fill="url(#radial-gradient-53)"/><circle cx="840.4" cy="413.16" r="7.22" transform="translate(239.38 1131.31) rotate(-76.25)" fill="url(#radial-gradient-54)"/><path d="M820.82,413.13a6.1,6.1,0,0,1-3.74-2.3,4.73,4.73,0,0,1-.59-4,4.79,4.79,0,0,1,2.35-3.31,6.15,6.15,0,0,1,4.42-.29,6.07,6.07,0,0,1,3.76,2.29,4.82,4.82,0,0,1,.55,4,4.72,4.72,0,0,1-2.36,3.26A6.1,6.1,0,0,1,820.82,413.13Zm2.1-8.58a5.26,5.26,0,0,0-3.55.12,3.92,3.92,0,0,0-1.33,5.41,6.65,6.65,0,0,0,6.62,1.62,3.35,3.35,0,0,0,1.78-2.42,3.42,3.42,0,0,0-.46-3A5.21,5.21,0,0,0,822.92,404.56Z" fill="#fff"/><circle cx="850.18" cy="367.45" r="13.9" transform="translate(-75.81 348.49) rotate(-22.2)" fill="url(#radial-gradient-55)"/><circle cx="860.91" cy="381.96" r="7.22" transform="translate(-80.5 353.62) rotate(-22.2)" fill="url(#radial-gradient-56)"/><circle cx="867.84" cy="360.74" r="7.22" transform="translate(-71.97 354.67) rotate(-22.2)" fill="url(#radial-gradient-57)"/><path d="M852,372.22a6.1,6.1,0,0,1-4.38.34,4.73,4.73,0,0,1-2.82-2.89,4.79,4.79,0,0,1,0-4.06,6.15,6.15,0,0,1,3.41-2.83,6.07,6.07,0,0,1,4.39-.35,4.82,4.82,0,0,1,2.81,2.95,4.72,4.72,0,0,1,0,4A6.1,6.1,0,0,1,852,372.22ZM848.64,364a5.26,5.26,0,0,0-2.8,2.18,3.92,3.92,0,0,0,2.1,5.16,6.65,6.65,0,0,0,6.31-2.57,3.35,3.35,0,0,0,0-3,3.42,3.42,0,0,0-2.14-2.15A5.21,5.21,0,0,0,848.64,364Z" fill="#fff"/><circle cx="826.48" cy="327.93" r="13.9" transform="translate(-60.89 384.34) rotate(-25.28)" fill="url(#radial-gradient-58)"/><circle cx="840.4" cy="316.44" r="7.22" transform="translate(-54.65 389.18) rotate(-25.28)" fill="url(#radial-gradient-59)"/><circle cx="818.84" cy="310.65" r="7.22" transform="translate(-54.24 379.42) rotate(-25.28)" fill="url(#radial-gradient-60)"/><path d="M831.15,325.87a6.1,6.1,0,0,1,.57,4.36,4.73,4.73,0,0,1-2.73,3,4.79,4.79,0,0,1-4.06.26,6.15,6.15,0,0,1-3-3.25,6.07,6.07,0,0,1-.59-4.36,4.82,4.82,0,0,1,2.79-3,4.72,4.72,0,0,1,4-.22A6.1,6.1,0,0,1,831.15,325.87Zm-8,3.77a5.26,5.26,0,0,0,2.33,2.68,3.92,3.92,0,0,0,5-2.37,6.65,6.65,0,0,0-2.91-6.16,3.35,3.35,0,0,0-3,.14,3.42,3.42,0,0,0-2,2.25A5.21,5.21,0,0,0,823.17,329.65Z" fill="#fff"/></g></g><g id="c-0-stick-2" data-name="c-0-stick"><line x1="514.2" y1="507.07" x2="714.72" y2="409.48" fill="#231f20" stroke="#231f20" stroke-miterlimit="10"/><ellipse cx="514.16" cy="507.09" rx="2.2" ry="2.14" transform="translate(-98.99 125.58) rotate(-12.71)" fill="#231f20"/></g><circle id="c-0-stroke" cx="800.43" cy="368.46" r="95" fill="none" stroke="#231f20" stroke-miterlimit="10"/></g></svg>