<svg id="ANIMATION" xmlns="http://www.w3.org/2000/svg" xmlns:xlink="http://www.w3.org/1999/xlink" viewBox="0 0 1024 768"><defs><radialGradient id="radial-gradient" cx="678.65" cy="313.53" r="13.9" gradientTransform="translate(68.63 74.38)" gradientUnits="userSpaceOnUse"><stop offset="0.2" stop-color="#f15a29"/><stop offset="1" stop-color="#be1e2d"/></radialGradient><radialGradient id="radial-gradient-2" cx="696.14" cy="309.08" r="7.22" gradientTransform="translate(50.98 60.78)" gradientUnits="userSpaceOnUse"><stop offset="0.2" stop-color="#f1f2f2"/><stop offset="1" stop-color="#808285"/></radialGradient><radialGradient id="radial-gradient-3" cx="679.12" cy="294.64" r="7.22" gradientTransform="translate(49.93 88.33)" xlink:href="#radial-gradient-2"/><radialGradient id="radial-gradient-4" cx="680.59" cy="294.36" r="13.9" gradientTransform="translate(452.64 1066.72) rotate(-90)" xlink:href="#radial-gradient"/><radialGradient id="radial-gradient-5" cx="698.08" cy="289.92" r="7.22" gradientTransform="translate(446.36 1069.7) rotate(-90)" xlink:href="#radial-gradient-2"/><radialGradient id="radial-gradient-6" cx="681.06" cy="275.48" r="7.22" gradientTransform="translate(453.86 1073.89) rotate(-90)" xlink:href="#radial-gradient-2"/><radialGradient id="radial-gradient-7" cx="671.37" cy="338.81" r="13.9" gradientTransform="translate(1416.02 715.73) rotate(180)" xlink:href="#radial-gradient"/><radialGradient id="radial-gradient-8" cx="688.86" cy="334.36" r="7.22" gradientTransform="translate(1419.59 722.78) rotate(180)" xlink:href="#radial-gradient-2"/><radialGradient id="radial-gradient-9" cx="671.84" cy="319.92" r="7.22" gradientTransform="translate(1424.12 714.12) rotate(180)" xlink:href="#radial-gradient-2"/><radialGradient id="radial-gradient-10" cx="765.71" cy="457.76" r="13.9" gradientTransform="translate(1501.44 834.3) rotate(180)" xlink:href="#radial-gradient"/><radialGradient id="radial-gradient-11" cx="783.2" cy="453.31" r="7.22" gradientTransform="translate(1519.09 847.9) rotate(180)" xlink:href="#radial-gradient-2"/><radialGradient id="radial-gradient-12" cx="766.18" cy="438.88" r="7.22" gradientTransform="translate(1520.14 820.35) rotate(180)" xlink:href="#radial-gradient-2"/><radialGradient id="radial-gradient-13" cx="666.4" cy="462.23" r="13.9" gradientTransform="translate(1198.25 -288.08) rotate(90)" xlink:href="#radial-gradient"/><radialGradient id="radial-gradient-14" cx="683.89" cy="457.79" r="7.22" gradientTransform="translate(1204.53 -291.06) rotate(90)" xlink:href="#radial-gradient-2"/><radialGradient id="radial-gradient-15" cx="666.86" cy="443.35" r="7.22" gradientTransform="translate(1197.02 -295.25) rotate(90)" xlink:href="#radial-gradient-2"/><radialGradient id="radial-gradient-16" cx="504.5" cy="315.62" r="13.9" gradientTransform="translate(233.86 71.9)" xlink:href="#radial-gradient"/><radialGradient id="radial-gradient-17" cx="522" cy="311.18" r="7.22" gradientTransform="translate(230.29 64.86)" xlink:href="#radial-gradient-2"/><radialGradient id="radial-gradient-18" cx="504.97" cy="296.74" r="7.22" gradientTransform="translate(225.75 73.51)" xlink:href="#radial-gradient-2"/><radialGradient id="radial-gradient-19" cx="729.48" cy="354.73" r="27" gradientTransform="translate(1105.3 -372.26) rotate(90)" gradientUnits="userSpaceOnUse"><stop offset="0.2" stop-color="#27aae1"/><stop offset="1" stop-color="#1c75bc"/></radialGradient><radialGradient id="radial-gradient-20" cx="889.34" cy="431.36" r="42.54" gradientTransform="translate(994.23 -251.4) rotate(90) scale(0.71)" gradientUnits="userSpaceOnUse"><stop offset="0.2" stop-color="#8dc63f"/><stop offset="1" stop-color="#006838"/></radialGradient><radialGradient id="radial-gradient-21" cx="1040.79" cy="431.36" r="42.54" gradientTransform="translate(1097.16 -329.72) rotate(90) scale(0.71)" xlink:href="#radial-gradient-20"/><radialGradient id="radial-gradient-22" cx="822.67" cy="395.48" r="23.25" gradientTransform="translate(93.58 79.08) scale(0.79)" gradientUnits="userSpaceOnUse"><stop offset="0.2" stop-color="#1c75bc"/><stop offset="1" stop-color="#2b3990"/></radialGradient><radialGradient id="radial-gradient-23" cx="794.22" cy="384.41" r="12.08" gradientTransform="translate(93.58 79.08) scale(0.79)" xlink:href="#radial-gradient-2"/><radialGradient id="radial-gradient-24" cx="852.69" cy="384.41" r="12.08" gradientTransform="translate(93.58 79.08) scale(0.79)" xlink:href="#radial-gradient-2"/><radialGradient id="radial-gradient-25" cx="823.46" cy="363.88" r="12.08" gradientTransform="translate(93.58 79.08) scale(0.79)" xlink:href="#radial-gradient-2"/><radialGradient id="radial-gradient-30" cx="236.98" cy="378.5" r="42.54" gradientTransform="translate(489.78 191.63) rotate(90) scale(0.71)" xlink:href="#radial-gradient-20"/><radialGradient id="radial-gradient-31" cx="90.8" cy="316.11" r="23.25" gradientTransform="translate(432.56 249.79) rotate(90) scale(0.79)" xlink:href="#radial-gradient-22"/><radialGradient id="radial-gradient-32" cx="62.36" cy="305.03" r="12.08" gradientTransform="translate(402.61 260.96) rotate(90) scale(0.79)" xlink:href="#radial-gradient-2"/><radialGradient id="radial-gradient-33" cx="120.83" cy="305.03" r="12.08" gradientTransform="translate(448.31 220.22) rotate(90) scale(0.79)" xlink:href="#radial-gradient-2"/><radialGradient id="radial-gradient-34" cx="91.59" cy="284.5" r="12.08" gradientTransform="translate(411.16 224.54) rotate(90) scale(0.79)" xlink:href="#radial-gradient-2"/><radialGradient id="radial-gradient-35" cx="91.59" cy="349.3" r="12.08" gradientTransform="translate(456.3 275.19) rotate(90) scale(0.79)" xlink:href="#radial-gradient-2"/><radialGradient id="radial-gradient-36" cx="267.83" cy="244.61" r="42.54" gradientTransform="translate(391.72 75.78) rotate(90) scale(0.71)" xlink:href="#radial-gradient-20"/><radialGradient id="radial-gradient-37" cx="263.81" cy="280.31" r="23.25" gradientTransform="translate(476.17 95.23) rotate(90) scale(0.79)" xlink:href="#radial-gradient-22"/><radialGradient id="radial-gradient-38" cx="235.36" cy="269.23" r="12.08" gradientTransform="translate(472.52 94.14) rotate(90) scale(0.79)" xlink:href="#radial-gradient-2"/><radialGradient id="radial-gradient-39" cx="293.83" cy="269.23" r="12.08" gradientTransform="translate(479.79 93.56) rotate(90) scale(0.79)" xlink:href="#radial-gradient-2"/><radialGradient id="radial-gradient-40" cx="264.6" cy="248.7" r="12.08" gradientTransform="translate(475.95 91.3) rotate(90) scale(0.79)" xlink:href="#radial-gradient-2"/><radialGradient id="radial-gradient-41" cx="264.6" cy="313.5" r="12.08" gradientTransform="translate(476.59 99.35) rotate(90) scale(0.79)" xlink:href="#radial-gradient-2"/><radialGradient id="radial-gradient-42" cx="800.43" cy="368.46" r="27" gradientTransform="matrix(1, 0, 0, 1, 0, 0)" xlink:href="#radial-gradient-19"/><radialGradient id="radial-gradient-43" cx="743.63" cy="329.96" r="13.9" gradientTransform="translate(35.06 -1.26)" xlink:href="#radial-gradient"/><radialGradient id="radial-gradient-44" cx="761.12" cy="325.51" r="7.22" gradientTransform="translate(17.41 -14.86)" xlink:href="#radial-gradient-2"/><radialGradient id="radial-gradient-45" cx="744.09" cy="311.08" r="7.22" gradientTransform="translate(16.36 12.68)" xlink:href="#radial-gradient-2"/><radialGradient id="radial-gradient-46" cx="694.63" cy="304.06" r="13.9" gradientTransform="translate(446.61 1064.09) rotate(-90)" xlink:href="#radial-gradient"/><radialGradient id="radial-gradient-47" cx="712.12" cy="299.62" r="7.22" gradientTransform="translate(440.33 1067.07) rotate(-90)" xlink:href="#radial-gradient-2"/><radialGradient id="radial-gradient-48" cx="695.09" cy="285.18" r="7.22" gradientTransform="translate(447.84 1071.26) rotate(-90)" xlink:href="#radial-gradient-2"/><radialGradient id="radial-gradient-49" cx="658.18" cy="297.12" r="13.9" gradientTransform="translate(1432.55 706.11) rotate(180)" xlink:href="#radial-gradient"/><radialGradient id="radial-gradient-50" cx="675.68" cy="292.67" r="7.22" gradientTransform="translate(1436.13 713.15) rotate(180)" xlink:href="#radial-gradient-2"/><radialGradient id="radial-gradient-51" cx="658.65" cy="278.24" r="7.22" gradientTransform="translate(1440.66 704.5) rotate(180)" xlink:href="#radial-gradient-2"/><radialGradient id="radial-gradient-52" cx="775.94" cy="366.27" r="13.9" gradientTransform="translate(1598.11 774.48) rotate(180)" xlink:href="#radial-gradient"/><radialGradient id="radial-gradient-53" cx="793.43" cy="361.82" r="7.22" gradientTransform="translate(1615.76 788.09) rotate(180)" xlink:href="#radial-gradient-2"/><radialGradient id="radial-gradient-54" cx="776.4" cy="347.38" r="7.22" gradientTransform="translate(1616.81 760.54) rotate(180)" xlink:href="#radial-gradient-2"/><radialGradient id="radial-gradient-55" cx="699.47" cy="352.43" r="13.9" gradientTransform="translate(1202.6 -332.02) rotate(90)" xlink:href="#radial-gradient"/><radialGradient id="radial-gradient-56" cx="716.96" cy="347.98" r="7.22" gradientTransform="translate(1208.88 -335) rotate(90)" xlink:href="#radial-gradient-2"/><radialGradient id="radial-gradient-57" cx="699.94" cy="333.54" r="7.22" gradientTransform="translate(1201.38 -339.19) rotate(90)" xlink:href="#radial-gradient-2"/><radialGradient id="radial-gradient-58" cx="609.63" cy="299.36" r="13.9" gradientTransform="translate(216.85 28.56)" xlink:href="#radial-gradient"/><radialGradient id="radial-gradient-59" cx="627.12" cy="294.92" r="7.22" gradientTransform="translate(213.28 21.52)" xlink:href="#radial-gradient-2"/><radialGradient id="radial-gradient-60" cx="610.1" cy="280.48" r="7.22" gradientTransform="translate(208.74 30.17)" xlink:href="#radial-gradient-2"/></defs><title>anim_02</title><g id="jar"><g id="bg"><path d="M434.28,399.48l.1-.17.14-.23.13-.2.19-.27.16-.21.22-.29.18-.23.23-.3.18-.23.25-.31.13-.16,1.11-1.31c2.71-3.17,5-5.92,3.28-8a13,13,0,0,1-3.28-7,10,10,0,0,1-.05-1c0-13.53,27.45-25,60-25,31.65,0,58.51,10.84,59.89,23.91l-.18,3.18c-2.69,12.58-28.93,22.84-59.71,22.84-14.77,0-29-2.31-40-6.51a5.5,5.5,0,0,0-.82-.23l-.23,0c-.25,0-.52-.08-.8-.1l-.22,0c-.34,0-.71,0-1.09,0h-.44l-.89,0-.46,0c-2.06.15-4.61.5-7.73,1l-2,.29c-1.9.27-3.75.51-5.3.62a14.92,14.92,0,0,1-2.89,0v0Z" fill="#abedff"/><path d="M556.91,508.5c0,10.14-5,18.91-14.59,25.38-10.44,7.07-25.59,10.81-43.82,10.81-36.08,0-58.41-19.56-58.41-37.68V432l-.07-.23c-1.81-6.26-3.64-17.54-5.41-28.74h0l.65,0h.7a81.78,81.78,0,0,0,9-1l1-.15.42-.06.62-.09,1-.14.3,0,.72-.09.17,0,1.13-.14.51-.06.39,0a16,16,0,0,1,4.47,0l.23.07c11.44,4.34,26.1,6.73,41.28,6.73,27.87,0,51-7.67,59.71-18.67Z" fill="#abedff"/></g><g id="strokeBottomBack"><path d="M558.76,511.34h-2.31c0-6.88-6-13.44-16.85-18.47-11.11-5.14-25.82-8-41.41-8s-30.15,2.83-41.11,8c-10.68,5-16.57,11.57-16.57,18.47h-2.31c0-7.84,6.36-15.15,17.9-20.56,11.26-5.28,26.21-8.19,42.09-8.19C531.59,482.59,558.76,495.48,558.76,511.34Z" fill="#00d4ff"/></g><g id="strokeAround"><path d="M498.49,548.16c-17.37,0-33.29-4.51-44.83-12.7-10.83-7.68-17-18-17-28.44V432.44c-1.94-6.85-3.87-19-5.73-30.76l-.09-.56,3.42-.54.09.56c1.87,11.79,3.8,24,5.7,30.58l.07.23V507c0,18.12,22.33,37.68,58.41,37.68,18.23,0,33.38-3.74,43.82-10.81,9.55-6.47,14.59-15.25,14.59-25.38v-130h3.46v130c0,11.18-5.72,21.21-16.11,28.25C533.24,544.22,517.42,548.16,498.49,548.16Z" fill="#00d4ff"/></g><path id="strokeTopTop" d="M497.2,354.55c32.5,0,60,11.43,60,25h3.46c0-15.94-27.85-28.42-63.41-28.42s-63.41,12.49-63.41,28.42h3.46C437.25,366,464.7,354.55,497.2,354.55Z" fill="#00d4ff"/><g id="stick"><path d="M505.43,512.44c0-.06,0-.12,0-.18L538,228.42a4.76,4.76,0,0,0-9.46-1L496,511.27" fill="#abedff"/><path d="M505.43,514.09l-.29,0a1.66,1.66,0,0,1-1.36-1.91l0-.09,32.49-283.84a3.08,3.08,0,0,0-6.12-.63L497.67,511.46a1.68,1.68,0,0,1-3.34-.38l32.49-283.84a6.44,6.44,0,0,1,12.8,1.36L507.13,512.45c0,.07,0,.16,0,.25A1.71,1.71,0,0,1,505.43,514.09Z" fill="#00d4ff"/><path d="M497.89,509.61a4.83,4.83,0,0,0-2.1,2.72,4.84,4.84,0,1,0,8.77-1.13" fill="#abedff"/><path d="M500.56,519a6.48,6.48,0,0,1-.69,0,6.43,6.43,0,0,1-5.76-6.68V512l.06-.2a6.53,6.53,0,0,1,2.82-3.66l1.76,2.86a3.17,3.17,0,0,0-1.3,1.58,3.07,3.07,0,0,0,6.08.57,3.1,3.1,0,0,0-.42-1.1l2.86-1.76a6.44,6.44,0,0,1,.92,2.72l0,.21,0,.21A6.4,6.4,0,0,1,500.56,519Z" fill="#00d4ff"/><path d="M504.38,512a4.85,4.85,0,0,0-6.67-1.59" fill="#abedff"/><path d="M503.43,512.55a3.74,3.74,0,0,0-5.13-1.22l-1.17-1.91a6,6,0,0,1,8.21,2Z" fill="#00d4ff"/></g><g id="plate"><path d="M578.4,266.75c0,11.79-29.37,27.52-65.6,27.52s-65.59-15.73-65.59-27.52,29.37-17.49,65.59-17.49S578.4,255,578.4,266.75Z" fill="#abedff"/><path d="M512.81,296c-16.93,0-33.66-3.37-47.1-9.49-12.67-5.77-20.23-13.15-20.23-19.76,0-17.84,51.53-19.22,67.33-19.22s67.33,1.39,67.33,19.22c0,6.6-7.56,14-20.23,19.76C546.47,292.63,529.74,296,512.81,296Zm0-45c-38.2,0-63.86,6.33-63.86,15.75,0,10.14,27.42,25.78,63.86,25.78s63.86-15.64,63.86-25.78C576.67,257.33,551,251,512.81,251Z" fill="#00d4ff"/><path d="M513.2,286.61c-13.09,0-27-3.07-27-8.77s13.92-8.77,27-8.77,27,3.07,27,8.77S526.3,286.61,513.2,286.61Zm0-15.23c-15.3,0-24.7,3.76-24.7,6.46s9.4,6.46,24.7,6.46,24.7-3.76,24.7-6.46S528.5,271.38,513.2,271.38Z" fill="#00d4ff"/></g><g id="jarSalt"><g id="jarSaltParticle"><polygon points="517.78 274.36 515.93 272.29 516.81 269.65 519.52 269.09 521.37 271.17 520.5 273.8 517.78 274.36" fill="#fff"/><path d="M517.78,275.52a1.16,1.16,0,0,1-.86-.39l-1.84-2.07a1.15,1.15,0,0,1-.23-1.13l.87-2.63a1.15,1.15,0,0,1,.86-.77l2.72-.56a1.16,1.16,0,0,1,1.1.36l1.85,2.07a1.16,1.16,0,0,1,.23,1.13l-.87,2.63a1.15,1.15,0,0,1-.86.77l-2.72.56Zm-.54-3.5,1,1.08,1.41-.29.45-1.37-1-1.08-1.41.29Z" fill="#f2f2f2"/></g><g id="jarSaltParticle-2" data-name="jarSaltParticle"><polygon points="516.12 268.92 514.27 266.85 515.14 264.21 517.86 263.65 519.71 265.73 518.83 268.36 516.12 268.92" fill="#fff"/><path d="M516.11,270.08a1.16,1.16,0,0,1-.86-.39l-1.84-2.07a1.15,1.15,0,0,1-.23-1.13l.87-2.63a1.15,1.15,0,0,1,.86-.77l2.72-.56a1.16,1.16,0,0,1,1.1.36l1.85,2.07a1.16,1.16,0,0,1,.23,1.13l-.87,2.63a1.15,1.15,0,0,1-.86.77l-2.72.56Zm-.54-3.5,1,1.08,1.41-.29.45-1.37-1-1.08-1.41.29Z" fill="#f2f2f2"/></g><g id="jarSaltParticle-3" data-name="jarSaltParticle"><polygon points="479.9 271.72 478.06 269.64 478.93 267.01 481.65 266.45 483.49 268.52 482.62 271.16 479.9 271.72" fill="#fff"/><path d="M479.9,272.87a1.16,1.16,0,0,1-.86-.39l-1.84-2.07a1.15,1.15,0,0,1-.23-1.13l.87-2.63a1.15,1.15,0,0,1,.86-.77l2.72-.56a1.16,1.16,0,0,1,1.1.36l1.85,2.07a1.16,1.16,0,0,1,.23,1.13l-.87,2.63a1.15,1.15,0,0,1-.86.77l-2.72.56Zm-.54-3.5,1,1.08,1.41-.29.45-1.37-1-1.08-1.41.29Z" fill="#f2f2f2"/></g><g id="jarSaltParticle-4" data-name="jarSaltParticle"><polygon points="479.42 277.46 477.58 275.39 478.45 272.75 481.17 272.19 483.01 274.27 482.14 276.9 479.42 277.46" fill="#fff"/><path d="M479.42,278.62a1.16,1.16,0,0,1-.86-.39l-1.84-2.07a1.15,1.15,0,0,1-.23-1.13l.87-2.63a1.15,1.15,0,0,1,.86-.77l2.72-.56a1.16,1.16,0,0,1,1.1.36l1.85,2.07a1.16,1.16,0,0,1,.23,1.13l-.87,2.63a1.15,1.15,0,0,1-.86.77l-2.72.56Zm-.54-3.5,1,1.08,1.41-.29.45-1.37-1-1.08-1.41.29Z" fill="#f2f2f2"/></g><g id="jarSaltParticle-5" data-name="jarSaltParticle"><polygon points="517.04 282.46 515.19 280.38 516.07 277.75 518.78 277.19 520.63 279.26 519.76 281.9 517.04 282.46" fill="#fff"/><path d="M517,283.61a1.16,1.16,0,0,1-.86-.39l-1.84-2.07a1.15,1.15,0,0,1-.23-1.13l.87-2.63a1.15,1.15,0,0,1,.86-.77l2.72-.56a1.16,1.16,0,0,1,1.1.36l1.85,2.07a1.16,1.16,0,0,1,.23,1.13l-.87,2.63a1.15,1.15,0,0,1-.86.77l-2.72.56Zm-.54-3.5,1,1.08,1.41-.29.45-1.37-1-1.08-1.41.29Z" fill="#f2f2f2"/></g><g id="jarSaltParticle-6" data-name="jarSaltParticle"><polygon points="504.67 258.56 502.82 256.49 503.7 253.85 506.42 253.29 508.26 255.37 507.39 258 504.67 258.56" fill="#fff"/><path d="M504.67,259.72a1.16,1.16,0,0,1-.86-.39L502,257.25a1.15,1.15,0,0,1-.23-1.13l.87-2.63a1.15,1.15,0,0,1,.86-.77l2.72-.56a1.16,1.16,0,0,1,1.1.36l1.85,2.07a1.16,1.16,0,0,1,.23,1.13l-.87,2.63a1.15,1.15,0,0,1-.86.77l-2.72.56Zm-.54-3.5,1,1.08,1.41-.29.45-1.37-1-1.08-1.41.29Z" fill="#f2f2f2"/></g><g id="jarSaltParticle-7" data-name="jarSaltParticle"><polygon points="500.8 261.73 498.95 259.65 499.82 257.02 502.54 256.46 504.39 258.53 503.51 261.17 500.8 261.73" fill="#fff"/><path d="M500.8,262.88a1.16,1.16,0,0,1-.86-.39l-1.84-2.07a1.15,1.15,0,0,1-.23-1.13l.87-2.63a1.15,1.15,0,0,1,.86-.77l2.72-.56a1.16,1.16,0,0,1,1.1.36l1.85,2.07a1.16,1.16,0,0,1,.23,1.13l-.87,2.63a1.15,1.15,0,0,1-.86.77l-2.72.56Zm-.54-3.5,1,1.08,1.41-.29.45-1.37-1-1.08-1.41.29Z" fill="#f2f2f2"/></g><g id="jarSaltParticle-8" data-name="jarSaltParticle"><polygon points="495.79 262.93 493.95 260.86 494.82 258.22 497.54 257.66 499.38 259.74 498.51 262.37 495.79 262.93" fill="#fff"/><path d="M495.79,264.09a1.16,1.16,0,0,1-.86-.39l-1.84-2.07a1.15,1.15,0,0,1-.23-1.13l.87-2.63a1.15,1.15,0,0,1,.86-.77l2.72-.56a1.16,1.16,0,0,1,1.1.36l1.85,2.07a1.16,1.16,0,0,1,.23,1.13l-.87,2.63a1.15,1.15,0,0,1-.86.77l-2.72.56Zm-.54-3.5,1,1.08,1.41-.29.45-1.37-1-1.08-1.41.29Z" fill="#f2f2f2"/></g><g id="jarSaltParticle-9" data-name="jarSaltParticle"><polygon points="489.73 263.08 487.88 261.01 488.75 258.37 491.47 257.81 493.32 259.88 492.44 262.52 489.73 263.08" fill="#fff"/><path d="M489.73,264.24a1.16,1.16,0,0,1-.86-.39L487,261.77a1.15,1.15,0,0,1-.23-1.13l.87-2.63a1.15,1.15,0,0,1,.86-.77l2.72-.56a1.16,1.16,0,0,1,1.1.36l1.85,2.07a1.16,1.16,0,0,1,.23,1.13l-.87,2.63a1.15,1.15,0,0,1-.86.77l-2.72.56Zm-.54-3.5,1,1.08,1.41-.29.45-1.37-1-1.08-1.41.29Z" fill="#f2f2f2"/></g><g id="jarSaltParticle-10" data-name="jarSaltParticle"><polygon points="479.9 283.37 478.06 281.3 478.93 278.66 481.65 278.1 483.49 280.17 482.62 282.81 479.9 283.37" fill="#fff"/><path d="M479.9,284.52a1.16,1.16,0,0,1-.86-.39l-1.84-2.07a1.15,1.15,0,0,1-.23-1.13l.87-2.63a1.15,1.15,0,0,1,.86-.77l2.72-.56a1.16,1.16,0,0,1,1.1.36l1.85,2.07a1.16,1.16,0,0,1,.23,1.13l-.87,2.63a1.15,1.15,0,0,1-.86.77l-2.72.56Zm-.54-3.5,1,1.08,1.41-.29.45-1.37-1-1.08-1.41.29Z" fill="#f2f2f2"/></g><g id="jarSaltParticle-11" data-name="jarSaltParticle"><polygon points="483.29 266.25 481.45 264.18 482.32 261.55 485.04 260.98 486.89 263.06 486.01 265.69 483.29 266.25" fill="#fff"/><path d="M483.29,267.41a1.16,1.16,0,0,1-.86-.39l-1.84-2.07a1.15,1.15,0,0,1-.23-1.13l.87-2.63a1.15,1.15,0,0,1,.86-.77l2.72-.56a1.16,1.16,0,0,1,1.1.36l1.85,2.07a1.16,1.16,0,0,1,.23,1.13l-.87,2.63a1.15,1.15,0,0,1-.86.77l-2.72.56Zm-.54-3.5,1,1.08,1.41-.29.45-1.37-1-1.08-1.41.29Z" fill="#f2f2f2"/></g><g id="jarSaltParticle-12" data-name="jarSaltParticle"><polygon points="483.29 272.42 481.45 270.35 482.32 267.71 485.04 267.15 486.89 269.23 486.01 271.86 483.29 272.42" fill="#fff"/><path d="M483.29,273.58a1.16,1.16,0,0,1-.86-.39l-1.84-2.07a1.15,1.15,0,0,1-.23-1.13l.87-2.63a1.15,1.15,0,0,1,.86-.77l2.72-.56a1.16,1.16,0,0,1,1.1.36l1.85,2.07a1.16,1.16,0,0,1,.23,1.13l-.87,2.63a1.15,1.15,0,0,1-.86.77l-2.72.56Zm-.54-3.5,1,1.08,1.41-.29.45-1.37-1-1.08-1.41.29Z" fill="#f2f2f2"/></g><g id="jarSaltParticle-13" data-name="jarSaltParticle"><polygon points="487.37 268.16 485.52 266.08 486.39 263.45 489.11 262.89 490.96 264.96 490.08 267.59 487.37 268.16" fill="#fff"/><path d="M487.37,269.31a1.16,1.16,0,0,1-.86-.39l-1.84-2.07a1.15,1.15,0,0,1-.23-1.13l.87-2.63a1.15,1.15,0,0,1,.86-.77l2.72-.56a1.16,1.16,0,0,1,1.1.36l1.85,2.07a1.16,1.16,0,0,1,.23,1.13l-.87,2.63a1.15,1.15,0,0,1-.86.77l-2.72.56Zm-.54-3.5,1,1.08,1.41-.29.45-1.37-1-1.08-1.41.29Z" fill="#f2f2f2"/></g><g id="jarSaltParticle-14" data-name="jarSaltParticle"><polygon points="493.6 268.63 491.75 266.56 492.63 263.92 495.35 263.36 497.19 265.44 496.32 268.07 493.6 268.63" fill="#fff"/><path d="M493.6,269.79a1.16,1.16,0,0,1-.86-.39l-1.84-2.07a1.15,1.15,0,0,1-.23-1.13l.87-2.63a1.15,1.15,0,0,1,.86-.77l2.72-.56a1.16,1.16,0,0,1,1.1.36l1.85,2.07a1.16,1.16,0,0,1,.23,1.13l-.87,2.63a1.15,1.15,0,0,1-.86.77l-2.72.56Zm-.54-3.5,1,1.08,1.41-.29.45-1.37-1-1.08-1.41.29Z" fill="#f2f2f2"/></g><g id="jarSaltParticle-15" data-name="jarSaltParticle"><polygon points="498.29 269.01 496.45 266.94 497.32 264.3 500.04 263.74 501.88 265.81 501.01 268.45 498.29 269.01" fill="#fff"/><path d="M498.29,270.16a1.16,1.16,0,0,1-.86-.39l-1.84-2.07a1.15,1.15,0,0,1-.23-1.13l.87-2.63a1.15,1.15,0,0,1,.86-.77l2.72-.56a1.16,1.16,0,0,1,1.1.36l1.85,2.07a1.16,1.16,0,0,1,.23,1.13l-.87,2.63a1.15,1.15,0,0,1-.86.77l-2.72.56Zm-.54-3.5,1,1.08,1.41-.29.45-1.37-1-1.08-1.41.29Z" fill="#f2f2f2"/></g><g id="jarSaltParticle-16" data-name="jarSaltParticle"><polygon points="489.2 280.1 487.36 278.02 488.23 275.39 490.95 274.83 492.79 276.9 491.92 279.54 489.2 280.1" fill="#fff"/><path d="M489.2,281.25a1.16,1.16,0,0,1-.86-.39l-1.84-2.07a1.15,1.15,0,0,1-.23-1.13l.87-2.63a1.15,1.15,0,0,1,.86-.77l2.72-.56a1.16,1.16,0,0,1,1.1.36l1.85,2.07a1.16,1.16,0,0,1,.23,1.13L493,279.9a1.15,1.15,0,0,1-.86.77l-2.72.56Zm-.54-3.5,1,1.08,1.41-.29.45-1.37-1-1.08-1.41.29Z" fill="#f2f2f2"/></g><g id="jarSaltParticle-17" data-name="jarSaltParticle"><polygon points="484.03 278.94 482.19 276.87 483.06 274.24 485.78 273.67 487.63 275.75 486.75 278.38 484.03 278.94" fill="#fff"/><path d="M484,280.1a1.16,1.16,0,0,1-.86-.39l-1.84-2.07a1.15,1.15,0,0,1-.23-1.13l.87-2.63a1.15,1.15,0,0,1,.86-.77l2.72-.56a1.16,1.16,0,0,1,1.1.36l1.85,2.07a1.16,1.16,0,0,1,.23,1.13l-.87,2.63a1.15,1.15,0,0,1-.86.77l-2.72.56Zm-.54-3.5,1,1.08,1.41-.29.45-1.37-1-1.08-1.41.29Z" fill="#f2f2f2"/></g><g id="jarSaltParticle-18" data-name="jarSaltParticle"><polygon points="487.37 274.36 485.52 272.28 486.39 269.65 489.11 269.08 490.96 271.16 490.08 273.79 487.37 274.36" fill="#fff"/><path d="M487.37,275.51a1.16,1.16,0,0,1-.86-.39L484.66,273a1.15,1.15,0,0,1-.23-1.13l.87-2.63a1.15,1.15,0,0,1,.86-.77l2.72-.56a1.16,1.16,0,0,1,1.1.36l1.85,2.07a1.16,1.16,0,0,1,.23,1.13l-.87,2.63a1.15,1.15,0,0,1-.86.77l-2.72.56Zm-.54-3.5,1,1.08,1.41-.29.45-1.37-1-1.08-1.41.29Z" fill="#f2f2f2"/></g><g id="jarSaltParticle-19" data-name="jarSaltParticle"><polygon points="483.29 284.44 481.45 282.36 482.32 279.73 485.04 279.17 486.89 281.24 486.01 283.88 483.29 284.44" fill="#fff"/><path d="M483.29,285.59a1.16,1.16,0,0,1-.86-.39l-1.84-2.07a1.15,1.15,0,0,1-.23-1.13l.87-2.63a1.15,1.15,0,0,1,.86-.77l2.72-.56a1.16,1.16,0,0,1,1.1.36l1.85,2.07a1.16,1.16,0,0,1,.23,1.13l-.87,2.63a1.15,1.15,0,0,1-.86.77l-2.72.56Zm-.54-3.5,1,1.08,1.41-.29.45-1.37-1-1.08-1.41.29Z" fill="#f2f2f2"/></g><g id="jarSaltParticle-20" data-name="jarSaltParticle"><polygon points="488.7 285.92 486.86 283.84 487.73 281.21 490.45 280.65 492.3 282.72 491.42 285.36 488.7 285.92" fill="#fff"/><path d="M488.7,287.07a1.16,1.16,0,0,1-.86-.39L486,284.61a1.15,1.15,0,0,1-.23-1.13l.87-2.63a1.15,1.15,0,0,1,.86-.77l2.72-.56a1.16,1.16,0,0,1,1.1.36l1.85,2.07a1.16,1.16,0,0,1,.23,1.13l-.87,2.63a1.15,1.15,0,0,1-.86.77l-2.72.56Zm-.54-3.5,1,1.08,1.41-.29L491,283l-1-1.08-1.41.29Z" fill="#f2f2f2"/></g><g id="jarSaltParticle-21" data-name="jarSaltParticle"><polygon points="498.17 286.71 496.33 284.63 497.2 282 499.92 281.44 501.77 283.51 500.89 286.14 498.17 286.71" fill="#fff"/><path d="M498.17,287.86a1.16,1.16,0,0,1-.86-.39l-1.84-2.07a1.15,1.15,0,0,1-.23-1.13l.87-2.63a1.15,1.15,0,0,1,.86-.77l2.72-.56a1.16,1.16,0,0,1,1.1.36l1.85,2.07a1.16,1.16,0,0,1,.23,1.13l-.87,2.63a1.15,1.15,0,0,1-.86.77l-2.72.56Zm-.54-3.5,1,1.08,1.41-.29.45-1.37-1-1.08-1.41.29Z" fill="#f2f2f2"/></g><g id="jarSaltParticle-22" data-name="jarSaltParticle"><polygon points="494.42 284.05 492.57 281.97 493.45 279.34 496.17 278.78 498.01 280.85 497.14 283.48 494.42 284.05" fill="#fff"/><path d="M494.42,285.2a1.16,1.16,0,0,1-.86-.39l-1.84-2.07a1.15,1.15,0,0,1-.23-1.13l.87-2.63a1.15,1.15,0,0,1,.86-.77l2.72-.56a1.16,1.16,0,0,1,1.1.36l1.85,2.07a1.16,1.16,0,0,1,.23,1.13l-.87,2.63a1.15,1.15,0,0,1-.86.77l-2.72.56Zm-.54-3.5,1,1.08,1.41-.29.45-1.37-1-1.08-1.41.29Z" fill="#f2f2f2"/></g><g id="jarSaltParticle-23" data-name="jarSaltParticle"><polygon points="502.5 282.73 500.65 280.66 501.53 278.02 504.25 277.46 506.09 279.54 505.22 282.17 502.5 282.73" fill="#fff"/><path d="M502.5,283.89a1.16,1.16,0,0,1-.86-.39l-1.84-2.07a1.15,1.15,0,0,1-.23-1.13l.87-2.63a1.15,1.15,0,0,1,.86-.77l2.72-.56a1.16,1.16,0,0,1,1.1.36l1.85,2.07a1.16,1.16,0,0,1,.23,1.13l-.87,2.63a1.15,1.15,0,0,1-.86.77l-2.72.56Zm-.54-3.5,1,1.08,1.41-.29.45-1.37-1-1.08-1.41.29Z" fill="#f2f2f2"/></g><g id="jarSaltParticle-24" data-name="jarSaltParticle"><polygon points="507.85 284.62 506.01 282.54 506.88 279.91 509.6 279.35 511.44 281.42 510.57 284.06 507.85 284.62" fill="#fff"/><path d="M507.85,285.77a1.16,1.16,0,0,1-.86-.39l-1.84-2.07a1.15,1.15,0,0,1-.23-1.13l.87-2.63a1.15,1.15,0,0,1,.86-.77l2.72-.56a1.16,1.16,0,0,1,1.1.36l1.85,2.07a1.16,1.16,0,0,1,.23,1.13l-.87,2.63a1.15,1.15,0,0,1-.86.77l-2.72.56Zm-.54-3.5,1,1.08,1.41-.29.45-1.37-1-1.08-1.41.29Z" fill="#f2f2f2"/></g><g id="jarSaltParticle-25" data-name="jarSaltParticle"><polygon points="513.29 283.75 511.45 281.68 512.32 279.05 515.04 278.48 516.88 280.56 516.01 283.19 513.29 283.75" fill="#fff"/><path d="M513.29,284.91a1.16,1.16,0,0,1-.86-.39l-1.84-2.07a1.15,1.15,0,0,1-.23-1.13l.87-2.63a1.15,1.15,0,0,1,.86-.77l2.72-.56a1.16,1.16,0,0,1,1.1.36l1.85,2.07a1.16,1.16,0,0,1,.23,1.13l-.87,2.63a1.15,1.15,0,0,1-.86.77l-2.72.56Zm-.54-3.5,1,1.08,1.41-.29.45-1.37-1-1.08-1.41.29Z" fill="#f2f2f2"/></g><g id="jarSaltParticle-26" data-name="jarSaltParticle"><polygon points="505.22 270.79 503.37 268.72 504.25 266.08 506.96 265.52 508.81 267.6 507.94 270.23 505.22 270.79" fill="#fff"/><path d="M505.22,271.95a1.16,1.16,0,0,1-.86-.39l-1.84-2.07a1.15,1.15,0,0,1-.23-1.13l.87-2.63A1.15,1.15,0,0,1,504,265l2.72-.56a1.16,1.16,0,0,1,1.1.36l1.85,2.07a1.16,1.16,0,0,1,.23,1.13l-.87,2.63a1.15,1.15,0,0,1-.86.77l-2.72.56Zm-.54-3.5,1,1.08,1.41-.29.45-1.37-1-1.08-1.41.29Z" fill="#f2f2f2"/></g><g id="jarSaltParticle-27" data-name="jarSaltParticle"><polygon points="502.82 268.16 500.98 266.08 501.85 263.45 504.57 262.89 506.42 264.96 505.54 267.59 502.82 268.16" fill="#fff"/><path d="M502.82,269.31a1.16,1.16,0,0,1-.86-.39l-1.84-2.07a1.15,1.15,0,0,1-.23-1.13l.87-2.63a1.15,1.15,0,0,1,.86-.77l2.72-.56a1.16,1.16,0,0,1,1.1.36l1.85,2.07a1.16,1.16,0,0,1,.23,1.13l-.87,2.63a1.15,1.15,0,0,1-.86.77l-2.72.56Zm-.54-3.5,1,1.08,1.41-.29.45-1.37-1-1.08-1.41.29Z" fill="#f2f2f2"/></g><g id="jarSaltParticle-28" data-name="jarSaltParticle"><polygon points="492.44 271.94 490.6 269.87 491.47 267.24 494.19 266.68 496.04 268.75 495.16 271.38 492.44 271.94" fill="#fff"/><path d="M492.44,273.1a1.16,1.16,0,0,1-.86-.39l-1.84-2.07a1.15,1.15,0,0,1-.23-1.13l.87-2.63a1.15,1.15,0,0,1,.86-.77l2.72-.56a1.16,1.16,0,0,1,1.1.36L496.9,268a1.16,1.16,0,0,1,.23,1.13l-.87,2.63a1.15,1.15,0,0,1-.86.77l-2.72.56Zm-.54-3.5,1,1.08,1.41-.29.45-1.37-1-1.08-1.41.29Z" fill="#f2f2f2"/></g><g id="jarSaltParticle-29" data-name="jarSaltParticle"><polygon points="491.92 277.46 490.07 275.39 490.95 272.75 493.67 272.19 495.51 274.27 494.64 276.9 491.92 277.46" fill="#fff"/><path d="M491.92,278.62a1.16,1.16,0,0,1-.86-.39l-1.84-2.07A1.15,1.15,0,0,1,489,275l.87-2.63a1.15,1.15,0,0,1,.86-.77l2.72-.56a1.16,1.16,0,0,1,1.1.36l1.85,2.07a1.16,1.16,0,0,1,.23,1.13l-.87,2.63a1.15,1.15,0,0,1-.86.77l-2.72.56Zm-.54-3.5,1,1.08,1.41-.29.45-1.37-1-1.08-1.41.29Z" fill="#f2f2f2"/></g><g id="jarSaltParticle-30" data-name="jarSaltParticle"><polygon points="498.51 279.94 496.66 277.87 497.54 275.24 500.25 274.67 502.1 276.75 501.23 279.38 498.51 279.94" fill="#fff"/><path d="M498.51,281.1a1.16,1.16,0,0,1-.86-.39l-1.84-2.07a1.15,1.15,0,0,1-.23-1.13l.87-2.63a1.15,1.15,0,0,1,.86-.77l2.72-.56a1.16,1.16,0,0,1,1.1.36L503,276a1.16,1.16,0,0,1,.23,1.13l-.87,2.63a1.15,1.15,0,0,1-.86.77l-2.72.56Zm-.54-3.5,1,1.08,1.41-.29.45-1.37-1-1.08-1.41.29Z" fill="#f2f2f2"/></g><g id="jarSaltParticle-31" data-name="jarSaltParticle"><polygon points="513.14 278.94 511.29 276.87 512.17 274.24 514.88 273.67 516.73 275.75 515.86 278.38 513.14 278.94" fill="#fff"/><path d="M513.14,280.1a1.16,1.16,0,0,1-.86-.39l-1.84-2.07a1.15,1.15,0,0,1-.23-1.13l.87-2.63a1.15,1.15,0,0,1,.86-.77l2.72-.56a1.16,1.16,0,0,1,1.1.36l1.85,2.07a1.16,1.16,0,0,1,.23,1.13l-.87,2.63a1.15,1.15,0,0,1-.86.77l-2.72.56Zm-.54-3.5,1,1.08,1.41-.29.45-1.37-1-1.08-1.41.29Z" fill="#f2f2f2"/></g><g id="jarSaltParticle-32" data-name="jarSaltParticle"><polygon points="511.01 272.8 509.17 270.72 510.04 268.09 512.76 267.53 514.61 269.6 513.73 272.24 511.01 272.8" fill="#fff"/><path d="M511,274a1.16,1.16,0,0,1-.86-.39l-1.84-2.07a1.15,1.15,0,0,1-.23-1.13l.87-2.63a1.15,1.15,0,0,1,.86-.77l2.72-.56a1.16,1.16,0,0,1,1.1.36l1.85,2.07a1.16,1.16,0,0,1,.23,1.13l-.87,2.63a1.15,1.15,0,0,1-.86.77l-2.72.56Zm-.54-3.5,1,1.08,1.41-.29.45-1.37-1-1.08-1.41.29Z" fill="#f2f2f2"/></g><g id="jarSaltParticle-33" data-name="jarSaltParticle"><polygon points="513.14 263.08 511.29 261.01 512.17 258.37 514.88 257.81 516.73 259.88 515.86 262.52 513.14 263.08" fill="#fff"/><path d="M513.14,264.24a1.16,1.16,0,0,1-.86-.39l-1.84-2.07a1.15,1.15,0,0,1-.23-1.13l.87-2.63a1.15,1.15,0,0,1,.86-.77l2.72-.56a1.16,1.16,0,0,1,1.1.36l1.85,2.07a1.16,1.16,0,0,1,.23,1.13l-.87,2.63a1.15,1.15,0,0,1-.86.77l-2.72.56Zm-.54-3.5,1,1.08,1.41-.29.45-1.37-1-1.08-1.41.29Z" fill="#f2f2f2"/></g><g id="jarSaltParticle-34" data-name="jarSaltParticle"><polygon points="511.13 259.21 509.28 257.14 510.15 254.5 512.87 253.94 514.72 256.02 513.85 258.65 511.13 259.21" fill="#fff"/><path d="M511.13,260.37a1.16,1.16,0,0,1-.86-.39l-1.84-2.07a1.15,1.15,0,0,1-.23-1.13l.87-2.63a1.15,1.15,0,0,1,.86-.77l2.72-.56a1.16,1.16,0,0,1,1.1.36l1.85,2.07a1.16,1.16,0,0,1,.23,1.13l-.87,2.63a1.15,1.15,0,0,1-.86.77l-2.72.56Zm-.54-3.5,1,1.08,1.41-.29.45-1.37-1-1.08-1.41.29Z" fill="#f2f2f2"/></g><g id="jarSaltParticle-35" data-name="jarSaltParticle"><polygon points="506.7 263.62 504.85 261.55 505.73 258.91 508.44 258.35 510.29 260.42 509.42 263.06 506.7 263.62" fill="#fff"/><path d="M506.7,264.77a1.16,1.16,0,0,1-.86-.39L504,262.31a1.15,1.15,0,0,1-.23-1.13l.87-2.63a1.15,1.15,0,0,1,.86-.77l2.72-.56a1.16,1.16,0,0,1,1.1.36l1.85,2.07a1.16,1.16,0,0,1,.23,1.13l-.87,2.63a1.15,1.15,0,0,1-.86.77l-2.72.56Zm-.54-3.5,1,1.08,1.41-.29.45-1.37-1-1.08-1.41.29Z" fill="#f2f2f2"/></g><g id="jarSaltParticle-36" data-name="jarSaltParticle"><polygon points="509.94 267.41 508.09 265.33 508.97 262.7 511.68 262.14 513.53 264.21 512.66 266.85 509.94 267.41" fill="#fff"/><path d="M509.94,268.56a1.16,1.16,0,0,1-.86-.39l-1.84-2.07A1.15,1.15,0,0,1,507,265l.87-2.63a1.15,1.15,0,0,1,.86-.77l2.72-.56a1.16,1.16,0,0,1,1.1.36l1.85,2.07a1.16,1.16,0,0,1,.23,1.13l-.87,2.63a1.15,1.15,0,0,1-.86.77l-2.72.56Zm-.54-3.5,1,1.08,1.41-.29.45-1.37-1-1.08-1.41.29Z" fill="#f2f2f2"/></g><g id="jarSaltParticle-37" data-name="jarSaltParticle"><polygon points="508.39 279.02 506.54 276.94 507.42 274.31 510.13 273.75 511.98 275.82 511.11 278.46 508.39 279.02" fill="#fff"/><path d="M508.39,280.17a1.16,1.16,0,0,1-.86-.39l-1.84-2.07a1.15,1.15,0,0,1-.23-1.13l.87-2.63a1.15,1.15,0,0,1,.86-.77l2.72-.56a1.16,1.16,0,0,1,1.1.36l1.85,2.07a1.16,1.16,0,0,1,.23,1.13l-.87,2.63a1.15,1.15,0,0,1-.86.77l-2.72.56Zm-.54-3.5,1,1.08,1.41-.29.45-1.37-1-1.08-1.41.29Z" fill="#f2f2f2"/></g><g id="jarSaltParticle-38" data-name="jarSaltParticle"><polygon points="497.14 274.83 495.29 272.75 496.17 270.12 498.88 269.56 500.73 271.63 499.86 274.27 497.14 274.83" fill="#fff"/><path d="M497.14,276a1.16,1.16,0,0,1-.86-.39l-1.84-2.07a1.15,1.15,0,0,1-.23-1.13l.87-2.63a1.15,1.15,0,0,1,.86-.77l2.72-.56a1.16,1.16,0,0,1,1.1.36l1.85,2.07a1.16,1.16,0,0,1,.23,1.13l-.87,2.63a1.15,1.15,0,0,1-.86.77l-2.72.56Zm-.54-3.5,1,1.08,1.41-.29.45-1.37-1-1.08-1.41.29Z" fill="#f2f2f2"/></g><g id="jarSaltParticle-39" data-name="jarSaltParticle"><polygon points="502.66 274.07 500.82 271.99 501.69 269.36 504.41 268.8 506.25 270.87 505.38 273.51 502.66 274.07" fill="#fff"/><path d="M502.66,275.22a1.16,1.16,0,0,1-.86-.39L500,272.76a1.15,1.15,0,0,1-.23-1.13l.87-2.63a1.15,1.15,0,0,1,.86-.77l2.72-.56a1.16,1.16,0,0,1,1.1.36l1.85,2.07a1.16,1.16,0,0,1,.23,1.13l-.87,2.63a1.15,1.15,0,0,1-.86.77l-2.72.56Zm-.54-3.5,1,1.08,1.41-.29.45-1.37-1-1.08-1.41.29Z" fill="#f2f2f2"/></g><g id="jarSaltParticle-40" data-name="jarSaltParticle"><polygon points="502.38 278.25 500.54 276.18 501.41 273.55 504.13 272.98 505.97 275.06 505.1 277.69 502.38 278.25" fill="#fff"/><path d="M502.38,279.41a1.16,1.16,0,0,1-.86-.39l-1.84-2.07a1.15,1.15,0,0,1-.23-1.13l.87-2.63a1.15,1.15,0,0,1,.86-.77l2.72-.56a1.16,1.16,0,0,1,1.1.36l1.85,2.07a1.16,1.16,0,0,1,.23,1.13l-.87,2.63a1.15,1.15,0,0,1-.86.77l-2.72.56Zm-.54-3.5,1,1.08,1.41-.29.45-1.37-1-1.08-1.41.29Z" fill="#f2f2f2"/></g><g id="jarSaltParticle-41" data-name="jarSaltParticle"><polygon points="506.7 274.83 504.85 272.75 505.73 270.12 508.44 269.56 510.29 271.63 509.42 274.27 506.7 274.83" fill="#fff"/><path d="M506.7,276a1.16,1.16,0,0,1-.86-.39L504,273.52a1.15,1.15,0,0,1-.23-1.13l.87-2.63a1.15,1.15,0,0,1,.86-.77l2.72-.56a1.16,1.16,0,0,1,1.1.36l1.85,2.07a1.16,1.16,0,0,1,.23,1.13l-.87,2.63a1.15,1.15,0,0,1-.86.77l-2.72.56Zm-.54-3.5,1,1.08,1.41-.29.45-1.37-1-1.08-1.41.29Z" fill="#f2f2f2"/></g><g id="jarSaltParticle-42" data-name="jarSaltParticle"><polygon points="519.03 278.52 517.19 276.44 518.06 273.81 520.78 273.25 522.63 275.32 521.75 277.95 519.03 278.52" fill="#fff"/><path d="M519,279.67a1.16,1.16,0,0,1-.86-.39l-1.84-2.07a1.15,1.15,0,0,1-.23-1.13l.87-2.63a1.15,1.15,0,0,1,.86-.77l2.72-.56a1.16,1.16,0,0,1,1.1.36l1.85,2.07a1.16,1.16,0,0,1,.23,1.13l-.87,2.63a1.15,1.15,0,0,1-.86.77l-2.72.56Zm-.54-3.5,1,1.08,1.41-.29.45-1.37-1-1.08-1.41.29Z" fill="#f2f2f2"/></g></g><g id="plateSalt"><g id="saltParticle"><polygon points="534.36 281.65 531.69 280.86 531.04 278.16 533.06 276.24 535.73 277.04 536.38 279.74 534.36 281.65" fill="#fff"/><path d="M534.36,282.81a1.16,1.16,0,0,1-.33,0l-2.67-.79a1.16,1.16,0,0,1-.8-.84l-.65-2.71a1.16,1.16,0,0,1,.33-1.11l2-1.91a1.16,1.16,0,0,1,1.12-.27l2.67.79a1.16,1.16,0,0,1,.8.84l.65,2.71a1.16,1.16,0,0,1-.33,1.11l-2,1.91A1.16,1.16,0,0,1,534.36,282.81Zm-1.7-2.87,1.39.41,1-1-.34-1.41-1.39-.41-1,1Z" fill="#f2f2f2"/></g><g id="saltParticle-2" data-name="saltParticle"><polygon points="489.27 268.35 486.56 267.72 485.76 265.05 487.66 263.03 490.37 263.66 491.17 266.32 489.27 268.35" fill="#fff"/><path d="M489.22,269.51l-.22,0-2.71-.64a1.16,1.16,0,0,1-.84-.79l-.8-2.66a1.16,1.16,0,0,1,.26-1.13l1.9-2a1.15,1.15,0,0,1,1.11-.33l2.71.64a1.16,1.16,0,0,1,.84.79l.8,2.66a1.16,1.16,0,0,1-.26,1.13l-1.9,2A1.16,1.16,0,0,1,489.22,269.51Zm-1.75-2.76,1.41.33,1-1.05-.42-1.38L488,264.3l-1,1.05Z" fill="#f2f2f2"/></g><g id="saltParticle-3" data-name="saltParticle"><polygon points="489.02 274.94 486.29 274.42 485.38 271.79 487.2 269.69 489.93 270.21 490.84 272.84 489.02 274.94" fill="#fff"/><path d="M489,276.1l-.22,0-2.73-.52a1.16,1.16,0,0,1-.87-.76l-.91-2.63a1.16,1.16,0,0,1,.22-1.14l1.82-2.1a1.15,1.15,0,0,1,1.09-.38l2.73.52a1.16,1.16,0,0,1,.87.76l.91,2.63a1.16,1.16,0,0,1-.22,1.14l-1.82,2.1A1.16,1.16,0,0,1,489,276.1Zm-1.86-2.69,1.42.27.95-1.09-.47-1.37-1.42-.27-.95,1.09Z" fill="#f2f2f2"/></g><g id="saltParticle-4" data-name="saltParticle"><polygon points="491.43 277.63 488.7 277.1 487.79 274.48 489.61 272.37 492.34 272.9 493.25 275.52 491.43 277.63" fill="#fff"/><path d="M491.43,278.78l-.22,0-2.73-.52a1.16,1.16,0,0,1-.87-.76l-.91-2.63a1.16,1.16,0,0,1,.22-1.14l1.82-2.1a1.15,1.15,0,0,1,1.09-.38l2.73.52a1.16,1.16,0,0,1,.87.76l.91,2.63a1.16,1.16,0,0,1-.22,1.14l-1.82,2.1A1.16,1.16,0,0,1,491.43,278.78Zm-1.86-2.69,1.42.27.95-1.09-.47-1.37-1.42-.27-.95,1.09Z" fill="#f2f2f2"/></g><g id="saltParticle-5" data-name="saltParticle"><polygon points="495.17 279.31 492.44 278.79 491.52 276.16 493.34 274.06 496.07 274.58 496.99 277.21 495.17 279.31" fill="#fff"/><path d="M495.17,280.47l-.22,0-2.73-.52a1.16,1.16,0,0,1-.87-.76l-.91-2.63a1.16,1.16,0,0,1,.22-1.14l1.82-2.1a1.15,1.15,0,0,1,1.09-.38l2.73.52a1.16,1.16,0,0,1,.87.76l.91,2.63a1.16,1.16,0,0,1-.22,1.14l-1.82,2.1A1.16,1.16,0,0,1,495.17,280.47Zm-1.86-2.69,1.42.27.95-1.09-.47-1.37-1.42-.27-.95,1.09Z" fill="#f2f2f2"/></g><g id="saltParticle-6" data-name="saltParticle"><polygon points="499.62 280.49 496.89 279.97 495.98 277.34 497.8 275.24 500.53 275.76 501.44 278.39 499.62 280.49" fill="#fff"/><path d="M499.62,281.65l-.22,0-2.73-.52a1.16,1.16,0,0,1-.87-.76l-.91-2.63a1.16,1.16,0,0,1,.22-1.14l1.82-2.1a1.15,1.15,0,0,1,1.09-.38l2.73.52a1.16,1.16,0,0,1,.87.76l.91,2.63a1.16,1.16,0,0,1-.22,1.14l-1.82,2.1A1.16,1.16,0,0,1,499.62,281.65ZM497.76,279l1.42.27.95-1.09-.47-1.37-1.42-.27-.95,1.09Z" fill="#f2f2f2"/></g><g id="saltParticle-7" data-name="saltParticle"><polygon points="503.75 281.94 501.02 281.42 500.11 278.79 501.93 276.69 504.66 277.21 505.57 279.84 503.75 281.94" fill="#fff"/><path d="M503.75,283.1l-.22,0-2.73-.52a1.16,1.16,0,0,1-.87-.76l-.91-2.63a1.16,1.16,0,0,1,.22-1.14l1.82-2.1a1.15,1.15,0,0,1,1.09-.38l2.73.52a1.16,1.16,0,0,1,.87.76l.91,2.63a1.16,1.16,0,0,1-.22,1.14l-1.82,2.1A1.16,1.16,0,0,1,503.75,283.1Zm-1.86-2.69,1.42.27.95-1.09-.47-1.37-1.42-.27-.95,1.09Z" fill="#f2f2f2"/></g><g id="saltParticle-8" data-name="saltParticle"><polygon points="507.69 281.65 504.95 281.12 504.04 278.5 505.86 276.39 508.59 276.92 509.5 279.55 507.69 281.65" fill="#fff"/><path d="M507.69,282.81l-.22,0-2.73-.52a1.16,1.16,0,0,1-.87-.76l-.91-2.63a1.16,1.16,0,0,1,.22-1.14l1.82-2.1a1.15,1.15,0,0,1,1.09-.38l2.73.52a1.16,1.16,0,0,1,.87.76l.91,2.63a1.16,1.16,0,0,1-.22,1.14l-1.82,2.1A1.16,1.16,0,0,1,507.69,282.81Zm-1.86-2.69,1.42.27.95-1.09-.47-1.37-1.42-.27-.95,1.09Z" fill="#f2f2f2"/></g><g id="saltParticle-9" data-name="saltParticle"><polygon points="512.83 281.06 510.1 280.54 509.19 277.91 511.01 275.8 513.74 276.33 514.65 278.96 512.83 281.06" fill="#fff"/><path d="M512.83,282.22l-.22,0-2.73-.52a1.16,1.16,0,0,1-.87-.76l-.91-2.63a1.16,1.16,0,0,1,.22-1.14l1.82-2.1a1.15,1.15,0,0,1,1.09-.38l2.73.52a1.16,1.16,0,0,1,.87.76l.91,2.63a1.16,1.16,0,0,1-.22,1.14l-1.82,2.1A1.16,1.16,0,0,1,512.83,282.22ZM511,279.53l1.42.27.95-1.09-.47-1.37-1.42-.27-.95,1.09Z" fill="#f2f2f2"/></g><g id="saltParticle-10" data-name="saltParticle"><polygon points="518.72 279.55 515.99 279.03 515.08 276.4 516.9 274.3 519.63 274.82 520.54 277.45 518.72 279.55" fill="#fff"/><path d="M518.72,280.71l-.22,0-2.73-.52a1.16,1.16,0,0,1-.87-.76l-.91-2.63a1.16,1.16,0,0,1,.22-1.14l1.82-2.1a1.15,1.15,0,0,1,1.09-.38l2.73.52a1.16,1.16,0,0,1,.87.76l.91,2.63a1.16,1.16,0,0,1-.22,1.14l-1.82,2.1A1.16,1.16,0,0,1,518.72,280.71ZM516.86,278l1.42.27.95-1.09-.47-1.37-1.42-.27-.95,1.09Z" fill="#f2f2f2"/></g><g id="saltParticle-11" data-name="saltParticle"><polygon points="525.19 279.14 522.46 278.61 521.54 275.99 523.36 273.88 526.1 274.41 527.01 277.04 525.19 279.14" fill="#fff"/><path d="M525.19,280.29l-.22,0-2.73-.52a1.16,1.16,0,0,1-.87-.76l-.91-2.63a1.16,1.16,0,0,1,.22-1.14l1.82-2.1a1.15,1.15,0,0,1,1.09-.38l2.73.52a1.16,1.16,0,0,1,.87.76l.91,2.63a1.16,1.16,0,0,1-.22,1.14l-1.82,2.1A1.16,1.16,0,0,1,525.19,280.29Zm-1.86-2.69,1.42.27.95-1.09-.47-1.37-1.42-.27-.95,1.09Z" fill="#f2f2f2"/></g><g id="saltParticle-12" data-name="saltParticle"><polygon points="530.8 277.57 528.07 277.04 527.16 274.42 528.98 272.31 531.71 272.84 532.62 275.46 530.8 277.57" fill="#fff"/><path d="M530.8,278.72l-.22,0-2.73-.52a1.16,1.16,0,0,1-.87-.76l-.91-2.63a1.16,1.16,0,0,1,.22-1.14l1.82-2.1a1.15,1.15,0,0,1,1.09-.38l2.73.52a1.16,1.16,0,0,1,.87.76l.91,2.63a1.16,1.16,0,0,1-.22,1.14l-1.82,2.1A1.16,1.16,0,0,1,530.8,278.72ZM528.94,276l1.42.27.95-1.09-.47-1.37-1.42-.27-.95,1.09Z" fill="#f2f2f2"/></g><g id="saltParticle-13" data-name="saltParticle"><polygon points="528.86 273.78 526.13 273.26 525.22 270.63 527.04 268.53 529.77 269.05 530.68 271.68 528.86 273.78" fill="#fff"/><path d="M528.86,274.94l-.22,0-2.73-.52a1.16,1.16,0,0,1-.87-.76l-.91-2.63a1.16,1.16,0,0,1,.22-1.14l1.82-2.1a1.15,1.15,0,0,1,1.09-.38l2.73.52a1.16,1.16,0,0,1,.87.76l.91,2.63a1.16,1.16,0,0,1-.22,1.14l-1.82,2.1A1.16,1.16,0,0,1,528.86,274.94ZM527,272.25l1.42.27.95-1.09-.47-1.37-1.42-.27-.95,1.09Z" fill="#f2f2f2"/></g><g id="saltParticle-14" data-name="saltParticle"><polygon points="523.27 274.95 520.54 274.43 519.63 271.8 521.45 269.7 524.18 270.22 525.09 272.85 523.27 274.95" fill="#fff"/><path d="M523.27,276.11l-.22,0-2.73-.52a1.16,1.16,0,0,1-.87-.76l-.91-2.63a1.16,1.16,0,0,1,.22-1.14l1.82-2.1a1.15,1.15,0,0,1,1.09-.38l2.73.52a1.16,1.16,0,0,1,.87.76l.91,2.63a1.16,1.16,0,0,1-.22,1.14l-1.82,2.1A1.16,1.16,0,0,1,523.27,276.11Zm-1.86-2.69,1.42.27.95-1.09-.47-1.37-1.42-.27-.95,1.09Z" fill="#f2f2f2"/></g><g id="saltParticle-15" data-name="saltParticle"><polygon points="517.1 275.01 514.37 274.48 513.46 271.86 515.28 269.75 518.01 270.28 518.92 272.9 517.1 275.01" fill="#fff"/><path d="M517.1,276.17l-.22,0-2.73-.52a1.16,1.16,0,0,1-.87-.76l-.91-2.63a1.16,1.16,0,0,1,.22-1.14l1.82-2.1a1.15,1.15,0,0,1,1.09-.38l2.73.52a1.16,1.16,0,0,1,.87.76l.91,2.63a1.16,1.16,0,0,1-.22,1.14l-1.82,2.1A1.16,1.16,0,0,1,517.1,276.17Zm-1.86-2.69,1.42.27.95-1.09-.47-1.37-1.42-.27-.95,1.09Z" fill="#f2f2f2"/></g><g id="saltParticle-16" data-name="saltParticle"><polygon points="511.53 275.31 508.8 274.79 507.89 272.16 509.71 270.06 512.44 270.58 513.35 273.21 511.53 275.31" fill="#fff"/><path d="M511.53,276.47l-.22,0-2.73-.52a1.16,1.16,0,0,1-.87-.76l-.91-2.63a1.16,1.16,0,0,1,.22-1.14l1.82-2.1a1.15,1.15,0,0,1,1.09-.38l2.73.52a1.16,1.16,0,0,1,.87.76l.91,2.63a1.16,1.16,0,0,1-.22,1.14l-1.82,2.1A1.16,1.16,0,0,1,511.53,276.47Zm-1.86-2.69,1.42.27L512,273l-.47-1.37-1.42-.27-.95,1.09Z" fill="#f2f2f2"/></g><g id="saltParticle-17" data-name="saltParticle"><polygon points="507.15 277.1 504.42 276.58 503.51 273.95 505.33 271.85 508.06 272.37 508.97 275 507.15 277.1" fill="#fff"/><path d="M507.15,278.26l-.22,0-2.73-.52a1.16,1.16,0,0,1-.87-.76l-.91-2.63a1.16,1.16,0,0,1,.22-1.14l1.82-2.1a1.15,1.15,0,0,1,1.09-.38l2.73.52a1.16,1.16,0,0,1,.87.76l.91,2.63a1.16,1.16,0,0,1-.22,1.14l-1.82,2.1A1.16,1.16,0,0,1,507.15,278.26Zm-1.86-2.69,1.42.27.95-1.09-.47-1.37-1.42-.27-.95,1.09Z" fill="#f2f2f2"/></g><g id="saltParticle-18" data-name="saltParticle"><polygon points="503.02 275.65 500.29 275.13 499.38 272.5 501.2 270.39 503.93 270.92 504.84 273.55 503.02 275.65" fill="#fff"/><path d="M503,276.81l-.22,0-2.73-.52a1.16,1.16,0,0,1-.87-.76l-.91-2.63a1.16,1.16,0,0,1,.22-1.14l1.82-2.1a1.15,1.15,0,0,1,1.09-.38l2.73.52a1.16,1.16,0,0,1,.87.76l.91,2.63a1.16,1.16,0,0,1-.22,1.14l-1.82,2.1A1.16,1.16,0,0,1,503,276.81Zm-1.86-2.69,1.42.27.95-1.09-.47-1.37-1.42-.27-.95,1.09Z" fill="#f2f2f2"/></g><g id="saltParticle-19" data-name="saltParticle"><polygon points="497.29 274.54 494.56 274.01 493.65 271.38 495.47 269.28 498.2 269.8 499.11 272.43 497.29 274.54" fill="#fff"/><path d="M497.29,275.69l-.22,0-2.73-.52a1.16,1.16,0,0,1-.87-.76l-.91-2.63a1.16,1.16,0,0,1,.22-1.14l1.82-2.1a1.15,1.15,0,0,1,1.09-.38l2.73.52a1.16,1.16,0,0,1,.87.76l.91,2.63a1.16,1.16,0,0,1-.22,1.14l-1.82,2.1A1.16,1.16,0,0,1,497.29,275.69ZM495.44,273l1.42.27.95-1.09-.47-1.37-1.42-.27-.95,1.09Z" fill="#f2f2f2"/></g><g id="saltParticle-20" data-name="saltParticle"><polygon points="494.63 272.16 491.9 271.64 490.99 269.01 492.81 266.9 495.54 267.43 496.45 270.06 494.63 272.16" fill="#fff"/><path d="M494.63,273.32l-.22,0-2.73-.52a1.16,1.16,0,0,1-.87-.76l-.91-2.63a1.16,1.16,0,0,1,.22-1.14l1.82-2.1a1.15,1.15,0,0,1,1.09-.38l2.73.52a1.16,1.16,0,0,1,.87.76l.91,2.63a1.16,1.16,0,0,1-.22,1.14l-1.82,2.1A1.16,1.16,0,0,1,494.63,273.32Zm-1.86-2.69,1.42.27.95-1.09-.47-1.37-1.42-.27-.95,1.09Z" fill="#f2f2f2"/></g><g id="saltParticle-21" data-name="saltParticle"><polygon points="496.51 268.53 493.78 268 492.87 265.38 494.69 263.27 497.42 263.8 498.33 266.43 496.51 268.53" fill="#fff"/><path d="M496.51,269.68l-.22,0-2.73-.52a1.16,1.16,0,0,1-.87-.76l-.91-2.63a1.16,1.16,0,0,1,.22-1.14l1.82-2.1a1.15,1.15,0,0,1,1.09-.38l2.73.52a1.16,1.16,0,0,1,.87.76l.91,2.63a1.16,1.16,0,0,1-.22,1.14l-1.82,2.1A1.16,1.16,0,0,1,496.51,269.68ZM494.66,267l1.42.27.95-1.09-.47-1.37-1.42-.27-.95,1.09Z" fill="#f2f2f2"/></g><g id="saltParticle-22" data-name="saltParticle"><polygon points="501.3 270.74 498.56 270.21 497.65 267.58 499.47 265.48 502.2 266 503.12 268.63 501.3 270.74" fill="#fff"/><path d="M501.3,271.89l-.22,0-2.73-.52a1.16,1.16,0,0,1-.87-.76l-.91-2.63a1.16,1.16,0,0,1,.22-1.14l1.82-2.1a1.15,1.15,0,0,1,1.09-.38l2.73.52a1.16,1.16,0,0,1,.87.76l.91,2.63a1.16,1.16,0,0,1-.22,1.14l-1.82,2.1A1.16,1.16,0,0,1,501.3,271.89Zm-1.86-2.69,1.42.27.95-1.09-.47-1.37-1.42-.27-.95,1.09Z" fill="#f2f2f2"/></g><g id="saltParticle-23" data-name="saltParticle"><polygon points="507.69 271.87 504.95 271.34 504.04 268.71 505.86 266.61 508.59 267.13 509.5 269.76 507.69 271.87" fill="#fff"/><path d="M507.69,273l-.22,0-2.73-.52a1.16,1.16,0,0,1-.87-.76l-.91-2.63a1.16,1.16,0,0,1,.22-1.14l1.82-2.1a1.15,1.15,0,0,1,1.09-.38l2.73.52a1.16,1.16,0,0,1,.87.76l.91,2.63a1.16,1.16,0,0,1-.22,1.14l-1.82,2.1A1.16,1.16,0,0,1,507.69,273Zm-1.86-2.69,1.42.27.95-1.09-.47-1.37-1.42-.27-.95,1.09Z" fill="#f2f2f2"/></g><g id="saltParticle-24" data-name="saltParticle"><polygon points="513.21 270.85 510.48 270.32 509.57 267.7 511.39 265.59 514.12 266.12 515.03 268.75 513.21 270.85" fill="#fff"/><path d="M513.21,272l-.22,0-2.73-.52a1.16,1.16,0,0,1-.87-.76l-.91-2.63a1.16,1.16,0,0,1,.22-1.14l1.82-2.1a1.15,1.15,0,0,1,1.09-.38l2.73.52a1.16,1.16,0,0,1,.87.76l.91,2.63a1.16,1.16,0,0,1-.22,1.14l-1.82,2.1A1.16,1.16,0,0,1,513.21,272Zm-1.86-2.69,1.42.27.95-1.09-.47-1.37-1.42-.27-.95,1.09Z" fill="#f2f2f2"/></g><g id="saltParticle-25" data-name="saltParticle"><polygon points="519.54 271.16 516.81 270.63 515.9 268.01 517.72 265.9 520.45 266.43 521.36 269.06 519.54 271.16" fill="#fff"/><path d="M519.54,272.32l-.22,0-2.73-.52a1.16,1.16,0,0,1-.87-.76l-.91-2.63a1.16,1.16,0,0,1,.22-1.14l1.82-2.1a1.15,1.15,0,0,1,1.09-.38l2.73.52a1.16,1.16,0,0,1,.87.76l.91,2.63a1.16,1.16,0,0,1-.22,1.14l-1.82,2.1A1.16,1.16,0,0,1,519.54,272.32Zm-1.86-2.69,1.42.27.95-1.09-.47-1.37-1.42-.27-.95,1.09Z" fill="#f2f2f2"/></g><g id="saltParticle-26" data-name="saltParticle"><polygon points="525.71 271.11 522.98 270.58 522.06 267.95 523.88 265.85 526.62 266.37 527.53 269 525.71 271.11" fill="#fff"/><path d="M525.71,272.26l-.22,0-2.73-.52a1.16,1.16,0,0,1-.87-.76l-.91-2.63a1.16,1.16,0,0,1,.22-1.14l1.82-2.1a1.15,1.15,0,0,1,1.09-.38l2.73.52a1.16,1.16,0,0,1,.87.76l.91,2.63a1.16,1.16,0,0,1-.22,1.14l-1.82,2.1A1.16,1.16,0,0,1,525.71,272.26Zm-1.86-2.69,1.42.27.95-1.09-.47-1.37-1.42-.27-.95,1.09Z" fill="#f2f2f2"/></g><g id="saltParticle-27" data-name="saltParticle"><polygon points="529.45 268.58 526.72 268.05 525.8 265.42 527.62 263.32 530.35 263.85 531.26 266.47 529.45 268.58" fill="#fff"/><path d="M529.45,269.73l-.22,0-2.73-.52a1.16,1.16,0,0,1-.87-.76l-.91-2.63a1.16,1.16,0,0,1,.22-1.14l1.82-2.1a1.15,1.15,0,0,1,1.09-.38l2.73.52a1.16,1.16,0,0,1,.87.76l.91,2.63a1.16,1.16,0,0,1-.22,1.14l-1.82,2.1A1.16,1.16,0,0,1,529.45,269.73ZM527.59,267l1.42.27.95-1.09-.47-1.37-1.42-.27-.95,1.09Z" fill="#f2f2f2"/></g><g id="saltParticle-28" data-name="saltParticle"><polygon points="524.97 265.65 522.24 265.13 521.33 262.5 523.15 260.4 525.88 260.92 526.79 263.55 524.97 265.65" fill="#fff"/><path d="M525,266.81l-.22,0-2.73-.52a1.16,1.16,0,0,1-.87-.76l-.91-2.63a1.16,1.16,0,0,1,.22-1.14l1.82-2.1a1.15,1.15,0,0,1,1.09-.38l2.73.52a1.16,1.16,0,0,1,.87.76l.91,2.63a1.16,1.16,0,0,1-.22,1.14l-1.82,2.1A1.16,1.16,0,0,1,525,266.81Zm-1.86-2.69,1.42.27.95-1.09-.47-1.37-1.42-.27-.95,1.09Z" fill="#f2f2f2"/></g><g id="saltParticle-29" data-name="saltParticle"><polygon points="519.79 266.3 517.06 265.78 516.15 263.15 517.97 261.05 520.7 261.57 521.61 264.2 519.79 266.3" fill="#fff"/><path d="M519.79,267.46l-.22,0-2.73-.52a1.16,1.16,0,0,1-.87-.76l-.91-2.63a1.16,1.16,0,0,1,.22-1.14l1.82-2.1a1.15,1.15,0,0,1,1.09-.38l2.73.52a1.16,1.16,0,0,1,.87.76l.91,2.63a1.16,1.16,0,0,1-.22,1.14l-1.82,2.1A1.16,1.16,0,0,1,519.79,267.46Zm-1.86-2.69,1.42.27.95-1.09-.47-1.37-1.42-.27-.95,1.09Z" fill="#f2f2f2"/></g><g id="saltParticle-30" data-name="saltParticle"><polygon points="513.25 267.13 510.52 266.6 509.6 263.98 511.42 261.87 514.15 262.4 515.07 265.02 513.25 267.13" fill="#fff"/><path d="M513.25,268.28l-.22,0-2.73-.52a1.16,1.16,0,0,1-.87-.76l-.91-2.63a1.16,1.16,0,0,1,.22-1.14l1.82-2.1a1.15,1.15,0,0,1,1.09-.38l2.73.52a1.16,1.16,0,0,1,.87.76l.91,2.63a1.16,1.16,0,0,1-.22,1.14l-1.82,2.1A1.16,1.16,0,0,1,513.25,268.28Zm-1.86-2.69,1.42.27.95-1.09-.47-1.37-1.42-.27-.95,1.09Z" fill="#f2f2f2"/></g><g id="saltParticle-31" data-name="saltParticle"><polygon points="511.57 264.54 508.84 264.02 507.93 261.39 509.75 259.29 512.48 259.81 513.39 262.44 511.57 264.54" fill="#fff"/><path d="M511.57,265.7l-.22,0-2.73-.52a1.16,1.16,0,0,1-.87-.76l-.91-2.63a1.16,1.16,0,0,1,.22-1.14l1.82-2.1a1.15,1.15,0,0,1,1.09-.38l2.73.52a1.16,1.16,0,0,1,.87.76l.91,2.63a1.16,1.16,0,0,1-.22,1.14l-1.82,2.1A1.16,1.16,0,0,1,511.57,265.7ZM509.72,263l1.42.27.95-1.09-.47-1.37-1.42-.27-.95,1.09Z" fill="#f2f2f2"/></g><g id="saltParticle-32" data-name="saltParticle"><polygon points="506.85 267.39 504.11 266.86 503.2 264.24 505.02 262.13 507.75 262.66 508.66 265.28 506.85 267.39" fill="#fff"/><path d="M506.85,268.54l-.22,0L503.9,268a1.16,1.16,0,0,1-.87-.76l-.91-2.63a1.16,1.16,0,0,1,.22-1.14l1.82-2.1a1.15,1.15,0,0,1,1.09-.38l2.73.52a1.16,1.16,0,0,1,.87.76l.91,2.63a1.16,1.16,0,0,1-.22,1.14l-1.82,2.1A1.16,1.16,0,0,1,506.85,268.54ZM505,265.85l1.42.27.95-1.09-.47-1.37-1.42-.27-.95,1.09Z" fill="#f2f2f2"/></g><g id="saltParticle-33" data-name="saltParticle"><polygon points="502.06 265.18 499.33 264.65 498.42 262.03 500.24 259.92 502.97 260.45 503.88 263.07 502.06 265.18" fill="#fff"/><path d="M502.06,266.33l-.22,0-2.73-.52a1.16,1.16,0,0,1-.87-.76l-.91-2.63a1.16,1.16,0,0,1,.22-1.14l1.82-2.1a1.15,1.15,0,0,1,1.09-.38l2.73.52a1.16,1.16,0,0,1,.87.76l.91,2.63a1.16,1.16,0,0,1-.22,1.14l-1.82,2.1A1.16,1.16,0,0,1,502.06,266.33Zm-1.86-2.69,1.42.27.95-1.09-.47-1.37-1.42-.27-.95,1.09Z" fill="#f2f2f2"/></g><g id="saltParticle-34" data-name="saltParticle"><polygon points="526.86 283.34 525.43 280.95 526.78 278.52 529.56 278.47 530.99 280.86 529.64 283.29 526.86 283.34" fill="#fff"/><path d="M526.86,284.49a1.16,1.16,0,0,1-1-.56l-1.43-2.38a1.16,1.16,0,0,1,0-1.16l1.35-2.43a1.16,1.16,0,0,1,1-.6l2.78,0a1.17,1.17,0,0,1,1,.56l1.43,2.38a1.16,1.16,0,0,1,0,1.16l-1.35,2.43a1.16,1.16,0,0,1-1,.6l-2.78,0Zm-.1-3.56.74,1.24,1.45,0,.7-1.26-.74-1.24-1.44,0Z" fill="#f2f2f2"/></g><g id="saltParticle-35" data-name="saltParticle"><polygon points="511.24 287.14 508.58 286.35 507.93 283.64 509.95 281.73 512.62 282.52 513.26 285.23 511.24 287.14" fill="#fff"/><path d="M511.24,288.3a1.16,1.16,0,0,1-.33,0l-2.67-.79a1.16,1.16,0,0,1-.8-.84l-.65-2.71a1.16,1.16,0,0,1,.33-1.11l2-1.91a1.16,1.16,0,0,1,1.12-.27l2.67.79a1.16,1.16,0,0,1,.8.84l.65,2.71a1.16,1.16,0,0,1-.33,1.11L512,288A1.16,1.16,0,0,1,511.24,288.3Zm-1.7-2.87,1.39.41,1-1-.34-1.41-1.39-.41-1,1Z" fill="#f2f2f2"/></g><g id="saltParticle-36" data-name="saltParticle"><polygon points="500.4 285.43 497.67 284.91 496.76 282.28 498.58 280.18 501.31 280.7 502.22 283.33 500.4 285.43" fill="#fff"/><path d="M500.4,286.59l-.22,0-2.73-.52a1.16,1.16,0,0,1-.87-.76l-.91-2.63a1.16,1.16,0,0,1,.22-1.14l1.82-2.1a1.15,1.15,0,0,1,1.09-.38l2.73.52a1.16,1.16,0,0,1,.87.76l.91,2.63a1.16,1.16,0,0,1-.22,1.14l-1.82,2.1A1.16,1.16,0,0,1,500.4,286.59Zm-1.86-2.69,1.42.27.95-1.09-.47-1.37-1.42-.27-.95,1.09Z" fill="#f2f2f2"/></g><g id="saltParticle-37" data-name="saltParticle"><polygon points="515.28 285 512.64 284.15 512.05 281.43 514.12 279.56 516.76 280.42 517.35 283.14 515.28 285" fill="#fff"/><path d="M515.28,286.16a1.17,1.17,0,0,1-.36-.06l-2.65-.86a1.16,1.16,0,0,1-.78-.86l-.58-2.72a1.16,1.16,0,0,1,.36-1.1l2.06-1.86a1.16,1.16,0,0,1,1.13-.24l2.65.86a1.16,1.16,0,0,1,.78.86l.58,2.72a1.16,1.16,0,0,1-.36,1.1l-2.06,1.86A1.16,1.16,0,0,1,515.28,286.16Zm-1.65-2.91,1.38.44,1.07-1-.3-1.41-1.38-.44-1.07,1Z" fill="#f2f2f2"/></g><g id="saltParticle-38" data-name="saltParticle"><polygon points="523.89 281.75 521.57 283.28 519.08 282.03 518.92 279.26 521.24 277.73 523.73 278.98 523.89 281.75" fill="#fff"/><path d="M521.57,284.44a1.16,1.16,0,0,1-.52-.12l-2.49-1.25a1.16,1.16,0,0,1-.64-1l-.16-2.78a1.16,1.16,0,0,1,.52-1l2.32-1.53a1.16,1.16,0,0,1,1.15-.07l2.49,1.25a1.15,1.15,0,0,1,.64,1l.16,2.78a1.16,1.16,0,0,1-.52,1l-2.32,1.53A1.15,1.15,0,0,1,521.57,284.44Zm-1.37-3.14,1.29.65,1.21-.79-.08-1.44-1.29-.65-1.21.8Z" fill="#f2f2f2"/></g><g id="saltParticle-39" data-name="saltParticle"><polygon points="503.74 287.04 502.31 284.65 503.66 282.22 506.44 282.17 507.88 284.56 506.52 286.99 503.74 287.04" fill="#fff"/><path d="M503.74,288.19a1.16,1.16,0,0,1-1-.56l-1.43-2.38a1.16,1.16,0,0,1,0-1.16l1.35-2.43a1.16,1.16,0,0,1,1-.6l2.78,0a1.17,1.17,0,0,1,1,.56l1.43,2.38a1.16,1.16,0,0,1,0,1.16l-1.35,2.43a1.16,1.16,0,0,1-1,.6l-2.78,0Zm-.1-3.56.74,1.24,1.45,0,.7-1.26-.74-1.24-1.44,0Z" fill="#f2f2f2"/></g><g id="saltParticle-40" data-name="saltParticle"><polygon points="488.1 282.29 486.35 280.12 487.35 277.53 490.1 277.09 491.85 279.26 490.85 281.85 488.1 282.29" fill="#fff"/><path d="M487.45,283.24a1.16,1.16,0,0,1-.24-.23l-1.75-2.16a1.16,1.16,0,0,1-.18-1.14l1-2.6a1.16,1.16,0,0,1,.9-.73l2.75-.43a1.16,1.16,0,0,1,1.08.42l1.75,2.16a1.16,1.16,0,0,1,.18,1.14l-1,2.6a1.16,1.16,0,0,1-.9.73l-2.75.43A1.16,1.16,0,0,1,487.45,283.24Zm.23-3.32.91,1.12,1.43-.23.52-1.35-.91-1.12-1.43.23Z" fill="#f2f2f2"/></g><g id="saltParticle-41" data-name="saltParticle"><polygon points="492.64 282.81 490.94 280.61 492 278.03 494.76 277.67 496.46 279.87 495.4 282.44 492.64 282.81" fill="#fff"/><path d="M492,283.76a1.17,1.17,0,0,1-.26-.25l-1.7-2.2a1.16,1.16,0,0,1-.15-1.15l1.06-2.57a1.16,1.16,0,0,1,.92-.71l2.76-.37a1.16,1.16,0,0,1,1.07.44l1.7,2.2a1.16,1.16,0,0,1,.15,1.15l-1.06,2.57a1.16,1.16,0,0,1-.92.71l-2.76.37A1.16,1.16,0,0,1,492,283.76Zm.28-3.33.88,1.15,1.43-.19.55-1.34-.88-1.15-1.43.19Z" fill="#f2f2f2"/></g></g><g id="strokeTopBottom"><path d="M557.15,379.51c0,13.53-27.45,25-60,25-14.77,0-29-2.31-40-6.51a5.5,5.5,0,0,0-.82-.23l-.23,0c-.25,0-.52-.08-.8-.1l-.22,0c-.34,0-.71,0-1.09,0h-.44l-.89,0-.46,0c-2.06.15-4.61.5-7.73,1l-2,.29c-1.9.27-3.75.51-5.3.62a14.92,14.92,0,0,1-2.89,0v0h0l.1-.17.14-.23.13-.2.19-.27.16-.21.22-.29.18-.23.23-.3.18-.23.25-.31.13-.16,1.11-1.31c2.71-3.17,5-5.92,3.28-8a13,13,0,0,1-3.28-7,10,10,0,0,1-.05-1h-3.46a15.62,15.62,0,0,0,3.85,9.92,26.27,26.27,0,0,1-3,3.89c-2.68,3.14-4.3,5.16-4,7.08a2.65,2.65,0,0,0,1.21,1.86,3.65,3.65,0,0,0,.56.28l.22.09a5.12,5.12,0,0,0,.58.17l.4.07.4.05.6.05.65,0h.7a81.78,81.78,0,0,0,9-1l1-.15.42-.06.62-.09,1-.14.3,0,.72-.09.17,0,1.13-.14.51-.06.39,0a16,16,0,0,1,4.47,0l.23.07c11.44,4.34,26.1,6.73,41.28,6.73,35.56,0,63.41-12.49,63.41-28.42Z" fill="#00d4ff"/></g></g><g id="circle-2"><g id="c-2-bg"><circle cx="741.51" cy="382.22" r="155" fill="#fff"/></g><g id="c-2-mol"><g id="c-3-H20"><g id="c-3-H20-5"><circle cx="747.28" cy="387.91" r="13.9" transform="translate(192.91 1021.61) rotate(-76.25)" fill="url(#radial-gradient)"/><circle cx="747.12" cy="369.86" r="7.22" transform="translate(210.32 1007.69) rotate(-76.25)" fill="url(#radial-gradient-2)"/><circle cx="729.05" cy="382.97" r="7.22" transform="translate(183.81 1000.13) rotate(-76.25)" fill="url(#radial-gradient-3)"/><path d="M748.63,383a6.1,6.1,0,0,1,3.74,2.3,4.73,4.73,0,0,1,.59,4,4.79,4.79,0,0,1-2.35,3.31,6.15,6.15,0,0,1-4.42.29,6.07,6.07,0,0,1-3.76-2.29,4.82,4.82,0,0,1-.55-4,4.72,4.72,0,0,1,2.36-3.26A6.1,6.1,0,0,1,748.63,383Zm-2.1,8.58a5.26,5.26,0,0,0,3.55-.12A3.92,3.92,0,0,0,751.4,386a6.65,6.65,0,0,0-6.62-1.62,3.35,3.35,0,0,0-1.78,2.42,3.42,3.42,0,0,0,.46,3A5.21,5.21,0,0,0,746.53,391.57Z" fill="#fff"/></g><g id="c-3-H20-4"><circle cx="747" cy="386.13" r="13.9" transform="translate(-90.52 310.89) rotate(-22.2)" fill="url(#radial-gradient-4)"/><circle cx="736.27" cy="371.61" r="7.22" transform="translate(-85.83 305.76) rotate(-22.2)" fill="url(#radial-gradient-5)"/><circle cx="729.34" cy="392.83" r="7.22" transform="translate(-94.37 304.71) rotate(-22.2)" fill="url(#radial-gradient-6)"/><path d="M745.2,381.36a6.1,6.1,0,0,1,4.38-.34,4.73,4.73,0,0,1,2.82,2.89,4.79,4.79,0,0,1,0,4.06A6.15,6.15,0,0,1,749,390.8a6.07,6.07,0,0,1-4.39.35,4.82,4.82,0,0,1-2.81-2.95,4.72,4.72,0,0,1,0-4A6.1,6.1,0,0,1,745.2,381.36Zm3.34,8.18a5.26,5.26,0,0,0,2.8-2.18,3.92,3.92,0,0,0-2.1-5.16,6.65,6.65,0,0,0-6.31,2.57,3.35,3.35,0,0,0,0,3,3.42,3.42,0,0,0,2.14,2.15A5.21,5.21,0,0,0,748.54,389.53Z" fill="#fff"/></g><g id="c-3-H20-3"><circle cx="744.64" cy="376.92" r="13.9" transform="translate(-89.65 354.08) rotate(-25.28)" fill="url(#radial-gradient-7)"/><circle cx="730.72" cy="388.42" r="7.22" transform="translate(-95.89 349.24) rotate(-25.28)" fill="url(#radial-gradient-8)"/><circle cx="752.29" cy="394.2" r="7.22" transform="translate(-96.29 359) rotate(-25.28)" fill="url(#radial-gradient-9)"/><path d="M740,379a6.1,6.1,0,0,1-.57-4.36,4.73,4.73,0,0,1,2.73-3,4.79,4.79,0,0,1,4.06-.26,6.15,6.15,0,0,1,3,3.25,6.07,6.07,0,0,1,.59,4.36,4.82,4.82,0,0,1-2.79,3,4.72,4.72,0,0,1-4,.22A6.1,6.1,0,0,1,740,379Zm8-3.77a5.26,5.26,0,0,0-2.33-2.68,3.92,3.92,0,0,0-5,2.37,6.65,6.65,0,0,0,2.91,6.16,3.35,3.35,0,0,0,3-.14,3.42,3.42,0,0,0,2-2.25A5.21,5.21,0,0,0,748,375.21Z" fill="#fff"/></g><g id="c-3-H20-2"><circle cx="735.73" cy="376.54" r="13.9" transform="translate(195.15 1001.72) rotate(-76.25)" fill="url(#radial-gradient-10)"/><circle cx="735.89" cy="394.59" r="7.22" transform="translate(177.74 1015.63) rotate(-76.25)" fill="url(#radial-gradient-11)"/><circle cx="753.96" cy="381.48" r="7.22" transform="translate(204.25 1023.19) rotate(-76.25)" fill="url(#radial-gradient-12)"/><path d="M734.38,381.46a6.1,6.1,0,0,1-3.74-2.3,4.73,4.73,0,0,1-.59-4,4.79,4.79,0,0,1,2.35-3.31,6.15,6.15,0,0,1,4.42-.29,6.07,6.07,0,0,1,3.76,2.29,4.82,4.82,0,0,1,.55,4,4.72,4.72,0,0,1-2.36,3.26A6.1,6.1,0,0,1,734.38,381.46Zm2.1-8.58a5.26,5.26,0,0,0-3.55.12,3.92,3.92,0,0,0-1.33,5.41,6.65,6.65,0,0,0,6.62,1.62,3.35,3.35,0,0,0,1.78-2.42,3.42,3.42,0,0,0-.46-3A5.21,5.21,0,0,0,736.48,372.88Z" fill="#fff"/></g><g id="c-3-H20-1"><circle cx="736.01" cy="378.32" r="13.9" transform="translate(-88.39 306.16) rotate(-22.2)" fill="url(#radial-gradient-13)"/><circle cx="746.74" cy="392.83" r="7.22" transform="translate(-93.07 311.29) rotate(-22.2)" fill="url(#radial-gradient-14)"/><circle cx="753.68" cy="371.61" r="7.22" transform="translate(-84.54 312.33) rotate(-22.2)" fill="url(#radial-gradient-15)"/><path d="M737.81,383.09a6.1,6.1,0,0,1-4.38.34,4.73,4.73,0,0,1-2.82-2.89,4.79,4.79,0,0,1,0-4.06,6.15,6.15,0,0,1,3.41-2.83,6.07,6.07,0,0,1,4.39-.35,4.82,4.82,0,0,1,2.81,2.95,4.72,4.72,0,0,1,0,4A6.1,6.1,0,0,1,737.81,383.09Zm-3.34-8.18a5.26,5.26,0,0,0-2.8,2.18,3.92,3.92,0,0,0,2.1,5.16,6.65,6.65,0,0,0,6.31-2.57,3.35,3.35,0,0,0,0-3,3.42,3.42,0,0,0-2.14-2.15A5.21,5.21,0,0,0,734.48,374.91Z" fill="#fff"/></g><g id="c-3-H20-0"><circle cx="738.37" cy="387.52" r="13.9" transform="translate(-94.78 352.42) rotate(-25.28)" fill="url(#radial-gradient-16)"/><circle cx="752.29" cy="376.03" r="7.22" transform="translate(-88.54 357.26) rotate(-25.28)" fill="url(#radial-gradient-17)"/><circle cx="730.72" cy="370.25" r="7.22" transform="translate(-88.13 347.5) rotate(-25.28)" fill="url(#radial-gradient-18)"/><path d="M743,385.47a6.1,6.1,0,0,1,.57,4.36,4.73,4.73,0,0,1-2.73,3,4.79,4.79,0,0,1-4.06.26,6.15,6.15,0,0,1-3-3.25,6.07,6.07,0,0,1-.59-4.36,4.82,4.82,0,0,1,2.79-3,4.72,4.72,0,0,1,4-.22A6.1,6.1,0,0,1,743,385.47Zm-8,3.77a5.26,5.26,0,0,0,2.33,2.68,3.92,3.92,0,0,0,5-2.37,6.65,6.65,0,0,0-2.91-6.16,3.35,3.35,0,0,0-3,.14,3.42,3.42,0,0,0-2,2.25A5.21,5.21,0,0,0,735.05,389.24Z" fill="#fff"/></g></g><g id="c-3-Cl2Ba"><circle cx="750.57" cy="357.22" r="27" transform="translate(206.15 985.37) rotate(-74.54)" fill="url(#radial-gradient-19)"/><path d="M743.21,348.44l3.64,1a7.13,7.13,0,0,1,3.5,1.8,2.81,2.81,0,0,1,.48,2.74,2.91,2.91,0,0,1-1.16,1.72,3.2,3.2,0,0,1-2.13.45l0,.09q2.8,1.32,2.08,3.9a3.44,3.44,0,0,1-1.92,2.38,5.16,5.16,0,0,1-3.54.07l-4.5-1.25Zm0,5.94,2.47.68a4.17,4.17,0,0,0,2.42.13,2,2,0,0,0,1.16-1.49,1.77,1.77,0,0,0-.34-1.78,5,5,0,0,0-2.34-1.16l-2.21-.61Zm-.35,1.27-1.34,4.83,2.69.74a4,4,0,0,0,2.52,0,2.32,2.32,0,0,0,1.31-1.67,2.08,2.08,0,0,0-.32-2,4.48,4.48,0,0,0-2.3-1.24Z" fill="#fff"/><path d="M757.07,366.16l.09-1.46-.07,0a4.22,4.22,0,0,1-1.78.83,4.57,4.57,0,0,1-1.88-.17,3.35,3.35,0,0,1-2-1.36,2.81,2.81,0,0,1-.23-2.33q.81-2.93,5.53-1.77l1.66.4.17-.6a2.54,2.54,0,0,0,0-1.82,2.09,2.09,0,0,0-1.42-1,6.62,6.62,0,0,0-2.94,0l-.14-1.25a7.13,7.13,0,0,1,1.73-.18,7,7,0,0,1,1.77.25,3.82,3.82,0,0,1,2.35,1.48,3.32,3.32,0,0,1,.15,2.69l-1.83,6.6Zm-3-1.95a3.08,3.08,0,0,0,2.36-.16,2.88,2.88,0,0,0,1.36-1.88l.24-.87-1.48-.34a5.53,5.53,0,0,0-2.67-.15,1.7,1.7,0,0,0-1.19,1.28,1.57,1.57,0,0,0,.15,1.34A2.07,2.07,0,0,0,754,364.21Z" fill="#fff"/><circle cx="690.04" cy="375.75" r="30" transform="translate(143.9 940.61) rotate(-74.54)" fill="url(#radial-gradient-20)"/><path d="M690.85,369.86a4.86,4.86,0,0,0-4.17.54,6.59,6.59,0,0,0-2.56,3.93,6.72,6.72,0,0,0,.12,4.71,4.86,4.86,0,0,0,3.34,2.57,13.32,13.32,0,0,0,3.57.41l-.4,1.46a10.93,10.93,0,0,1-3.83-.46,6.45,6.45,0,0,1-4.36-3.27,8.21,8.21,0,0,1-.21-5.94,8.94,8.94,0,0,1,1.9-3.65,6.17,6.17,0,0,1,3.1-1.91,7.51,7.51,0,0,1,3.93.12,9.22,9.22,0,0,1,3.71,1.91l-1.1,1.24A7.88,7.88,0,0,0,690.85,369.86Z" fill="#fff"/><path d="M695.16,385.1l-1.63-.45,4.22-15.26,1.63.45Z" fill="#fff"/><circle cx="792.97" cy="404.23" r="30" transform="translate(191.94 1060.7) rotate(-74.54)" fill="url(#radial-gradient-21)"/><path d="M793.79,398.34a4.86,4.86,0,0,0-4.17.54,6.59,6.59,0,0,0-2.56,3.93,6.72,6.72,0,0,0,.12,4.71,4.86,4.86,0,0,0,3.34,2.57,13.32,13.32,0,0,0,3.57.41l-.4,1.46a10.93,10.93,0,0,1-3.83-.46,6.45,6.45,0,0,1-4.36-3.27,8.21,8.21,0,0,1-.21-5.94,8.94,8.94,0,0,1,1.9-3.65,6.17,6.17,0,0,1,3.1-1.91,7.51,7.51,0,0,1,3.93.12,9.22,9.22,0,0,1,3.71,1.91l-1.1,1.24A7.88,7.88,0,0,0,793.79,398.34Z" fill="#fff"/><path d="M798.09,413.58l-1.63-.45,4.22-15.26,1.63.45Z" fill="#fff"/></g><g id="c-3-NH3"><g id="c-3-NH3-1"><circle cx="740.88" cy="390.26" r="18.29" fill="url(#radial-gradient-22)"/><circle cx="718.5" cy="381.55" r="9.51" fill="url(#radial-gradient-23)"/><circle cx="764.51" cy="381.55" r="9.51" fill="url(#radial-gradient-24)"/><circle cx="741.51" cy="365.4" r="9.51" fill="url(#radial-gradient-25)"/><path d="M746.59,397.77h-1.94l-8-12.25h-.08q.16,2.16.16,4v8.3h-1.57v-14.6h1.92l8,12.2h.08q0-.27-.09-1.73t0-2.09v-8.38h1.59Z" fill="#fff"/></g><g id="c-3-NH3-0"><circle cx="740.88" cy="390.26" r="18.29" fill="url(#radial-gradient-22)"/><circle cx="718.5" cy="381.55" r="9.51" fill="url(#radial-gradient-23)"/><circle cx="764.51" cy="381.55" r="9.51" fill="url(#radial-gradient-24)"/><circle cx="741.51" cy="365.4" r="9.51" fill="url(#radial-gradient-25)"/><path d="M746.59,397.77h-1.94l-8-12.25h-.08q.16,2.16.16,4v8.3h-1.57v-14.6h1.92l8,12.2h.08q0-.27-.09-1.73t0-2.09v-8.38h1.59Z" fill="#fff"/></g></g></g><g id="c-0-stick"><line x1="514.2" y1="507.07" x2="608.19" y2="461.32" fill="#231f20" stroke="#231f20" stroke-miterlimit="10"/><ellipse cx="514.16" cy="507.09" rx="2.2" ry="2.14" transform="translate(-98.99 125.58) rotate(-12.71)" fill="#231f20"/></g><g id="c-2-stroke"><circle cx="741.51" cy="382.22" r="155" fill="none" stroke="#231f20" stroke-miterlimit="10"/></g></g><g id="circle-1"><circle id="c-1-bg" cx="224.05" cy="311.17" r="95" fill="#fff"/><g id="c-1-mol-0"><circle cx="222.87" cy="358.75" r="30" transform="translate(-190.96 443.13) rotate(-69.67)" fill="url(#radial-gradient-30)"/><path d="M224.18,353a4.86,4.86,0,0,0-4.2.19,6.59,6.59,0,0,0-2.88,3.7,6.72,6.72,0,0,0-.28,4.71,4.86,4.86,0,0,0,3.11,2.85,13.32,13.32,0,0,0,3.52.71l-.53,1.42a10.93,10.93,0,0,1-3.78-.78,6.45,6.45,0,0,1-4.06-3.63,8.21,8.21,0,0,1,.29-5.93,8.94,8.94,0,0,1,2.21-3.48,6.17,6.17,0,0,1,3.25-1.64,7.51,7.51,0,0,1,3.91.45,9.22,9.22,0,0,1,3.54,2.22l-1.2,1.14A7.88,7.88,0,0,0,224.18,353Z" fill="#fff"/><path d="M227.18,368.5l-1.58-.59,5.5-14.84,1.58.59Z" fill="#fff"/><circle cx="183.83" cy="321.24" r="18.29" transform="translate(-156.36 467.05) rotate(-83.42)" fill="url(#radial-gradient-31)"/><circle cx="162.6" cy="310.02" r="9.51" transform="translate(-164.02 436.01) rotate(-83.42)" fill="url(#radial-gradient-32)"/><circle cx="208.3" cy="315.29" r="9.51" transform="translate(-128.79 486.09) rotate(-83.42)" fill="url(#radial-gradient-33)"/><circle cx="187.3" cy="296.61" r="9.51" transform="translate(-128.82 448.68) rotate(-83.42)" fill="url(#radial-gradient-34)"/><circle cx="181.46" cy="347.26" r="9.51" transform="translate(-184.31 487.72) rotate(-83.42)" fill="url(#radial-gradient-35)"/><path d="M188.64,329.35l-1.92-.22L180.2,316h-.08q-.09,2.16-.29,3.95l-1,8.24-1.56-.18,1.67-14.5,1.9.22,6.51,13h.08q0-.27.11-1.73t.19-2.08l1-8.32,1.58.18Z" fill="#fff"/></g><g id="c-1-mol-1"><circle cx="219.22" cy="264.65" r="30" transform="translate(-88.67 417.29) rotate(-76.73)" fill="url(#radial-gradient-36)"/><path d="M219.81,258.74a4.86,4.86,0,0,0-4.14.7,6.59,6.59,0,0,0-2.41,4,6.72,6.72,0,0,0,.3,4.71,4.86,4.86,0,0,0,3.43,2.44,13.32,13.32,0,0,0,3.58.27l-.35,1.48a10.93,10.93,0,0,1-3.85-.31,6.45,6.45,0,0,1-4.48-3.1,8.21,8.21,0,0,1-.44-5.92,8.94,8.94,0,0,1,1.76-3.72,6.17,6.17,0,0,1,3-2,7.51,7.51,0,0,1,3.93,0A9.22,9.22,0,0,1,224,259l-1.05,1.28A7.88,7.88,0,0,0,219.81,258.74Z" fill="#fff"/><path d="M224.69,273.8l-1.64-.39L226.68,258l1.64.39Z" fill="#fff"/><circle cx="255.61" cy="302.81" r="18.29" transform="matrix(0.99, -0.16, 0.16, 0.99, -44.64, 44.2)" fill="url(#radial-gradient-37)"/><circle cx="260.68" cy="279.33" r="9.51" transform="translate(-40.87 44.71) rotate(-9.09)" fill="url(#radial-gradient-38)"/><circle cx="267.95" cy="324.76" r="9.51" transform="translate(-47.96 46.43) rotate(-9.09)" fill="url(#radial-gradient-39)"/><circle cx="280.26" cy="299.49" r="9.51" transform="translate(-43.81 48.05) rotate(-9.09)" fill="url(#radial-gradient-40)"/><circle cx="229.92" cy="307.55" r="9.51" transform="translate(-45.71 40.2) rotate(-9.09)" fill="url(#radial-gradient-41)"/><path d="M249.1,309.63l-.31-1.91,10.84-9.81v-.08q-2.1.5-3.88.78l-8.19,1.31-.25-1.55,14.41-2.31L262,298l-10.79,9.79v.08l1.7-.36q1.43-.3,2.06-.38l8.27-1.32.25,1.57Z" fill="#fff"/></g><g id="c-1-stick"><line x1="518.57" y1="266.92" x2="317.6" y2="295.65" fill="#231f20" stroke="#231f20" stroke-miterlimit="10"/><circle cx="518.61" cy="266.91" r="2" transform="translate(203.74 757.87) rotate(-84.56)" fill="#231f20"/></g><circle id="c-1-stroke" cx="224.05" cy="311.17" r="95" fill="none" stroke="#231f20" stroke-miterlimit="10"/></g><g id="circle-0"><circle id="c-0-bg" cx="800.43" cy="368.46" r="95" fill="#fff"/><g id="c-0-mol"><g id="BA"><circle cx="800.43" cy="368.46" r="27" fill="url(#radial-gradient-42)"/><path d="M791,362h3.78a7.13,7.13,0,0,1,3.85.8,2.81,2.81,0,0,1,1.19,2.52,2.91,2.91,0,0,1-.66,2,3.2,3.2,0,0,1-1.94,1v.09q3,.52,3,3.2a3.44,3.44,0,0,1-1.21,2.8,5.16,5.16,0,0,1-3.39,1H791Zm1.56,5.73h2.56a4.17,4.17,0,0,0,2.37-.52,2,2,0,0,0,.72-1.74,1.77,1.77,0,0,0-.81-1.63,5,5,0,0,0-2.56-.5h-2.29Zm0,1.32v5h2.79a4,4,0,0,0,2.44-.63,2.32,2.32,0,0,0,.82-2,2.08,2.08,0,0,0-.84-1.83,4.48,4.48,0,0,0-2.55-.59Z" fill="#fff"/><path d="M809.08,375.34l-.3-1.43h-.07a4.22,4.22,0,0,1-1.5,1.28,4.57,4.57,0,0,1-1.86.33,3.35,3.35,0,0,1-2.34-.77,2.81,2.81,0,0,1-.85-2.19q0-3,4.86-3.19l1.7-.05v-.62a2.54,2.54,0,0,0-.51-1.74,2.09,2.09,0,0,0-1.63-.56,6.62,6.62,0,0,0-2.84.77l-.47-1.16a7.13,7.13,0,0,1,1.63-.63,7,7,0,0,1,1.77-.23,3.82,3.82,0,0,1,2.66.8,3.32,3.32,0,0,1,.87,2.55v6.85Zm-3.43-1.07a3.08,3.08,0,0,0,2.23-.78,2.88,2.88,0,0,0,.81-2.18v-.91l-1.52.06a5.53,5.53,0,0,0-2.61.56,1.7,1.7,0,0,0-.8,1.55,1.57,1.57,0,0,0,.5,1.25A2.07,2.07,0,0,0,805.64,374.27Z" fill="#fff"/></g><g id="H2O"><circle cx="778.69" cy="328.7" r="13.9" transform="translate(274.37 1006.97) rotate(-76.25)" fill="url(#radial-gradient-43)"/><circle cx="778.52" cy="310.65" r="7.22" transform="translate(291.77 993.06) rotate(-76.25)" fill="url(#radial-gradient-44)"/><circle cx="760.45" cy="323.76" r="7.22" transform="translate(265.26 985.5) rotate(-76.25)" fill="url(#radial-gradient-45)"/><path d="M780,323.78a6.1,6.1,0,0,1,3.74,2.3,4.73,4.73,0,0,1,.59,4,4.79,4.79,0,0,1-2.35,3.31,6.15,6.15,0,0,1-4.42.29,6.07,6.07,0,0,1-3.76-2.29,4.82,4.82,0,0,1-.55-4,4.72,4.72,0,0,1,2.36-3.26A6.1,6.1,0,0,1,780,323.78Zm-2.1,8.58a5.26,5.26,0,0,0,3.55-.12,3.92,3.92,0,0,0,1.33-5.41,6.65,6.65,0,0,0-6.62-1.62,3.35,3.35,0,0,0-1.78,2.42,3.42,3.42,0,0,0,.46,3A5.21,5.21,0,0,0,777.93,332.36Z" fill="#fff"/><circle cx="750.68" cy="369.47" r="13.9" transform="translate(-83.95 311.04) rotate(-22.2)" fill="url(#radial-gradient-46)"/><circle cx="739.95" cy="354.95" r="7.22" transform="translate(-79.26 305.91) rotate(-22.2)" fill="url(#radial-gradient-47)"/><circle cx="733.01" cy="376.17" r="7.22" transform="translate(-87.8 304.87) rotate(-22.2)" fill="url(#radial-gradient-48)"/><path d="M748.88,364.69a6.1,6.1,0,0,1,4.38-.34,4.73,4.73,0,0,1,2.82,2.89,4.79,4.79,0,0,1,0,4.06,6.15,6.15,0,0,1-3.41,2.83,6.07,6.07,0,0,1-4.39.35,4.82,4.82,0,0,1-2.81-2.95,4.72,4.72,0,0,1,0-4A6.1,6.1,0,0,1,748.88,364.69Zm3.34,8.18a5.26,5.26,0,0,0,2.8-2.18,3.92,3.92,0,0,0-2.1-5.16,6.65,6.65,0,0,0-6.31,2.57,3.35,3.35,0,0,0,0,3,3.42,3.42,0,0,0,2.14,2.15A5.21,5.21,0,0,0,752.21,372.87Z" fill="#fff"/><circle cx="774.37" cy="408.99" r="13.9" transform="translate(-100.49 369.85) rotate(-25.28)" fill="url(#radial-gradient-49)"/><circle cx="760.45" cy="420.48" r="7.22" transform="translate(-106.73 365.01) rotate(-25.28)" fill="url(#radial-gradient-50)"/><circle cx="782.01" cy="426.26" r="7.22" transform="translate(-107.14 374.77) rotate(-25.28)" fill="url(#radial-gradient-51)"/><path d="M769.7,411a6.1,6.1,0,0,1-.57-4.36,4.73,4.73,0,0,1,2.73-3,4.79,4.79,0,0,1,4.06-.26,6.15,6.15,0,0,1,3,3.25,6.07,6.07,0,0,1,.59,4.36,4.82,4.82,0,0,1-2.79,3,4.72,4.72,0,0,1-4,.22A6.1,6.1,0,0,1,769.7,411Zm8-3.77a5.26,5.26,0,0,0-2.33-2.68,3.92,3.92,0,0,0-5,2.37,6.65,6.65,0,0,0,2.91,6.16,3.35,3.35,0,0,0,3-.14,3.42,3.42,0,0,0,2-2.25A5.21,5.21,0,0,0,777.69,407.27Z" fill="#fff"/><circle cx="822.17" cy="408.22" r="13.9" transform="translate(230.27 1109.83) rotate(-76.25)" fill="url(#radial-gradient-52)"/><circle cx="822.33" cy="426.26" r="7.22" transform="translate(212.87 1123.75) rotate(-76.25)" fill="url(#radial-gradient-53)"/><circle cx="840.4" cy="413.16" r="7.22" transform="translate(239.38 1131.31) rotate(-76.25)" fill="url(#radial-gradient-54)"/><path d="M820.82,413.13a6.1,6.1,0,0,1-3.74-2.3,4.73,4.73,0,0,1-.59-4,4.79,4.79,0,0,1,2.35-3.31,6.15,6.15,0,0,1,4.42-.29,6.07,6.07,0,0,1,3.76,2.29,4.82,4.82,0,0,1,.55,4,4.72,4.72,0,0,1-2.36,3.26A6.1,6.1,0,0,1,820.82,413.13Zm2.1-8.58a5.26,5.26,0,0,0-3.55.12,3.92,3.92,0,0,0-1.33,5.41,6.65,6.65,0,0,0,6.62,1.62,3.35,3.35,0,0,0,1.78-2.42,3.42,3.42,0,0,0-.46-3A5.21,5.21,0,0,0,822.92,404.56Z" fill="#fff"/><circle cx="850.18" cy="367.45" r="13.9" transform="translate(-75.81 348.49) rotate(-22.2)" fill="url(#radial-gradient-55)"/><circle cx="860.91" cy="381.96" r="7.22" transform="translate(-80.5 353.62) rotate(-22.2)" fill="url(#radial-gradient-56)"/><circle cx="867.84" cy="360.74" r="7.22" transform="translate(-71.97 354.67) rotate(-22.2)" fill="url(#radial-gradient-57)"/><path d="M852,372.22a6.1,6.1,0,0,1-4.38.34,4.73,4.73,0,0,1-2.82-2.89,4.79,4.79,0,0,1,0-4.06,6.15,6.15,0,0,1,3.41-2.83,6.07,6.07,0,0,1,4.39-.35,4.82,4.82,0,0,1,2.81,2.95,4.72,4.72,0,0,1,0,4A6.1,6.1,0,0,1,852,372.22ZM848.64,364a5.26,5.26,0,0,0-2.8,2.18,3.92,3.92,0,0,0,2.1,5.16,6.65,6.65,0,0,0,6.31-2.57,3.35,3.35,0,0,0,0-3,3.42,3.42,0,0,0-2.14-2.15A5.21,5.21,0,0,0,848.64,364Z" fill="#fff"/><circle cx="826.48" cy="327.93" r="13.9" transform="translate(-60.89 384.34) rotate(-25.28)" fill="url(#radial-gradient-58)"/><circle cx="840.4" cy="316.44" r="7.22" transform="translate(-54.65 389.18) rotate(-25.28)" fill="url(#radial-gradient-59)"/><circle cx="818.84" cy="310.65" r="7.22" transform="translate(-54.24 379.42) rotate(-25.28)" fill="url(#radial-gradient-60)"/><path d="M831.15,325.87a6.1,6.1,0,0,1,.57,4.36,4.73,4.73,0,0,1-2.73,3,4.79,4.79,0,0,1-4.06.26,6.15,6.15,0,0,1-3-3.25,6.07,6.07,0,0,1-.59-4.36,4.82,4.82,0,0,1,2.79-3,4.72,4.72,0,0,1,4-.22A6.1,6.1,0,0,1,831.15,325.87Zm-8,3.77a5.26,5.26,0,0,0,2.33,2.68,3.92,3.92,0,0,0,5-2.37,6.65,6.65,0,0,0-2.91-6.16,3.35,3.35,0,0,0-3,.14,3.42,3.42,0,0,0-2,2.25A5.21,5.21,0,0,0,823.17,329.65Z" fill="#fff"/></g></g><g id="c-0-stick-2" data-name="c-0-stick"><line x1="514.2" y1="507.07" x2="714.72" y2="409.48" fill="#231f20" stroke="#231f20" stroke-miterlimit="10"/><ellipse cx="514.16" cy="507.09" rx="2.2" ry="2.14" transform="translate(-98.99 125.58) rotate(-12.71)" fill="#231f20"/></g><circle id="c-0-stroke" cx="800.43" cy="368.46" r="95" fill="none" stroke="#231f20" stroke-miterlimit="10"/></g></svg>